<?xml version="1.0" standalone="no"?>
<!DOCTYPE svg PUBLIC "-//W3C//DTD SVG 1.1//EN" "http://www.w3.org/Graphics/SVG/1.1/DTD/svg11.dtd" >
<svg>
<metadata>
Created by FontForge 20090622 at Wed Nov 11 20:38:31 2015
 By deploy user
Copyright (C) 2002, 2007 Hoefler &#38; Frere-Jones. http://www.typography.com
</metadata>
<defs>
<font id="ChronicleDisplay-SemiItalic" horiz-adv-x="761" >
  <font-face 
    font-family="Chronicle Display Semi"
    font-weight="375"
    font-style="italic"
    font-stretch="normal"
    units-per-em="1000"
    panose-1="0 0 0 0 0 0 0 0 0 0"
    ascent="800"
    descent="-200"
    x-height="461"
    cap-height="697"
    bbox="-188 -287 1150 1154"
    underline-thickness="50"
    underline-position="-50"
    slope="-12"
    unicode-range="U+0020-U+FB04"
  />
<missing-glyph horiz-adv-x="500" 
d="M0 -200v1000h500v-1000h-500zM71 750l179 -390l179 390h-358zM50 -76l172 376l-172 376v-752zM450 676l-172 -376l172 -376v752zM250 240l-179 -390h358z" />
    <glyph glyph-name="f_f" unicode="ff" horiz-adv-x="604" 
d="M403 712q47 0 80.5 -15.5t45.5 -42.5q57 69 145 69q56 0 89 -24t33 -63q0 -27 -15 -44.5t-43 -17.5q-26 0 -42 16t-16 42q0 32 24 56q-10 16 -36 16q-66 0 -100 -147l-24 -99h122l-7 -22h-118l-73 -342q-35 -165 -84.5 -229.5t-131.5 -64.5q-49 0 -75.5 19t-26.5 49
q0 23 15.5 39.5t39.5 16.5q25 0 39 -16.5t14 -37.5q0 -32 -25 -46q10 -4 20 -4q25 0 45 23.5t34 88.5l111 504h-187l-72 -339q-35 -168 -85.5 -232.5t-141.5 -64.5q-53 0 -82 20t-29 54q0 24 16 40.5t41 16.5t39.5 -16t14.5 -38q0 -33 -27 -49q13 -9 32 -9q32 0 53 30
t41 120l103 467h-113l7 22h109l9 35q31 115 89 167t143 52zM447 458l10 43q11 41 20 63q-26 0 -41.5 15.5t-15.5 41.5q0 33 24 57q-12 16 -44 16q-44 0 -72 -34.5t-49 -117.5l-19 -84h187z" />
    <glyph glyph-name="fi" unicode="fi" horiz-adv-x="582" 
d="M256 436l-72 -339q-35 -168 -85.5 -232.5t-141.5 -64.5q-53 0 -82 20t-29 54q0 24 16 40.5t41 16.5t39.5 -16t14.5 -38q0 -33 -27 -49q13 -9 32 -9q32 0 53 30t41 120l103 467h-113l7 22h109l10 39q56 226 237 226q70 0 112.5 -28.5t42.5 -68.5q0 -27 -16.5 -45.5
t-41.5 -18.5q-28 0 -44 16.5t-16 41.5q0 35 26 58q-5 9 -24 17.5t-39 8.5q-49 0 -79 -36t-49 -120l-21 -90h156l136 5l-110 -358q-10 -30 -10 -44q0 -23 22 -30t78 -4v-10q-59 -25 -115 -25q-87 0 -87 68q0 18 8 47l102 329h-184z" />
    <glyph glyph-name="fl" unicode="fl" horiz-adv-x="581" 
d="M256 436l-72 -339q-35 -168 -85.5 -232.5t-141.5 -64.5q-53 0 -82 20t-29 54q0 24 16 40.5t41 16.5t39.5 -16t14.5 -38q0 -33 -27 -49q13 -9 32 -9q32 0 53 30t41 120l103 467h-113l7 22h109l10 40q55 225 230 225q59 0 97 -22l110 19l9 -3l-177 -611q-7 -28 -7 -42
q0 -24 22.5 -32t80.5 -4v-10q-59 -25 -120 -25q-86 0 -86 68q0 19 8 46l98 329h-181zM443 458l30 109q-42 9 -42 56q0 35 25 58q-5 9 -21.5 16t-34.5 7q-43 0 -71 -35.5t-48 -118.5l-21 -92h183z" />
    <glyph glyph-name="f_f_i" unicode="ffi" horiz-adv-x="845" 
d="M694 723q70 0 112 -28t42 -69q0 -27 -16 -45.5t-42 -18.5q-27 0 -43 16.5t-16 41.5q0 35 26 58q-5 9 -24 17.5t-40 8.5q-48 0 -78 -36t-49 -120l-22 -90h157l136 5l-111 -358q-9 -32 -9 -44q0 -23 21.5 -30t78.5 -4v-10q-59 -25 -115 -25q-87 0 -87 68q0 18 8 47l102 329
h-184l-73 -342q-35 -165 -84.5 -229.5t-131.5 -64.5q-49 0 -75.5 19t-26.5 49q0 23 15.5 39.5t39.5 16.5q25 0 39 -16.5t14 -37.5q0 -32 -25 -46q10 -4 20 -4q25 0 45 23.5t34 88.5l111 504h-187l-72 -339q-35 -168 -85.5 -232.5t-141.5 -64.5q-53 0 -82 20t-29 54
q0 24 16 40.5t41 16.5t39.5 -16t14.5 -38q0 -33 -27 -49q13 -9 32 -9q32 0 53 30t41 120l103 467h-113l7 22h109l9 35q31 115 89 167t143 52q47 0 81.5 -16.5t45.5 -43.5q61 71 164 71zM457 497q10 39 21 67h-1q-26 0 -41.5 15.5t-15.5 41.5q0 33 24 57q-12 16 -44 16
q-44 0 -72 -34.5t-49 -117.5l-19 -84h187z" />
    <glyph glyph-name="f_f_l" unicode="ffl" horiz-adv-x="866" 
d="M162 458l9 35q31 115 89 167t143 52q48 0 81.5 -16t44.5 -43q61 70 158 70q59 0 97 -22l110 19l9 -3l-177 -611q-8 -26 -8 -42q0 -24 23 -32t80 -4v-10q-59 -25 -119 -25q-86 0 -86 68q0 19 8 46l98 329h-181l-73 -342q-35 -165 -84.5 -229.5t-131.5 -64.5
q-49 0 -75.5 19t-26.5 49q0 23 15.5 39.5t39.5 16.5q25 0 39 -16.5t14 -37.5q0 -32 -25 -46q10 -4 20 -4q25 0 45 23.5t34 88.5l111 504h-187l-72 -339q-35 -168 -85.5 -232.5t-141.5 -64.5q-53 0 -82 20t-29 54q0 24 16 40.5t41 16.5t39.5 -16t14.5 -38q0 -33 -27 -49
q13 -9 32 -9q32 0 53 30t41 120l103 467h-113l7 22h109zM728 458l29 109q-42 10 -42 56q0 35 26 58q-5 9 -22 16t-34 7q-44 0 -71.5 -35.5t-47.5 -118.5l-22 -92h184zM457 498q9 36 21 66h-1q-26 0 -41.5 15.5t-15.5 41.5q0 33 24 57q-12 16 -44 16q-44 0 -72 -34.5
t-49 -117.5l-19 -84h187z" />
    <glyph glyph-name="f_b" unicode="fb" horiz-adv-x="832" 
d="M527 394l2 -2q73 76 149 76q54 0 88 -40t34 -112q0 -77 -37.5 -151t-107 -124t-151.5 -50q-99 0 -172 59l60 205l45 181h-181l-72 -339q-35 -168 -85.5 -232.5t-141.5 -64.5q-53 0 -82 20t-29 54q0 24 16 40.5t41 16.5t39.5 -16t14.5 -38q0 -33 -27 -49q13 -9 32 -9
q32 0 53 30t41 120l103 467h-113l7 22h109l10 40q55 225 230 225q59 0 97 -22l109 19l9 -3zM443 458l28 109q-40 12 -40 56q0 35 25 58q-5 9 -21.5 16t-34.5 7q-43 0 -71 -35.5t-48 -118.5l-21 -92h183zM514 10q49 0 91.5 50t65.5 119.5t23 134.5q0 103 -77 103
q-45 0 -95 -48l-82 -313q18 -46 74 -46z" />
    <glyph glyph-name="f_h" unicode="fh" horiz-adv-x="845" 
d="M256 436l-72 -339q-36 -168 -86.5 -232.5t-140.5 -64.5q-53 0 -82 20t-29 54q0 24 16 40.5t41 16.5t39.5 -16t14.5 -38q0 -33 -28 -49q13 -9 33 -9q32 0 53 30t41 120l103 467h-113l7 22h109l10 40q55 225 230 225q59 0 97 -22l109 19l9 -3l-99 -351l3 -2q45 47 95 74.5
t91 27.5q46 0 70.5 -24t24.5 -68q0 -33 -11 -67l-68 -211q-10 -32 -10 -45q0 -20 19.5 -26t69.5 -2v-10q-48 -21 -100 -21q-87 0 -87 62q0 21 9 48l65 201q10 33 10 58q0 49 -52 49q-56 0 -133 -67l-85 -343h-109l48 162l69 274h-181zM443 458l28 109q-40 12 -40 56
q0 35 25 58q-5 9 -21.5 16t-34.5 7q-43 0 -71 -35.5t-48 -118.5l-21 -92h183z" />
    <glyph glyph-name="f_j" unicode="fj" horiz-adv-x="566" 
d="M256 436l-72 -339q-35 -168 -85.5 -232.5t-141.5 -64.5q-53 0 -82 20t-29 54q0 24 16 40.5t41 16.5t39.5 -16t14.5 -38q0 -33 -27 -49q13 -9 32 -9q32 0 53 30t41 120l103 467h-113l7 22h109l10 39q56 226 237 226q70 0 112.5 -28.5t42.5 -68.5q0 -27 -16.5 -45.5
t-41.5 -18.5q-28 0 -44 16.5t-16 41.5q0 35 26 58q-5 9 -24 17.5t-39 8.5q-49 0 -79 -36t-49 -120l-21 -90h159l130 5l-118 -471q-25 -99 -70 -145.5t-123 -46.5q-49 0 -75 19t-26 50q0 23 15.5 40t39.5 17t38 -16.5t14 -37.5q0 -32 -24 -47q12 -5 20 -5q24 0 42.5 23
t33.5 87l124 506h-184z" />
    <glyph glyph-name="f_k" unicode="fk" horiz-adv-x="812" 
d="M256 436l-72 -339q-35 -168 -85.5 -232.5t-141.5 -64.5q-53 0 -82 20t-29 54q0 24 16 40.5t41 16.5t39.5 -16t14.5 -38q0 -33 -27 -49q13 -9 32 -9q32 0 53 30t41 120l103 467h-113l7 22h109l10 40q55 225 230 225q59 0 97 -22l109 19l9 -3l-122 -446h27q32 0 60.5 31
t46.5 67.5t49 67.5t67 31q31 0 49 -18t18 -43q0 -31 -15.5 -48.5t-41.5 -17.5q-24 0 -39.5 13t-15.5 36q0 18 11 34q-20 -4 -43 -37.5l-49.5 -70.5t-52.5 -47v-3q80 -4 110 -29.5t30 -74.5q0 -13 -3.5 -54t-3.5 -58q0 -20 15.5 -27.5t65.5 -6.5v-10q-34 -14 -98 -14
q-52 0 -69 16.5t-17 52.5q0 21 3.5 59t3.5 48q0 51 -16 69.5t-56 18.5h-39l-63 -256h-108l47 162l69 274h-181zM443 458l28 109q-40 12 -40 56q0 35 25 58q-5 9 -21.5 16t-34.5 7q-43 0 -71 -35.5t-48 -118.5l-21 -92h183z" />
    <glyph glyph-name="f_f_b" unicode="ffb" horiz-adv-x="1116" 
d="M687 723q59 0 97 -22l108 19l9 -3l-90 -323l3 -2q73 76 149 76q54 0 88 -40t34 -112q0 -77 -37.5 -151t-107.5 -124t-152 -50q-98 0 -171 59l60 205l45 181h-181l-73 -342q-35 -165 -84.5 -229.5t-131.5 -64.5q-49 0 -75.5 19t-26.5 49q0 23 15.5 39.5t39.5 16.5
q25 0 39 -16.5t14 -37.5q0 -32 -25 -46q10 -4 20 -4q25 0 45 23.5t34 88.5l111 504h-187l-72 -339q-35 -168 -85.5 -232.5t-141.5 -64.5q-53 0 -82 20t-29 54q0 24 16 40.5t41 16.5t39.5 -16t14.5 -38q0 -33 -27 -49q13 -9 32 -9q32 0 53 30t41 120l103 467h-113l7 22h109
l9 35q31 115 89 167t143 52q48 0 81.5 -16t44.5 -43q61 70 158 70zM798 10q49 0 92 50t66 119.5t23 134.5q0 103 -78 103q-43 0 -95 -48l-81 -313q18 -46 73 -46zM728 458l28 109q-41 11 -41 56q0 35 26 58q-5 9 -22 16t-34 7q-44 0 -71.5 -35.5t-47.5 -118.5l-22 -92h184z
M457 498q9 36 21 66h-1q-26 0 -41.5 15.5t-15.5 41.5q0 33 24 57q-12 16 -44 16q-44 0 -72 -34.5t-49 -117.5l-19 -84h187z" />
    <glyph glyph-name="f_f_h" unicode="ffh" horiz-adv-x="1129" 
d="M162 458l9 35q31 115 89 167t143 52q48 0 81.5 -16t44.5 -43q61 70 158 70q59 0 97 -22l108 19l9 -3l-98 -351l3 -2q45 47 95 74.5t91 27.5q46 0 70.5 -24t24.5 -68q0 -30 -12 -67l-68 -211q-9 -28 -9 -45q0 -20 19.5 -26t69.5 -2v-10q-51 -21 -100 -21q-88 0 -88 62
q0 21 9 48l66 201q10 33 10 58q0 49 -52 49q-56 0 -133 -67l-86 -343h-108l48 162l69 274h-181l-73 -342q-35 -165 -84.5 -229.5t-131.5 -64.5q-49 0 -75.5 19t-26.5 49q0 23 15.5 39.5t39.5 16.5q25 0 39 -16.5t14 -37.5q0 -32 -25 -46q10 -4 20 -4q25 0 45 23.5t34 88.5
l111 504h-187l-72 -339q-35 -168 -85.5 -232.5t-141.5 -64.5q-53 0 -82 20t-29 54q0 24 16 40.5t41 16.5t39.5 -16t14.5 -38q0 -33 -27 -49q13 -9 32 -9q32 0 53 30t41 120l103 467h-113l7 22h109zM728 458l28 109q-41 11 -41 56q0 35 26 58q-5 9 -22 16t-34 7
q-44 0 -71.5 -35.5t-47.5 -118.5l-22 -92h184zM457 498q9 36 21 66h-1q-26 0 -41.5 15.5t-15.5 41.5q0 33 24 57q-12 16 -44 16q-44 0 -72 -34.5t-49 -117.5l-19 -84h187z" />
    <glyph glyph-name="f_f_j" unicode="ffj" horiz-adv-x="851" 
d="M162 458l9 35q31 115 89 167t143 52q47 0 81.5 -16.5t45.5 -43.5q61 71 164 71q70 0 112 -28t42 -69q0 -27 -16 -45.5t-42 -18.5q-27 0 -43 16.5t-16 41.5q0 35 26 58q-5 9 -24 17.5t-40 8.5q-48 0 -78 -36t-49 -120l-22 -90h160l130 5l-119 -471q-25 -99 -69.5 -145.5
t-122.5 -46.5q-49 0 -75 19t-26 50q0 23 15.5 40t39.5 17t37.5 -16.5t13.5 -37.5q0 -33 -23 -47q13 -5 20 -5q24 0 42.5 23t33.5 87l124 506h-184l-73 -342q-35 -165 -84.5 -229.5t-131.5 -64.5q-49 0 -75.5 19t-26.5 49q0 23 15.5 39.5t39.5 16.5q25 0 39 -16.5t14 -37.5
q0 -32 -25 -46q10 -4 20 -4q25 0 45 23.5t34 88.5l111 504h-187l-72 -339q-35 -168 -85.5 -232.5t-141.5 -64.5q-53 0 -82 20t-29 54q0 24 16 40.5t41 16.5t39.5 -16t14.5 -38q0 -33 -27 -49q13 -9 32 -9q32 0 53 30t41 120l103 467h-113l7 22h109zM457 497q10 39 21 67h-1
q-26 0 -41.5 15.5t-15.5 41.5q0 33 24 57q-12 16 -44 16q-44 0 -72 -34.5t-49 -117.5l-19 -84h187z" />
    <glyph glyph-name="f_f_k" unicode="ffk" horiz-adv-x="1097" 
d="M162 458l9 35q31 115 89 167t143 52q48 0 81.5 -16t44.5 -43q61 70 158 70q59 0 97 -22l108 19l9 -3l-121 -446h27q32 0 60.5 31t46.5 67.5t49 67.5t67 31q32 0 49.5 -18t17.5 -43q0 -31 -15.5 -48.5t-41.5 -17.5q-24 0 -39.5 13t-15.5 36q0 20 11 34q-20 -4 -43.5 -37.5
l-49.5 -70.5t-52 -47v-3q80 -4 110 -29.5t30 -74.5q0 -13 -3.5 -54t-3.5 -58q0 -20 15.5 -27.5t65.5 -6.5v-10q-34 -14 -98 -14q-52 0 -69.5 16.5t-17.5 52.5q0 21 4 59t4 48q0 51 -16 69.5t-56 18.5h-39l-64 -256h-107l47 162l69 274h-181l-73 -342q-35 -165 -84.5 -229.5
t-131.5 -64.5q-49 0 -75.5 19t-26.5 49q0 23 15.5 39.5t39.5 16.5q25 0 39 -16.5t14 -37.5q0 -32 -25 -46q10 -4 20 -4q25 0 45 23.5t34 88.5l111 504h-187l-72 -339q-35 -168 -85.5 -232.5t-141.5 -64.5q-53 0 -82 20t-29 54q0 24 16 40.5t41 16.5t39.5 -16t14.5 -38
q0 -33 -27 -49q13 -9 32 -9q32 0 53 30t41 120l103 467h-113l7 22h109zM728 458l28 109q-41 11 -41 56q0 35 26 58q-5 9 -22 16t-34 7q-44 0 -71.5 -35.5t-47.5 -118.5l-22 -92h184zM457 498q9 36 21 66h-1q-26 0 -41.5 15.5t-15.5 41.5q0 33 24 57q-12 16 -44 16
q-44 0 -72 -34.5t-49 -117.5l-19 -84h187z" />
    <glyph glyph-name=".notdef" horiz-adv-x="500" 
d="M0 -200v1000h500v-1000h-500zM71 750l179 -390l179 390h-358zM50 -76l172 376l-172 376v-752zM450 676l-172 -376l172 -376v752zM250 240l-179 -390h358z" />
    <glyph glyph-name=".null" horiz-adv-x="0" 
 />
    <glyph glyph-name="nonmarkingreturn" horiz-adv-x="333" 
 />
    <glyph glyph-name="space" unicode=" " horiz-adv-x="184" 
 />
    <glyph glyph-name="exclam" unicode="!" horiz-adv-x="279" 
d="M141 187l-14 3q18 96 37.5 261.5t30.5 206.5q18 67 66 67q26 0 41 -17.5t15 -47.5q0 -31 -23.5 -94t-72 -177t-80.5 -202zM96 -16q-29 0 -48.5 19.5t-19.5 46.5q0 28 20 47.5t48 19.5t48 -19.5t20 -46.5q0 -28 -20 -47.5t-48 -19.5z" />
    <glyph glyph-name="quotedbl" unicode="&#x22;" horiz-adv-x="444" 
d="M107 427l-9 6l50 114q43 96 64.5 126.5t48.5 30.5q20 0 33 -13.5t13 -29.5q0 -22 -20.5 -51.5t-85.5 -93.5zM299 427l-9 6l50 114q43 96 64.5 126.5t48.5 30.5q20 0 33 -13.5t13 -29.5q0 -22 -20.5 -51.5t-85.5 -93.5z" />
    <glyph glyph-name="numbersign" unicode="#" horiz-adv-x="703" 
d="M391 703l-70 -226h210l70 226h25l-70 -226h155l-1 -21h-160l-78 -252h168l-1 -21h-174l-69 -226h-25l69 226h-210l-69 -226h-25l69 226h-154l1 21h160l78 252h-167l1 21h172l70 226h25zM315 456l-78 -252h210l78 252h-210z" />
    <glyph glyph-name="dollar" unicode="$" horiz-adv-x="570" 
d="M215 -68l-27 6l25 84q-81 9 -131 45.5t-50 90.5q0 32 20 56.5t57 24.5q26 0 43 -17t17 -42t-17 -43.5t-44 -24.5q9 -22 41.5 -40.5t71.5 -27.5l71 246l-51 24.5t-43 25t-37 31t-22 37t-9 46.5q0 79 71 134t180 55q12 0 18 -1l21 76l27 -6l-21 -73q69 -10 115 -45.5
t46 -84.5q0 -30 -19.5 -52.5t-49.5 -22.5q-26 0 -43 15.5t-17 40.5q0 21 13.5 39t36.5 26q-21 46 -89 63l-68 -230q1 -1 2 -1q2 -1 3 -1l38.5 -19t35 -19t35 -25t24.5 -27.5t19.5 -36.5t5.5 -43q0 -75 -70 -136t-177 -61q-18 0 -27 1zM413 162q0 68 -99 117l-69 -239
q7 -1 22 -1q69 0 107.5 34.5t38.5 88.5zM229 511q0 -37 24 -61.5t77 -51.5l64 224q-2 0 -8 0.5t-9 0.5q-63 0 -105 -30t-43 -82z" />
    <glyph glyph-name="percent" unicode="%" horiz-adv-x="812" 
d="M417 616q40 -22 92 -22q89 0 199 97h28l-573 -717h-47l543 650l-3 3q-77 -61 -176 -61q-37 0 -56 4q0 -60 -28.5 -124.5t-82 -111t-114.5 -46.5q-56 0 -87 32.5t-31 88.5q0 94 77 180.5t171 86.5q69 0 88 -60zM557 -14q-57 0 -88 32.5t-31 88.5q0 94 77.5 181t170.5 87
q45 0 70 -28t25 -79q0 -95 -67 -188.5t-157 -93.5zM568 10q49 0 94 44t69.5 102.5t24.5 107.5q0 75 -56 75q-64 0 -124.5 -88.5t-60.5 -166.5q0 -74 53 -74zM399 578q-47 16 -88 55q-58 -22 -105.5 -101.5t-47.5 -146.5q0 -74 53 -74q49 0 94 44t69.5 103t24.5 108v12z" />
    <glyph glyph-name="ampersand" unicode="&#x26;" horiz-adv-x="708" 
d="M352 380q118 65 118 196q0 37 -18 57t-49 20q-43 0 -75 -36t-32 -93q0 -69 56 -144zM260 336q-127 -66 -127 -184q0 -51 29 -81.5t82 -30.5q67 0 137 69q-31 111 -121 227zM459 193q103 173 184 173q35 0 54.5 -19t19.5 -51q0 -27 -17.5 -47.5t-45.5 -20.5
q-24 0 -41.5 15.5t-17.5 38.5q0 10 4 21l-2 3q-28 -10 -56.5 -37t-73.5 -93q24 -78 51 -104.5t68 -26.5q30 0 70 30l8 -8q-69 -84 -137 -84q-107 0 -141 110q-91 -110 -204 -110q-78 0 -120.5 41.5t-42.5 102.5q0 77 60.5 135.5t171.5 86.5q-25 38 -35 65t-10 64
q0 77 60.5 133t137.5 56q70 0 111.5 -34.5t41.5 -86.5q0 -53 -51 -100t-144 -80q68 -84 97 -173z" />
    <glyph glyph-name="quotesingle" unicode="'" horiz-adv-x="253" 
d="M107 427l-9 6l50 114q43 96 64.5 126.5t48.5 30.5q20 0 33 -13.5t13 -29.5q0 -22 -20.5 -51.5t-85.5 -93.5z" />
    <glyph glyph-name="parenleft" unicode="(" horiz-adv-x="383" 
d="M314 -166q-105 52 -170 149t-65 224q0 104 44 202t114 168.5t152.5 119t163.5 67.5l3 -11q-116 -40 -203.5 -137.5t-129.5 -215t-42 -237.5q0 -112 32 -186.5t106 -133.5z" />
    <glyph glyph-name="parenright" unicode=")" horiz-adv-x="383" 
d="M-134 -164l-3 11q117 40 204.5 137.5t129.5 215t42 237.5q0 113 -32 187t-106 133l5 9q105 -52 170 -149.5t65 -223.5q0 -104 -44 -202t-114 -168.5t-152.5 -119t-164.5 -67.5z" />
    <glyph glyph-name="asterisk" unicode="*" horiz-adv-x="423" 
d="M357 392q-33 -16 -51 28q-7 16 -16 121l-9 2q-2 -3 -18 -29.5t-29 -46t-21 -25.5q-33 -29 -57 -2q-24 26 10 56q15 14 110 52v10q-106 24 -118 32q-38 22 -20 54q20 30 57 7q25 -15 84 -89l9 4q-9 110 -6 123q11 42 46 36q16 -3 23 -17t2 -35q-2 -9 -13.5 -30t-28 -48.5
t-18.5 -30.5l7 -5q3 1 31.5 13t51 20t32.5 9q44 3 47 -31q3 -36 -41 -41q-10 -1 -34 3.5t-52.5 11t-34.5 7.5l-5 -6q3 -4 17.5 -20t25 -29l21.5 -27t14 -21q16 -42 -16 -56z" />
    <glyph glyph-name="plus" unicode="+" horiz-adv-x="552" 
d="M377 547l-56 -211h210l-6 -22h-210l-57 -214h-26l57 214h-212l6 22h212l56 211h26z" />
    <glyph glyph-name="comma" unicode="," horiz-adv-x="235" 
d="M-69 -146l-4 12q123 53 150 121l-4 3q-28 -4 -46.5 14t-18.5 46t19.5 47.5t47.5 19.5q30 0 49.5 -22t19.5 -53q0 -117 -213 -188z" />
    <glyph glyph-name="hyphen" unicode="-" horiz-adv-x="366" 
d="M57 239l11 41h256l-11 -41h-256z" />
    <glyph glyph-name="period" unicode="." horiz-adv-x="235" 
d="M76 -16q-28 0 -48 19.5t-20 46.5q0 28 20 47.5t49 19.5q28 0 47.5 -19.5t19.5 -46.5q0 -28 -20 -47.5t-48 -19.5z" />
    <glyph glyph-name="slash" unicode="/" horiz-adv-x="457" 
d="M-119 -215l341 480l337 481h32l-341 -481l-337 -480h-32z" />
    <glyph glyph-name="zero" unicode="0" horiz-adv-x="615" 
d="M159 160q0 -153 101 -153q56 0 105 52t79.5 129.5t47.5 161t17 152.5q0 154 -101 154q-56 0 -105 -52t-79.5 -130t-47.5 -161.5t-17 -152.5zM618 430q0 -72 -26 -149t-70.5 -143t-114 -109t-147.5 -43q-95 0 -152.5 64.5t-57.5 181.5q0 72 26 149t70.5 143t114 109
t147.5 43q95 0 152.5 -64.5t57.5 -181.5z" />
    <glyph glyph-name="one" unicode="1" horiz-adv-x="422" 
d="M-24 0l3 13q79 4 106 14.5t35 42.5l127 477q14 51 -4 69.5t-101 21.5l4 13l246 19l-162 -600q-9 -32 12 -42.5t101 -14.5l-3 -13h-364z" />
    <glyph glyph-name="two" unicode="2" horiz-adv-x="550" 
d="M-10 0l16 70l245 172q106 73 151.5 138.5t45.5 147.5q0 130 -106 130q-38 0 -73.5 -19.5t-55.5 -51.5q62 -19 62 -77q0 -30 -21 -52.5t-52 -22.5q-32 0 -51.5 21t-19.5 56q0 67 66 115.5t160 48.5q98 0 152.5 -44.5t54.5 -112.5q0 -71 -69.5 -136.5t-275.5 -194.5
l-142 -94v-3h257q53 0 81.5 20t69.5 85l13 -1l-56 -195h-452z" />
    <glyph glyph-name="three" unicode="3" horiz-adv-x="557" 
d="M214 332l6 22q133 0 191 50q26 24 40.5 63.5t14.5 77.5q0 113 -112 113q-41 0 -74 -17t-48 -39q51 -19 51 -69q0 -28 -18.5 -49.5t-50.5 -21.5q-30 0 -50 20t-20 49q0 62 62.5 103.5t160.5 41.5q100 0 155.5 -42t55.5 -109q0 -68 -72 -120.5t-214 -62.5l-1 -5
q108 -7 161.5 -49t53.5 -109q0 -84 -77 -138.5t-194 -54.5q-99 0 -155 40.5t-56 98.5q0 37 21 61t54 24q29 0 47.5 -20.5t18.5 -47.5q0 -57 -59 -77q10 -24 44 -42.5t78 -18.5q68 0 108 40q56 56 56 156q0 126 -178 132z" />
    <glyph glyph-name="four" unicode="4" horiz-adv-x="582" 
d="M559 206h-141l-38 -144q-8 -27 10 -37.5t77 -11.5l-4 -13h-306l2 13q96 1 108 49l39 144h-292l13 46l441 410h71l-103 -389h139zM399 567l-315 -294h240l79 294h-4z" />
    <glyph glyph-name="five" unicode="5" horiz-adv-x="551" 
d="M220 -14q-82 0 -137.5 39.5t-55.5 99.5q0 33 21.5 58.5t55.5 25.5q30 0 47.5 -19.5t17.5 -45.5q0 -59 -56 -78q22 -62 117 -62q46 0 80.5 26t52 67t26 81.5t8.5 79.5q0 128 -108 128q-82 0 -152 -54l-21 7l95 323h386l-38 -98h-354l-65 -209q86 54 166 54
q94 0 149.5 -44.5t55.5 -125.5q0 -103 -84 -178t-207 -75z" />
    <glyph glyph-name="six" unicode="6" horiz-adv-x="565" 
d="M248 -14q-95 0 -147 61.5t-52 155.5q0 199 149.5 329.5t404.5 147.5v-14q-336 -61 -421 -323l3 -3q80 105 185 105q81 0 123.5 -49.5t42.5 -125.5q0 -108 -82.5 -196t-205.5 -88zM249 6q52 0 94 50t62.5 118t20.5 133q0 115 -81 115q-73 0 -133 -84t-60 -193
q0 -139 97 -139z" />
    <glyph glyph-name="seven" unicode="7" horiz-adv-x="519" 
d="M30 -10v7l499 571h-272q-46 0 -72 -21.5t-70 -99.5h-12l59 215h447l3 -11l-274 -380l-192 -281h-116z" />
    <glyph glyph-name="eight" unicode="8" horiz-adv-x="552" 
d="M250 -14q-102 0 -157.5 45t-55.5 110q0 63 52 112.5t143 75.5q-48 31 -72 64.5t-24 78.5q0 81 70 142.5t170 61.5q93 0 144 -42t51 -104q0 -55 -48 -101t-135 -74q56 -33 88 -72t32 -95q0 -90 -77 -146t-181 -56zM262 311q-8 4 -12 7q-56 -27 -86 -75t-30 -99
q0 -60 34.5 -99t89.5 -39q61 0 101 36.5t40 108.5q0 50 -33.5 85t-103.5 75zM241 518q0 -44 32 -79t94 -71q107 64 107 175q0 53 -27.5 83t-77.5 30q-54 0 -91 -37t-37 -101z" />
    <glyph glyph-name="nine" unicode="9" horiz-adv-x="560" 
d="M377 676q94 0 146 -62t52 -159q0 -196 -149 -325.5t-405 -146.5l1 14q341 64 416 317l-3 2q-73 -98 -176 -98q-82 0 -126.5 49.5t-44.5 126.5q0 107 83 194.5t206 87.5zM373 656q-50 0 -91.5 -49t-62 -116t-20.5 -130q0 -120 86 -120q70 0 127.5 82t57.5 195
q0 63 -24 100.5t-73 37.5z" />
    <glyph glyph-name="colon" unicode=":" horiz-adv-x="241" 
d="M79 -16q-28 0 -48 19.5t-20 46.5q0 28 20 47.5t49 19.5q28 0 47.5 -19.5t19.5 -46.5q0 -28 -20 -47.5t-48 -19.5zM151 274q-29 0 -48.5 19.5t-19.5 46.5q0 28 20 47.5t49 19.5q28 0 47.5 -19.5t19.5 -46.5q0 -28 -20 -47.5t-48 -19.5z" />
    <glyph glyph-name="semicolon" unicode=";" horiz-adv-x="241" 
d="M151 274q-29 0 -48.5 19.5t-19.5 46.5q0 28 20 47.5t49 19.5q28 0 47.5 -19.5t19.5 -46.5q0 -28 -20 -47.5t-48 -19.5zM-66 -146l-4 12q123 53 150 121l-4 3q-28 -4 -46.5 14t-18.5 46t19.5 47.5t47.5 19.5q30 0 49.5 -22t19.5 -53q0 -117 -213 -188z" />
    <glyph glyph-name="less" unicode="&#x3c;" horiz-adv-x="550" 
d="M444 101l-338 213l6 23l445 214l-9 -32l-411 -196l315 -194z" />
    <glyph glyph-name="equal" unicode="=" horiz-adv-x="543" 
d="M487 215h-438l5 22h438zM537 413h-438l5 22h438z" />
    <glyph glyph-name="greater" unicode="&#x3e;" horiz-adv-x="550" 
d="M154 551l338 -213l-6 -23l-445 -214l9 32l411 196l-315 194z" />
    <glyph glyph-name="question" unicode="?" horiz-adv-x="475" 
d="M187 187l-27 6l42 146q214 56 214 252q0 115 -114 115q-45 0 -77.5 -21t-45.5 -47q56 -15 58 -70q1 -24 -17 -43t-47 -19q-30 0 -49 19.5t-20 48.5q-1 60 58.5 105t142.5 45q99 0 159.5 -49t60.5 -124q0 -86 -78.5 -144t-220.5 -82zM143 -16q-29 0 -48.5 19.5t-19.5 46.5
q0 28 20 47.5t49 19.5q28 0 47.5 -19.5t19.5 -46.5q0 -28 -20 -47.5t-48 -19.5z" />
    <glyph glyph-name="at" unicode="@" horiz-adv-x="909" 
d="M452 -146q-169 0 -272.5 99t-103.5 264q0 200 133 333.5t330 133.5q144 0 239 -87t95 -221q0 -142 -77 -229t-175 -87q-117 0 -119 83h-4q-58 -75 -124 -75q-53 0 -82.5 32.5t-29.5 90.5q0 105 75.5 196t162.5 91q74 0 97 -62h2l22 54l90 9l-59 -140l-54 -147
q-13 -33 -13 -58q0 -51 55 -51q77 0 144 84.5t67 207.5q0 125 -88.5 207.5t-225.5 82.5q-125 0 -226.5 -61t-157 -163.5t-55.5 -223.5q0 -151 96.5 -247.5t259.5 -96.5q138 0 259 83l10 -14q-125 -88 -271 -88zM415 109q41 0 90 69l80 206q-5 34 -24 53t-48 19
q-39 0 -77.5 -46t-60.5 -108.5t-22 -114.5q0 -78 62 -78z" />
    <glyph glyph-name="A" unicode="A" horiz-adv-x="689" 
d="M-67 0l4 13q56 11 95.5 46t88.5 112l341 538h45l82 -600q8 -56 23 -72.5t71 -23.5l-4 -13h-314l4 13q70 4 88.5 21t12.5 67l-20 170h-237l-72 -117q-44 -72 -35.5 -101t73.5 -40l-4 -13h-242zM447 292l-35 293h-4l-183 -293h222z" />
    <glyph glyph-name="B" unicode="B" horiz-adv-x="681" 
d="M295 376h72q57 0 98 17t62 46.5t30 61t9 68.5q0 56 -32.5 82t-106.5 26h-52zM199 20h108q56 0 96.5 18t62.5 50t32 68.5t10 80.5q0 59 -38 88.5t-123 29.5h-58zM153 684l3 13h274q132 0 193 -40.5t61 -103.5q0 -71 -63 -122.5t-184 -64.5l-1 -3q197 -21 197 -157
q0 -84 -86.5 -145t-249.5 -61h-327l3 13q68 4 91.5 15t31.5 39l150 563q7 26 -10.5 38.5t-82.5 15.5z" />
    <glyph glyph-name="C" unicode="C" horiz-adv-x="696" 
d="M338 -17q-122 0 -200.5 81t-78.5 211q0 109 52.5 208.5t153 165t223.5 65.5q98 0 177 -52l55 49h16l-65 -237h-16q-35 131 -67.5 176t-105.5 45q-79 0 -150 -69.5t-110.5 -171.5t-39.5 -202q0 -109 52 -169.5t149 -60.5q137 0 264 169l15 -11q-139 -197 -324 -197z" />
    <glyph glyph-name="D" unicode="D" 
d="M96 67l150 563q7 26 -10.5 38.5t-82.5 15.5l3 13h263q168 0 254 -77.5t86 -209.5q0 -78 -31 -153t-89 -132q-123 -125 -317 -125h-352l3 13q68 4 91.5 15t31.5 39zM199 20h125q105 0 183 78q63 64 97 167t34 204q0 102 -47.5 155t-156.5 53h-59z" />
    <glyph glyph-name="E" unicode="E" horiz-adv-x="687" 
d="M156 697h571l-53 -213h-16q-7 37 -11 55t-11 43.5t-14 36.5t-18 25t-25 19t-33 9t-45 4h-126l-80 -298h63q57 0 83 20.5t79 99.5h15l-70 -270h-15q-5 34 -7.5 48.5t-7.5 33.5t-10 25t-15.5 13t-23.5 8.5t-33 1.5h-63l-90 -337h147q42 0 74.5 9t57 22t50.5 42.5t45.5 56.5
t51.5 78h17l-66 -229h-607l3 13q68 4 91.5 15t31.5 39l150 563q7 26 -10.5 38.5t-82.5 15.5z" />
    <glyph glyph-name="F" unicode="F" horiz-adv-x="650" 
d="M313 0h-343l3 13q68 4 91.5 15t31.5 39l150 563q7 26 -10.5 38.5t-82.5 15.5l3 13h571l-55 -220h-16q-7 39 -11 57.5t-11 45t-13.5 37.5t-17.5 25.5t-25 20t-33 9.5t-44 4h-126l-83 -310h63q58 0 83 18.5t77 95.5h15l-69 -269h-15q-13 89 -22 107q-14 26 -60 28h-11h-66
l-75 -278q-8 -29 11.5 -40t92.5 -15z" />
    <glyph glyph-name="G" unicode="G" horiz-adv-x="735" 
d="M739 711l-62 -227h-16q-40 129 -71 170t-103 41q-85 0 -157 -72.5t-110 -179t-38 -213.5q0 -101 50 -164.5t131 -63.5q67 0 121 33l58 219q7 27 -10 38.5t-84 15.5l3 13h299l-3 -13q-49 -3 -66 -15t-25 -41l-59 -206q-128 -63 -244 -63q-128 0 -211 81.5t-83 210.5
q0 107 52.5 207t153 166t223.5 66q104 0 183 -50l52 47h16z" />
    <glyph glyph-name="H" unicode="H" horiz-adv-x="830" 
d="M407 0l3 13q63 4 84.5 15t29.5 41l76 282h-312l-76 -283q-7 -28 11 -39.5t79 -15.5l-3 -13h-329l3 13q68 4 91.5 15t31.5 39l150 563q7 26 -10.5 38.5t-82.5 15.5l3 13h324l-3 -13q-64 -4 -85.5 -16t-28.5 -39l-69 -257h312l69 258q7 26 -10.5 38t-79.5 16l3 13h329
l-3 -13q-66 -3 -91 -15t-32 -38l-150 -563q-8 -28 9.5 -39.5t83.5 -15.5l-3 -13h-324z" />
    <glyph glyph-name="I" unicode="I" horiz-adv-x="423" 
d="M501 684q-68 -3 -94 -14.5t-33 -38.5l-151 -563q-8 -31 11.5 -41t89.5 -14l-3 -13h-345l3 13q69 4 94 15t33 39l151 563q7 28 -12.5 39.5t-87.5 14.5l3 13h344z" />
    <glyph glyph-name="J" unicode="J" horiz-adv-x="577" 
d="M172 -17q-81 0 -128.5 36t-47.5 90q0 37 25 66.5t61 29.5q30 0 48 -18t18 -47q0 -33 -21.5 -56.5t-58.5 -28.5q11 -23 37 -38.5t60 -15.5q55 0 89.5 41t60.5 135l121 453q8 28 -12.5 39.5t-91.5 14.5l3 13h349l-3 -13q-68 -3 -94.5 -14.5t-33.5 -38.5l-114 -423
q-61 -225 -267 -225z" />
    <glyph glyph-name="K" unicode="K" horiz-adv-x="773" 
d="M849 697l-3 -13q-65 -13 -107 -36t-126 -92l-159 -130l141 -311q27 -60 47 -77t75 -25l-3 -13h-320l3 13q66 6 80.5 23t-6.5 64l-108 251l-96 -78l-55 -205q-7 -28 10 -39.5t72 -15.5l-3 -13h-321l3 13q68 4 91.5 15t31.5 39l150 563q7 26 -10.5 38.5t-82.5 15.5l3 13
h324l-3 -13q-64 -4 -85.5 -16t-28.5 -39l-87 -324l318 262q34 28 43.5 53t-7 42t-57.5 22l3 13h273z" />
    <glyph glyph-name="L" unicode="L" horiz-adv-x="640" 
d="M363 629l-163 -608h124q36 0 63.5 8t48.5 19.5t48.5 43.5t48 60t61.5 89h19l-71 -241h-572l3 13q68 4 91.5 15t31.5 39l150 563q7 26 -10.5 38.5t-82.5 15.5l3 13h326l-3 -13q-45 -2 -69.5 -9.5t-33.5 -17.5t-13 -28z" />
    <glyph glyph-name="M" unicode="M" horiz-adv-x="975" 
d="M148 684l3 13h245l75 -544h4l348 544h240l-3 -13q-66 -3 -91.5 -15t-32.5 -38l-150 -563q-8 -28 10 -39.5t84 -15.5l-3 -13h-324l3 13q63 4 85 15t30 41l153 572h-6l-414 -645h-24l-94 645h-7l-129 -492q-20 -70 -2.5 -98.5t88.5 -37.5l-3 -13h-269l3 13q68 4 102 34
t53 102l122 467q9 31 -11 47.5t-85 20.5z" />
    <glyph glyph-name="N" unicode="N" horiz-adv-x="803" 
d="M346 697l278 -554h1l107 403q19 74 0.5 101.5t-91.5 36.5l3 13h264l-3 -13q-71 -11 -99.5 -38.5t-47.5 -99.5l-149 -561h-35l-306 610h-1l-118 -443q-20 -73 -2.5 -101.5t90.5 -37.5l-3 -13h-268l3 13q71 10 102.5 39.5t49.5 99.5l117 437q9 36 -12 64t-78 31l3 13h195z
" />
    <glyph glyph-name="O" unicode="O" 
d="M339 -17q-121 0 -200.5 79.5t-79.5 209.5q0 79 31.5 158t85 142t133.5 102.5t170 39.5q122 0 201 -79.5t79 -208.5q0 -107 -52 -208t-150.5 -168t-217.5 -67zM334 2q85 0 157.5 77.5t110.5 187.5t38 218q0 98 -39 154t-116 56q-86 0 -158 -77.5t-110 -187.5t-38 -218
q0 -99 38.5 -154.5t116.5 -55.5z" />
    <glyph glyph-name="P" unicode="P" horiz-adv-x="642" 
d="M282 326h64q50 0 88.5 15t62 39t38.5 56t20.5 62.5t5.5 62.5q0 61 -30.5 88.5t-98.5 27.5h-57zM153 684l3 13h266q137 0 198 -46t61 -119q0 -42 -19 -81t-56.5 -72t-102.5 -53t-149 -20h-78l-64 -238q-7 -28 11 -39.5t79 -15.5l-3 -13h-329l3 13q68 4 91.5 15t31.5 39
l150 563q7 26 -10.5 38.5t-82.5 15.5z" />
    <glyph glyph-name="Q" unicode="Q" 
d="M59 273q0 106 52 206.5t150.5 167.5t217.5 67q122 0 201 -79.5t79 -208.5q0 -78 -31 -156.5t-84 -141t-131.5 -102.5t-167.5 -41q30 -14 58.5 -44.5t46 -58t40.5 -49t47 -21.5q17 0 27.5 9.5t10.5 23.5q0 12 -18 30t-18 37q0 24 17 41t42 17q24 0 41 -18.5t17 -44.5
q0 -53 -48.5 -87.5t-120.5 -34.5q-43 0 -78 17t-56.5 41.5t-40.5 48.5t-39.5 41t-42.5 17q-37 0 -66.5 -18.5t-67.5 -62.5l-12 12q75 99 171 115q-89 24 -142.5 98t-53.5 179zM640 485q0 99 -39 154.5t-116 55.5q-85 0 -157.5 -77.5t-110.5 -187t-38 -216.5
q0 -99 38.5 -154.5t116.5 -55.5q85 0 157.5 77t110.5 187t38 217z" />
    <glyph glyph-name="R" unicode="R" horiz-adv-x="704" 
d="M290 360h64q74 0 124.5 32t70.5 76.5t20 96.5q0 57 -31 84.5t-103 27.5h-60zM153 684l3 13h272q261 0 261 -149q0 -75 -63 -127t-194 -69l-1 -3q100 -9 134 -46t27 -117l-4 -74q-5 -62 11 -82t78 -22l-3 -13q-30 -2 -61 -2q-74 0 -107.5 13t-39.5 41.5t1 75.5l10 83
q9 73 -15.5 103t-105.5 30h-71l-73 -271q-7 -28 11 -39.5t79 -15.5l-3 -13h-329l3 13q68 4 91.5 15t31.5 39l150 563q7 26 -10.5 38.5t-82.5 15.5z" />
    <glyph glyph-name="S" unicode="S" horiz-adv-x="563" 
d="M-9 -17l64 242h15q40 -125 85 -173t118 -48q69 0 111.5 40.5t42.5 100.5q0 52 -34 91t-111 77q-79 40 -115 76.5t-36 99.5q0 89 72 155.5t181 66.5q80 0 160 -43l58 49h16l-55 -223h-17q-38 117 -78 157.5t-102 40.5q-59 0 -98.5 -39t-39.5 -97q0 -22 8 -40.5t18 -31.5
t32.5 -28.5t37.5 -23.5l46 -25q74 -39 111.5 -80t37.5 -103q0 -98 -68 -168t-194 -70q-50 0 -104.5 14.5t-89.5 34.5l-56 -52h-16z" />
    <glyph glyph-name="T" unicode="T" horiz-adv-x="693" 
d="M241 67l163 610h-37q-66 0 -112.5 -39.5t-138.5 -169.5h-19l69 229h606l-57 -229h-16l-14.5 66t-12.5 49.5t-14 39.5t-15.5 24.5t-21 18.5t-26 7.5t-35.5 3.5h-40l-162 -609q-8 -31 12 -41t94 -14l-3 -13h-356l3 13q73 4 99 15t34 39z" />
    <glyph glyph-name="U" unicode="U" horiz-adv-x="787" 
d="M342 629l-99 -372q-14 -51 -14 -91q0 -72 39.5 -110.5t117.5 -38.5q95 0 154 49.5t90 165.5l84 317q18 69 -1 97.5t-91 37.5l3 13h264l-3 -13q-71 -11 -98 -37t-46 -98l-91 -343q-29 -109 -98.5 -166t-205.5 -57q-113 0 -172.5 53.5t-59.5 143.5q0 38 12 83l98 367
q7 26 -10.5 38.5t-82.5 15.5l3 13h324l-3 -13q-64 -4 -85.5 -16t-28.5 -39z" />
    <glyph glyph-name="V" unicode="V" horiz-adv-x="700" 
d="M832 684q-54 -9 -93.5 -43t-87.5 -108l-354 -547h-36l-81 610q-5 45 -23 61.5t-73 26.5l3 13h318l-3 -13q-70 -4 -90.5 -19.5t-15.5 -57.5l58 -486h5l261 409q48 77 36.5 111t-81.5 43l3 13h257z" />
    <glyph glyph-name="W" unicode="W" horiz-adv-x="1026" 
d="M300 606l47 -468h4l223 360l-10 97q-5 46 -21.5 64t-68.5 25l3 13h303l-3 -13q-65 -3 -82.5 -19t-13.5 -59l39 -464h5l218 380q45 80 34 116t-79 46l3 13h249l-3 -13q-54 -9 -93.5 -45.5t-80.5 -109.5l-309 -543h-35l-51 478l-290 -478h-36l-68 609q-5 45 -22 62t-71 27
l3 13h298l-3 -13q-63 -3 -78.5 -19t-10.5 -59z" />
    <glyph glyph-name="X" unicode="X" horiz-adv-x="715" 
d="M329 0l3 13q71 4 89 23.5t4 60.5l-75 218l-175 -186q-47 -48 -40 -79t65 -37l-3 -13h-260l3 13q60 8 104 35t111 97l186 192l-100 264q-17 43 -38.5 60t-79.5 23l3 13h328l-3 -13q-72 -4 -90.5 -24t-3.5 -60l73 -196l160 164q48 51 40.5 80.5t-66.5 35.5l3 13h260l-3 -13
q-60 -7 -102.5 -33.5t-112.5 -97.5l-171 -173l104 -284q15 -42 37.5 -59t81.5 -24l-3 -13h-329z" />
    <glyph glyph-name="Y" unicode="Y" horiz-adv-x="686" 
d="M633 554l-211 -247l-64 -239q-8 -31 11.5 -41t89.5 -14l-3 -13h-345l3 13q69 4 94 15t33 39l65 240l-100 304q-13 40 -29 51.5t-71 21.5l3 13h325l-3 -13q-82 -3 -102.5 -18.5t-10.5 -47.5l93 -289l194 233q47 54 39 83t-76 39l3 13h251l-3 -13q-58 -9 -90.5 -32
t-95.5 -98z" />
    <glyph glyph-name="Z" unicode="Z" horiz-adv-x="662" 
d="M593 676h-172q-62 0 -122.5 -41t-153.5 -156l-18 2l72 216h539l1 -15l-618 -661h201q64 0 120 42t153 165l15 -2l-68 -226h-569l-1 15z" />
    <glyph glyph-name="bracketleft" unicode="[" horiz-adv-x="367" 
d="M-10 -165l249 929h293l-6 -21h-197l-238 -887h197l-5 -21h-293z" />
    <glyph glyph-name="backslash" unicode="\" horiz-adv-x="457" 
d="M306 -215l-79 480l-83 481h28l79 -481l83 -480h-28z" />
    <glyph glyph-name="bracketright" unicode="]" horiz-adv-x="367" 
d="M-129 -166l6 21h197l238 887h-197l5 21h293l-249 -929h-293z" />
    <glyph glyph-name="asciicircum" unicode="^" horiz-adv-x="355" 
d="M92 535l210 227h16l94 -227h-24l-102 121l-164 -121h-30z" />
    <glyph glyph-name="underscore" unicode="_" horiz-adv-x="440" 
d="M-61 0l8 31h444l-8 -31h-444z" />
    <glyph glyph-name="grave" unicode="`" horiz-adv-x="238" 
d="M297 528l-109 100q-47 44 -47 67q0 17 13 30t31 13q17 0 29 -13t25 -44l67 -153h-9z" />
    <glyph glyph-name="a" unicode="a" horiz-adv-x="535" 
d="M470 307l-58 -201q-10 -35 -10 -52q0 -21 20 -28t67 -3v-10q-55 -21 -101 -21q-41 0 -60 12.5t-19 44.5q0 14 5 34l-2 1q-35 -50 -69.5 -71.5t-78.5 -21.5q-61 0 -97 42.5t-36 117.5q0 118 84.5 217.5t184.5 99.5q40 0 62.5 -16t38.5 -48l18 52l105 12zM314 445
q-46 0 -88 -53.5t-64.5 -121.5t-22.5 -120q0 -54 18.5 -84.5t54.5 -30.5q53 0 103 88l71 237q-5 38 -25 61.5t-47 23.5z" />
    <glyph glyph-name="b" unicode="b" horiz-adv-x="517" 
d="M200 10q49 0 92 50t66 119.5t23 134.5q0 103 -78 103q-43 0 -95 -48l-81 -313q18 -46 73 -46zM487 316q0 -77 -37.5 -151t-107.5 -124t-152 -50q-98 0 -171 59l60 205l98 389q7 25 -11.5 36.5t-72.5 14.5v12l211 10l-91 -323l3 -2q73 76 149 76q54 0 88 -40t34 -112z" />
    <glyph glyph-name="c" unicode="c" horiz-adv-x="445" 
d="M294 468q64 0 102.5 -27t38.5 -70q0 -27 -16.5 -45.5t-42.5 -18.5q-27 0 -43 15t-16 42q0 15 11.5 33.5t29.5 27.5q-19 24 -57 24q-45 0 -84 -45.5t-60.5 -109t-21.5 -122.5q0 -143 117 -143q79 0 139 87l14 -10q-75 -115 -193 -115q-79 0 -131 51.5t-52 135.5
q0 113 79 201.5t186 88.5z" />
    <glyph glyph-name="d" unicode="d" horiz-adv-x="530" 
d="M583 717l-169 -605q-10 -35 -10 -51q0 -23 19.5 -32.5t70.5 -5.5v-10q-51 -21 -104 -21q-41 0 -60.5 15t-19.5 48q0 14 2 24l-2 1q-67 -89 -145 -89q-59 0 -97 46t-38 121q0 73 38 145t99.5 118.5t126.5 46.5q40 0 63 -12.5t42 -38.5l60 226q6 25 -12.5 37t-72.5 15v12z
M309 445q-48 0 -89 -54t-61.5 -121t-20.5 -120q0 -52 20.5 -80t57.5 -28q55 0 98 75l73 251q-9 34 -29 55.5t-49 21.5z" />
    <glyph glyph-name="e" unicode="e" horiz-adv-x="450" 
d="M449 365q0 -63 -79.5 -103.5t-231.5 -37.5q-5 -24 -5 -56q0 -71 25 -104.5t84 -33.5q39 0 78.5 23t68.5 61l13 -11q-83 -112 -202 -112q-74 0 -123.5 45t-49.5 130q0 117 84 209.5t202 92.5q66 0 101 -28.5t35 -74.5zM308 447q-51 0 -100 -62t-67 -145q217 4 217 151
q0 56 -50 56z" />
    <glyph glyph-name="f" unicode="f" horiz-adv-x="319" 
d="M374 436h-118l-72 -339q-35 -168 -85.5 -232.5t-141.5 -64.5q-53 0 -82 20t-29 54q0 24 16 40.5t41 16.5t39.5 -16t14.5 -38q0 -33 -27 -49q13 -9 32 -9q32 0 53.5 30t40.5 120l103 467h-113l7 22h109l11 43q28 112 84 167t132 55q56 0 89 -24t33 -63q0 -27 -15 -44.5
t-43 -17.5q-26 0 -41.5 16t-15.5 42q0 34 24 56q-11 16 -36 16q-67 0 -101 -147l-23 -99h121z" />
    <glyph glyph-name="g" unicode="g" horiz-adv-x="519" 
d="M170 0q-59 0 -98.5 43t-39.5 117q0 72 37 143.5t98 118t126 46.5q69 0 108 -57l16 45l106 12l-54 -162l-88 -313q-29 -103 -84 -148t-163 -45q-77 0 -119.5 29t-42.5 68q0 31 18.5 51.5t47.5 20.5q26 0 40.5 -16t14.5 -41q0 -36 -36 -57q22 -36 76 -36q55 0 90.5 42
t59.5 126l24 85l-3 1q-32 -38 -62.5 -55.5t-71.5 -17.5zM307 445q-48 0 -88.5 -54t-60 -120.5t-19.5 -119.5q0 -104 80 -104q51 0 91 60l76 257q-9 34 -30 57.5t-49 23.5z" />
    <glyph glyph-name="h" unicode="h" horiz-adv-x="539" 
d="M485 307l-68 -211q-10 -32 -10 -45q0 -21 19.5 -26.5t70.5 -1.5v-10q-51 -21 -101 -21q-87 0 -87 62q0 21 9 48l65 201q11 36 11 58q0 49 -52 49q-57 0 -134 -67l-85 -343h-108l47 162l122 482q7 25 -11.5 36.5t-72.5 14.5v12l211 10l-98 -351l2 -2q45 47 95 74.5
t92 27.5q45 0 69.5 -24t24.5 -68q0 -33 -11 -67z" />
    <glyph glyph-name="i" unicode="i" horiz-adv-x="300" 
d="M196 614q0 35 22 60.5t53 25.5q21 0 35 -13.5t14 -38.5q0 -35 -22 -61.5t-52 -26.5q-21 0 -35.5 14.5t-14.5 39.5zM250 27v-10q-59 -25 -116 -25q-86 0 -86 68q0 18 8 47l88 284q7 24 -11.5 36t-66.5 15v12l203 9l-110 -358q-9 -27 -9 -44q0 -23 21.5 -30t78.5 -4z" />
    <glyph glyph-name="j" unicode="j" horiz-adv-x="278" 
d="M181 614q0 35 22 60.5t53 25.5q21 0 35 -13.5t14 -38.5q0 -35 -22 -61.5t-52 -26.5q-21 0 -35.5 14.5t-14.5 39.5zM-61 -201q-52 0 -82.5 20t-30.5 55q0 24 16 40.5t41 16.5t39.5 -16t14.5 -38q0 -33 -27 -49q13 -9 33 -9q30 0 51.5 36t46.5 136l99 404q5 20 -13 32
t-66 15v12l198 9l-110 -440q-31 -120 -78 -172t-132 -52z" />
    <glyph glyph-name="k" unicode="k" horiz-adv-x="506" 
d="M311 717l-122 -446h27q33 0 61 31t46.5 67.5t49 67.5t67.5 31q31 0 48.5 -18t17.5 -43q0 -31 -15 -48.5t-41 -17.5q-25 0 -40.5 13t-15.5 36q0 18 11 34q-20 -4 -43 -37.5l-49.5 -70.5t-52.5 -47v-3q81 -4 111 -29.5t30 -74.5q0 -13 -3.5 -54t-3.5 -58q0 -20 15 -27.5
t65 -6.5v-10q-34 -14 -97 -14q-53 0 -70 16.5t-17 52.5q0 21 4 59t4 48q0 51 -16 69.5t-57 18.5h-39l-63 -256h-108l47 162l122 482q7 25 -11.5 36.5t-72.5 14.5v12z" />
    <glyph glyph-name="l" unicode="l" horiz-adv-x="288" 
d="M325 717l-178 -611q-7 -28 -7 -42q0 -24 22.5 -32t80.5 -4v-10q-59 -25 -120 -25q-86 0 -86 68q0 19 8 46l106 351l49 186q6 25 -12 36.5t-72 14.5v12z" />
    <glyph glyph-name="m" unicode="m" horiz-adv-x="807" 
d="M246 463l-30 -97l4 -3q101 103 179 103q46 0 70 -24t24 -67v-6q103 97 177 97q45 0 70 -24t25 -67q0 -31 -12 -68l-68 -211q-9 -28 -9 -45q0 -21 19 -26.5t70 -1.5v-10q-51 -21 -101 -21q-87 0 -87 62q0 21 9 48l65 201q13 39 13 62q0 45 -47 45q-54 0 -125 -59
q-1 -10 -8 -36l-89 -315h-102l88 303q12 39 12 62q0 45 -50 45q-54 0 -131 -67l-85 -343h-109l48 162l62 229q7 25 -5.5 36.5t-57.5 14.5v12z" />
    <glyph glyph-name="n" unicode="n" horiz-adv-x="543" 
d="M66 162l62 229q7 25 -5.5 36.5t-57.5 14.5v12l181 9l-30 -97l2 -2q46 47 96 74.5t91 27.5q46 0 70.5 -24t24.5 -68q0 -33 -11 -67l-68 -211q-10 -32 -10 -45q0 -21 19.5 -26.5t70.5 -1.5v-10q-51 -21 -101 -21q-87 0 -87 62q0 21 9 48l65 201q11 36 11 58q0 49 -53 49
q-56 0 -133 -67l-85 -343h-109z" />
    <glyph glyph-name="o" unicode="o" horiz-adv-x="502" 
d="M296 468q80 0 129 -52.5t49 -139.5q0 -69 -31 -133t-93.5 -108t-142.5 -44t-129.5 52.5t-49.5 139.5q0 109 74 197t194 88zM206 11q39 0 72.5 35t53.5 87t31.5 105t11.5 95q0 116 -79 116q-39 0 -72.5 -35.5t-53.5 -87t-31.5 -105t-11.5 -95.5q0 -115 79 -115z" />
    <glyph glyph-name="p" unicode="p" horiz-adv-x="532" 
d="M226 17q46 0 86.5 48t62 116.5t21.5 133.5q0 102 -77 102q-24 0 -51.5 -14.5t-47.5 -36.5l-76 -294q9 -25 32.5 -40t49.5 -15zM132 25l-46 -171q-3 -11 4 -17.5t28 -10.5t61 -5v-12h-279v12q71 3 78 28l43 134l108 409q6 26 -6.5 36.5t-57.5 13.5v12l181 9l-22 -72l3 -2
q71 79 150 79q54 0 89.5 -40t35.5 -112q0 -119 -84.5 -220.5t-188.5 -101.5q-63 0 -97 31z" />
    <glyph glyph-name="q" unicode="q" horiz-adv-x="520" 
d="M308 445q-48 0 -89 -54t-61 -120.5t-20 -120.5q0 -52 20 -80t57 -28q55 0 98 75l74 250q-10 34 -30.5 56t-48.5 22zM243 -151l71 230h-5q-65 -88 -145 -88q-60 0 -97 46t-37 121q0 113 82.5 211.5t181.5 98.5q70 0 109 -57l16 45l106 12l-54 -162l-120 -457
q-3 -16 10.5 -21.5t66.5 -6.5v-12h-277v12q50 2 69 8.5t23 19.5z" />
    <glyph glyph-name="r" unicode="r" horiz-adv-x="423" 
d="M372 467q35 0 54.5 -19.5t19.5 -48.5q0 -34 -18 -55t-46 -21q-27 0 -43 13.5t-16 39.5t13 40q-54 -3 -129 -91l-80 -325h-109l48 162l62 229q7 25 -5.5 36.5t-57.5 14.5v12l181 9l-33 -108l2 -2q82 114 157 114z" />
    <glyph glyph-name="s" unicode="s" horiz-adv-x="407" 
d="M161 -9q-64 0 -109 24t-45 64q0 27 16.5 45.5t42.5 18.5q23 0 38 -14.5t15 -37.5q0 -29 -28 -51q9 -12 34.5 -21t50.5 -9q46 0 74.5 24.5t28.5 62.5q0 18 -6.5 31.5t-23.5 26t-28 19t-37 19.5q-53 25 -81 52.5t-28 71.5q0 65 48.5 108t133.5 43q62 0 101.5 -25.5
t39.5 -62.5q0 -26 -14.5 -43t-42.5 -17q-22 0 -37 15t-15 35q0 32 29 52q-7 12 -29 19.5t-44 7.5q-42 0 -67.5 -23.5t-25.5 -59.5q0 -22 15.5 -41t30.5 -28t48 -26q55 -27 82.5 -55t27.5 -72q0 -64 -48.5 -108.5t-146.5 -44.5z" />
    <glyph glyph-name="t" unicode="t" horiz-adv-x="338" 
d="M376 436h-124l-84 -301q-9 -32 -9 -52q0 -46 55 -46q38 0 89 14v-10q-84 -50 -149 -50q-100 0 -100 83q0 26 9 57l89 305h-89l7 22h88l43 148l109 16l-52 -164h125z" />
    <glyph glyph-name="u" unicode="u" horiz-adv-x="556" 
d="M56 150l77 239q9 26 -5 38t-59 15v12l186 9l-97 -309q-10 -30 -10 -54q0 -50 60 -50q52 0 123 66l56 187l41 158h107l-109 -360q-10 -33 -10 -47q0 -22 19.5 -28.5t68.5 -2.5v-10q-53 -22 -103 -22q-82 0 -82 58q0 15 8 41l-2 2q-92 -101 -179 -101q-51 0 -76.5 25.5
t-25.5 69.5q0 30 12 64z" />
    <glyph glyph-name="v" unicode="v" horiz-adv-x="473" 
d="M200 -13l-69 7l-7 155l-29 238q-4 30 -17.5 39.5t-57.5 8.5v12l168 17l32 -308l4 -94h6l59 81q87 118 110 192q-52 25 -52 71q0 28 16.5 45.5t44.5 17.5q27 0 44.5 -20t17.5 -46q0 -35 -20.5 -73.5t-86.5 -126.5z" />
    <glyph glyph-name="w" unicode="w" horiz-adv-x="719" 
d="M462 -14l-71 9l-6 154l-12 94l-170 -256l-73 7l-6 155l-29 238q-4 30 -17.5 39.5t-57.5 8.5v12l168 17l32 -308l3 -93h6l59 92q60 93 79 146l-19 154l102 9l32 -308l3 -95h7l57 82q74 102 102 192q-52 25 -52 71q0 28 16.5 45.5t44.5 17.5q27 0 44.5 -20t17.5 -46
q0 -37 -18 -76t-82 -124z" />
    <glyph glyph-name="x" unicode="x" horiz-adv-x="503" 
d="M223 464l61 -192h3l39 80q31 63 61 90.5t67 27.5q31 0 49.5 -19.5t18.5 -46.5t-16 -43.5t-41 -16.5t-40.5 17t-14.5 49q-34 -11 -82 -102l-32 -63l66 -161q18 -42 33.5 -54t60.5 -15v-12l-165 -7l-62 195h-2l-43 -83q-36 -70 -66.5 -97.5t-64.5 -27.5t-53.5 18.5
t-19.5 46.5q0 27 15.5 43.5t42.5 16.5q25 0 41 -20t14 -49q14 5 38 35t47 71l39 69l-68 166q-14 34 -29.5 44.5t-60.5 11.5v12z" />
    <glyph glyph-name="y" unicode="y" horiz-adv-x="464" 
d="M181 464l34 -201l33 -218h2l56 87q78 122 88 202q-28 9 -43.5 28.5t-15.5 43.5q0 27 16 45t43 18q28 0 45 -20.5t17 -50.5q0 -42 -25 -97t-113 -193q-81 -129 -139.5 -198t-95 -89.5t-77.5 -20.5t-63 20t-22 53q0 26 18 45t43 19t42 -17t17 -45q0 -27 -15 -44
q80 13 145 112l-41 237l-38 207q-5 30 -20 39.5t-58 8.5v12z" />
    <glyph glyph-name="z" unicode="z" horiz-adv-x="453" 
d="M3 -16l-15 24l387 375l-2 3l-170 -3q-52 -1 -72 -15t-53 -73l-12 2l43 164h344l8 -25l-375 -366l2 -3q31 12 78 12q20 0 65 -3t59 -3q43 0 63.5 17.5t34.5 70.5l12 -2q-13 -106 -39.5 -137.5t-90.5 -31.5q-36 0 -86 6t-74 6q-68 0 -107 -18z" />
    <glyph glyph-name="braceleft" unicode="{" horiz-adv-x="408" 
d="M319 -169q-96 2 -153 44.5t-57 108.5q0 45 31.5 132t31.5 117q0 43 -25 60.5t-103 25.5l4 16q67 5 100 14.5t56 32.5q22 22 31.5 63t11.5 80.5t19.5 88.5t53.5 85q35 35 88.5 49.5t143.5 15.5l-5 -15q-50 -4 -77 -14t-49 -32q-28 -28 -43 -73t-19.5 -84.5t-20.5 -85
t-45 -74.5q-28 -28 -71.5 -41.5t-117.5 -16.5l-3 -5q93 -8 128 -40.5t35 -84.5q0 -37 -24.5 -118t-24.5 -119q0 -102 108 -115z" />
    <glyph glyph-name="bar" unicode="|" horiz-adv-x="306" 
d="M140 746h26v-961h-26v961z" />
    <glyph glyph-name="braceright" unicode="}" horiz-adv-x="408" 
d="M-109 -169l5 15q49 4 76 14t49 32q28 28 44 76.5t21.5 92t22 92.5t46.5 78q28 29 71.5 42.5t117.5 16.5l3 5q-93 8 -128 40.5t-35 84.5q0 34 22 104.5t22 109.5q0 102 -108 115l4 15q96 -2 153.5 -45t57.5 -108q0 -46 -30 -122.5t-30 -103.5q0 -43 25.5 -61t103.5 -25
l-4 -16q-68 -5 -100 -15t-55 -33t-34 -67.5t-13.5 -88t-20.5 -95t-54 -87.5q-35 -35 -88.5 -50t-143.5 -16z" />
    <glyph glyph-name="asciitilde" unicode="~" horiz-adv-x="375" 
d="M56 248q27 127 102 127q21 0 72.5 -25t70.5 -25q21 0 33 11.5t27 47.5h15q-15 -67 -39.5 -97t-63.5 -30q-21 0 -72.5 24.5t-70.5 24.5q-21 0 -33 -11.5t-27 -46.5h-14z" />
    <glyph glyph-name="uni00A0" unicode="&#xa0;" horiz-adv-x="184" 
 />
    <glyph glyph-name="exclamdown" unicode="&#xa1;" horiz-adv-x="279" 
d="M259 592q-28 0 -47.5 19.5t-19.5 46.5q0 28 20 47.5t48 19.5q29 0 48.5 -19.5t19.5 -46.5q0 -28 -20 -47.5t-49 -19.5zM214 522l15 -3q-19 -99 -38.5 -264t-29.5 -204q-17 -67 -66 -67q-26 0 -41 17t-15 48t24 94t71.5 176.5t79.5 202.5z" />
    <glyph glyph-name="cent" unicode="&#xa2;" horiz-adv-x="504" 
d="M206 -89l-25 5l21 77q-70 9 -112 57.5t-42 125.5q0 118 85.5 204.5t198.5 87.5l18 68l26 -5l-18 -64q64 -6 101 -39.5t37 -78.5q0 -25 -17.5 -45.5t-44.5 -20.5q-24 0 -40.5 15t-16.5 38q0 20 13 38.5t35 28.5q-19 38 -72 45l-114 -417q15 -3 34 -3q39 0 81 24.5t70 63.5
l13 -10q-37 -56 -91 -85.5t-115 -29.5h-4zM154 166q0 -95 60 -126l112 408q-70 -9 -121 -97t-51 -185z" />
    <glyph glyph-name="sterling" unicode="&#xa3;" horiz-adv-x="608" 
d="M485 332h-165v-7q0 -146 -132 -211q26 -3 68.5 -11t81.5 -13t81 -5q51 0 79 22.5t53 82.5l15 -4q-54 -200 -193 -200q-29 0 -53 5t-46 18t-34.5 22t-36 30t-33.5 29q-53 -104 -125 -104q-24 0 -39 14.5t-15 36.5q0 33 35.5 57.5t91.5 24.5q28 0 54 -3q37 60 37 151
q0 32 -5 65h-119l6 21h110q-8 50 -8 88q0 105 76 170t183 65q77 0 122 -38t45 -93q0 -38 -22 -62.5t-55 -24.5q-28 0 -47 16t-19 45q0 30 21 50t52 26q-4 24 -31.5 43.5t-66.5 19.5q-64 0 -102.5 -48.5t-38.5 -140.5q0 -23 4 -65t5 -51h172z" />
    <glyph glyph-name="yen" unicode="&#xa5;" horiz-adv-x="689" 
d="M592 213h-204l-38 -142q-8 -31 11 -43t88 -15l-4 -13h-338l4 13q69 3 94.5 15t33.5 43l38 142h-202l5 21h202l16 58l-5 17h-193l6 21h182l-66 247q-9 36 -26.5 49t-63.5 23l3 13h311l-3 -13q-71 -3 -90.5 -18.5t-11.5 -45.5l63 -265l188 217q79 91 -35 112l3 13h233
l-4 -13q-49 -9 -83 -33t-90 -88l-172 -198h179l-6 -21h-192l-16 -19l-15 -56h203z" />
    <glyph glyph-name="brokenbar" unicode="&#xa6;" horiz-adv-x="306" 
d="M166 337h-26v409h26v-409zM140 194h26v-409h-26v409z" />
    <glyph glyph-name="section" unicode="&#xa7;" horiz-adv-x="576" 
d="M216 -140q-92 0 -146.5 35t-54.5 85q0 25 18.5 47.5t49.5 22.5q24 0 38 -15t14 -37q0 -43 -37 -63q7 -20 44 -37t77 -17q65 0 103 33t38 79q0 39 -31.5 63.5t-92.5 51.5q-66 27 -103.5 59.5t-37.5 87.5q0 53 40 93t114 52q-69 47 -69 112t60 114.5t153 49.5q83 0 133 -34
t50 -80q0 -27 -16.5 -47t-45.5 -20q-25 0 -40 15.5t-15 37.5q0 39 35 58q-8 19 -38 34.5t-68 15.5q-56 0 -92.5 -30.5t-36.5 -75.5q0 -15 7 -28.5t15.5 -22.5t28 -20.5t30.5 -17t37 -17.5q71 -32 106.5 -65.5t35.5 -89.5q0 -49 -35.5 -91t-105.5 -59q58 -44 58 -103
q0 -70 -60 -123t-160 -53zM440 246q0 43 -30 68t-92 53q-42 19 -54 25q-40 -9 -64 -34.5t-24 -60.5q0 -37 31 -62.5t88 -51.5q43 -19 69 -34q36 12 56 39t20 58z" />
    <glyph glyph-name="dieresis" unicode="&#xa8;" horiz-adv-x="351" 
d="M359 533q-21 0 -35 14t-14 39q0 34 21.5 59t51.5 25q20 0 34 -13.5t14 -37.5q0 -34 -21 -60t-51 -26zM165 533q-21 0 -35 14t-14 39q0 34 21.5 59t51.5 25q20 0 34 -13.5t14 -37.5q0 -34 -21 -60t-51 -26z" />
    <glyph glyph-name="copyright" unicode="&#xa9;" horiz-adv-x="839" 
d="M425 151q-72 0 -116 43.5t-44 119.5q0 99 65.5 171t168.5 72q58 0 104 -34l25 29h15l-34 -141h-15q-22 78 -40 104t-58 26q-62 0 -106.5 -75.5t-44.5 -157.5q0 -127 107 -127q74 0 134 89l13 -9q-70 -110 -174 -110zM409 -34q-149 0 -241.5 91t-92.5 234q0 118 51.5 218
t147.5 161t217 61q150 0 242 -90.5t92 -234.5q0 -118 -51.5 -218t-147.5 -161t-217 -61zM410 -17q116 0 207 58.5t139.5 154.5t48.5 209q0 137 -86.5 223t-228.5 86q-116 0 -207 -58.5t-139.5 -154.5t-48.5 -209q0 -137 86.5 -223t228.5 -86z" />
    <glyph glyph-name="ordfeminine" unicode="&#xaa;" horiz-adv-x="464" 
d="M208 331q-48 0 -77 32.5t-29 89.5q0 91 65 164.5t144 73.5q51 0 77 -52l14 44l84 9l-41 -122l-44 -152q-12 -41 -2 -52t58 -9v-9q-38 -16 -77 -16q-38 0 -52.5 16t-6.5 53l-4 1q-27 -39 -51.5 -55t-57.5 -16zM245 370q39 0 74 62l53 176q-8 63 -51 63q-53 0 -89.5 -76
t-36.5 -143q0 -82 50 -82z" />
    <glyph glyph-name="guillemotleft" unicode="&#xab;" horiz-adv-x="500" 
d="M385 23l-134 180q-17 23 -17 30t28 27l227 164l10 -12l-173 -186l74 -194zM188 29l-134 177q-17 23 -17 31q0 7 28 26l227 161l10 -13l-173 -182l74 -191z" />
    <glyph glyph-name="registered" unicode="&#xae;" horiz-adv-x="377" 
d="M247 423q-60 0 -99 39t-39 99q0 71 49.5 120.5t120.5 49.5q60 0 99 -39t39 -99q0 -71 -49.5 -120.5t-120.5 -49.5zM248 436q64 0 109.5 45.5t45.5 110.5q0 55 -35 90.5t-90 35.5q-64 0 -109.5 -45.5t-45.5 -110.5q0 -55 35 -90.5t90 -35.5zM249 586h11q23 0 36.5 12.5
t13.5 34.5q0 24 -35 24h-8zM247 577l-14 -60q-1 -4 2 -6.5t15 -2.5l-2 -7h-76l2 7q25 0 27 9l33 132q2 8 -23 9l2 7h68q61 0 61 -38q0 -37 -56 -44v-3q35 -4 35 -29l-2 -24q-1 -13 3.5 -17.5t17.5 -4.5l-2 -7h-8q-8 -1 -9 -1q-22 0 -29.5 7.5t-5.5 24.5l1 15q2 18 -3.5 25.5
t-24.5 7.5h-12z" />
    <glyph glyph-name="macron" unicode="&#xaf;" horiz-adv-x="321" 
d="M119 558l11 43h268l-11 -43h-268z" />
    <glyph glyph-name="degree" unicode="&#xb0;" horiz-adv-x="382" 
d="M402 598q0 -70 -53.5 -124.5t-122.5 -54.5q-50 0 -85.5 30.5t-35.5 87.5q0 71 53 125t122 54q50 0 86 -30t36 -88zM173 516q0 -77 54 -77q32 0 57.5 33.5t37.5 74t12 73.5q0 77 -55 77q-46 0 -76 -63t-30 -118z" />
    <glyph glyph-name="plusminus" unicode="&#xb1;" horiz-adv-x="530" 
d="M358 529l-52 -193h193l-6 -22h-193l-52 -196h-26l52 196h-193l6 22h193l52 193h26zM409 0h-411l6 22h411z" />
    <glyph glyph-name="acute" unicode="&#xb4;" horiz-adv-x="238" 
d="M116 528l85 128q32 51 47 67t38 16q16 0 28.5 -12t12.5 -27q0 -19 -17 -36.5t-69 -54.5l-113 -81h-12z" />
    <glyph glyph-name="paragraph" unicode="&#xb6;" horiz-adv-x="696" 
d="M301 -100l76 284q-119 10 -184 62.5t-65 136.5q0 114 98.5 196.5t271.5 82.5h272l-3 -12q-74 -5 -100.5 -16.5t-35.5 -44.5l-185 -689h-26l199 742h-92l-199 -742h-27z" />
    <glyph glyph-name="periodcentered" unicode="&#xb7;" horiz-adv-x="235" 
d="M144 259q-29 0 -48.5 19.5t-19.5 47.5q0 27 20 47t49 20q28 0 47.5 -19.5t19.5 -47.5q0 -27 -20 -47t-48 -20z" />
    <glyph glyph-name="cedilla" unicode="&#xb8;" horiz-adv-x="282" 
d="M20 -249q-51 0 -94 26l9 15q40 -21 76 -21q31 0 49.5 17t18.5 43t-20.5 40t-54.5 14q-17 0 -32 -4l-3 10l144 111h26l-94 -73l1 -3q105 -6 105 -79q0 -41 -38 -68.5t-93 -27.5z" />
    <glyph glyph-name="ordmasculine" unicode="&#xba;" horiz-adv-x="449" 
d="M253 330q-62 0 -102.5 38t-40.5 106q0 83 60 150t146 67q63 0 103.5 -38.5t40.5 -108.5q0 -82 -60 -148t-147 -66zM252 347q38 0 67.5 45t41.5 98t12 98q0 44 -12.5 65t-42.5 21q-38 0 -67.5 -45t-41.5 -98t-12 -98q0 -44 12.5 -65t42.5 -21z" />
    <glyph glyph-name="guillemotright" unicode="&#xbb;" horiz-adv-x="499" 
d="M211 29l-10 12l173 183l-74 190l15 9l134 -177q17 -23 17 -30t-28 -27zM14 28l-10 13l173 185l-74 194l15 9l134 -180q17 -22 17 -30q0 -7 -28 -27z" />
    <glyph glyph-name="questiondown" unicode="&#xbf;" horiz-adv-x="475" 
d="M354 523l26 -6l-42 -146q-214 -56 -214 -252q0 -115 115 -115q45 0 77.5 21t44.5 47q-56 15 -58 70q0 25 17.5 43.5t46.5 18.5q30 0 49 -19.5t20 -48.5q1 -60 -58 -105.5t-143 -45.5q-99 0 -159.5 49t-60.5 125q0 86 78.5 144t221.5 82zM397 726q29 0 48.5 -19.5
t19.5 -46.5q0 -28 -20 -47.5t-48 -19.5t-48 19.5t-20 46.5q0 28 20 47.5t48 19.5z" />
    <glyph glyph-name="Agrave" unicode="&#xc0;" horiz-adv-x="689" 
d="M-67 0l4 13q56 11 95.5 46t88.5 112l341 538h45l82 -600q8 -56 23 -72.5t71 -23.5l-4 -13h-314l4 13q70 4 88.5 21t12.5 67l-20 170h-237l-72 -117q-44 -72 -35.5 -101t73.5 -40l-4 -13h-242zM447 292l-35 293h-4l-183 -293h222zM499 768l-109 100q-47 44 -47 67
q0 17 13 30t31 13q17 0 29 -13t25 -44l67 -153h-9z" />
    <glyph glyph-name="Aacute" unicode="&#xc1;" horiz-adv-x="689" 
d="M-67 0l4 13q56 11 95.5 46t88.5 112l341 538h45l82 -600q8 -56 23 -72.5t71 -23.5l-4 -13h-314l4 13q70 4 88.5 21t12.5 67l-20 170h-237l-72 -117q-44 -72 -35.5 -101t73.5 -40l-4 -13h-242zM447 292l-35 293h-4l-183 -293h222zM458 768l85 128q32 51 47 67t38 16
q16 0 28.5 -12t12.5 -27q0 -19 -17 -36.5t-69 -54.5l-113 -81h-12z" />
    <glyph glyph-name="Acircumflex" unicode="&#xc2;" horiz-adv-x="689" 
d="M-67 0l4 13q56 11 95.5 46t88.5 112l341 538h45l82 -600q8 -56 23 -72.5t71 -23.5l-4 -13h-314l4 13q70 4 88.5 21t12.5 67l-20 170h-237l-72 -117q-44 -72 -35.5 -101t73.5 -40l-4 -13h-242zM447 292l-35 293h-4l-183 -293h222zM347 761l186 196h13l76 -196h-17l-94 93
l-143 -93h-21z" />
    <glyph glyph-name="Atilde" unicode="&#xc3;" horiz-adv-x="689" 
d="M-67 0l4 13q56 11 95.5 46t88.5 112l341 538h45l82 -600q8 -56 23 -72.5t71 -23.5l-4 -13h-314l4 13q70 4 88.5 21t12.5 67l-20 170h-237l-72 -117q-44 -72 -35.5 -101t73.5 -40l-4 -13h-242zM447 292l-35 293h-4l-183 -293h222zM349 766q15 67 40 97t63 30q20 0 70 -25
t69 -25q21 0 32.5 11t26.5 47h16q-15 -67 -39.5 -97t-63.5 -30q-21 0 -70.5 25.5t-68.5 25.5q-21 0 -33 -11.5t-26 -47.5h-16z" />
    <glyph glyph-name="Adieresis" unicode="&#xc4;" horiz-adv-x="689" 
d="M-67 0l4 13q56 11 95.5 46t88.5 112l341 538h45l82 -600q8 -56 23 -72.5t71 -23.5l-4 -13h-314l4 13q70 4 88.5 21t12.5 67l-20 170h-237l-72 -117q-44 -72 -35.5 -101t73.5 -40l-4 -13h-242zM447 292l-35 293h-4l-183 -293h222zM589 773q-21 0 -35 14t-14 39
q0 34 21.5 59t51.5 25q20 0 34 -13.5t14 -37.5q0 -34 -21 -60t-51 -26zM395 773q-21 0 -35 14t-14 39q0 34 21.5 59t51.5 25q20 0 34 -13.5t14 -37.5q0 -34 -21 -60t-51 -26z" />
    <glyph glyph-name="Aring" unicode="&#xc5;" horiz-adv-x="689" 
d="M213 271l-72 -117q-44 -72 -35.5 -101t73.5 -40l-4 -13h-242l4 13q56 11 95.5 46t88.5 112l25.5 40.5l60 94.5l82 129.5l78.5 123.5l63 100l24 37q-31 7 -49 31t-18 60q0 55 41 95t98 40q43 0 68.5 -24.5t25.5 -68.5q0 -48 -32 -85.5t-79 -46.5l80 -588q8 -56 23 -72.5
t71 -23.5l-4 -13h-314l4 13q70 4 88.5 21t12.5 67l-20 170h-237zM447 292l-35 293h-4l-183 -293h222zM484 706q36 0 57.5 45t21.5 99q0 58 -40 58q-36 0 -57.5 -44.5t-21.5 -98.5q0 -59 40 -59z" />
    <glyph glyph-name="AE" unicode="&#xc6;" horiz-adv-x="1071" 
d="M849 228h-15l-5.5 38t-5.5 28.5t-6.5 23.5l-8 15.5t-11 12.5t-15 6.5t-20 5t-25.5 0.5h-64l-90 -337h148q42 0 74.5 9t57 22t50.5 42.5t45.5 56.5t51.5 78h17l-66 -229h-608l3 13q68 4 92 15t32 39l57 216h-246l-121 -138q-52 -61 -52 -90q0 -35 63 -42l-3 -13h-246l3 13
q63 13 103 40t107 103l388 438q26 29 26 47q0 33 -96 43l3 13h645l-53 -213h-16q-7 37 -11 55t-11 43.5t-14 36.5t-18 25t-25 19t-33 9t-45 4h-127l-79 -298h63q57 0 83 20.5t79 99.5h15zM543 304l97 364h-11l-320 -364h234z" />
    <glyph glyph-name="Ccedilla" unicode="&#xc7;" horiz-adv-x="696" 
d="M338 -17q-122 0 -200.5 81t-78.5 211q0 109 52.5 208.5t153 165t223.5 65.5q98 0 177 -52l55 49h16l-65 -237h-16q-35 131 -67.5 176t-105.5 45q-79 0 -150 -69.5t-110.5 -171.5t-39.5 -202q0 -109 52 -169.5t149 -60.5q137 0 264 169l15 -11q-130 -183 -296 -196
l-71 -55l1 -3q105 -6 105 -79q0 -41 -38 -68.5t-93 -27.5q-51 0 -94 26l9 15q40 -21 76 -21q31 0 49.5 17t18.5 43t-20.5 40t-54.5 14q-17 0 -32 -4l-3 10z" />
    <glyph glyph-name="Egrave" unicode="&#xc8;" horiz-adv-x="687" 
d="M156 697h571l-53 -213h-16q-7 37 -11 55t-11 43.5t-14 36.5t-18 25t-25 19t-33 9t-45 4h-126l-80 -298h63q57 0 83 20.5t79 99.5h15l-70 -270h-15q-5 34 -7.5 48.5t-7.5 33.5t-10 25t-15.5 13t-23.5 8.5t-33 1.5h-63l-90 -337h147q42 0 74.5 9t57 22t50.5 42.5t45.5 56.5
t51.5 78h17l-66 -229h-607l3 13q68 4 91.5 15t31.5 39l150 563q7 26 -10.5 38.5t-82.5 15.5zM511 768l-109 100q-47 44 -47 67q0 17 13 30t31 13q17 0 29 -13t25 -44l67 -153h-9z" />
    <glyph glyph-name="Eacute" unicode="&#xc9;" horiz-adv-x="687" 
d="M452 768l85 128q32 51 47 67t38 16q16 0 28.5 -12t12.5 -27q0 -19 -17 -36.5t-69 -54.5l-113 -81h-12zM156 697h571l-53 -213h-16q-7 37 -11 55t-11 43.5t-14 36.5t-18 25t-25 19t-33 9t-45 4h-126l-80 -298h63q57 0 83 20.5t79 99.5h15l-70 -270h-15q-5 34 -7.5 48.5
t-7.5 33.5t-10 25t-15.5 13t-23.5 8.5t-33 1.5h-63l-90 -337h147q42 0 74.5 9t57 22t50.5 42.5t45.5 56.5t51.5 78h17l-66 -229h-607l3 13q68 4 91.5 15t31.5 39l150 563q7 26 -10.5 38.5t-82.5 15.5z" />
    <glyph glyph-name="Ecircumflex" unicode="&#xca;" horiz-adv-x="687" 
d="M348 768l186 196h13l76 -196h-17l-94 93l-143 -93h-21zM156 697h571l-53 -213h-16q-7 37 -11 55t-11 43.5t-14 36.5t-18 25t-25 19t-33 9t-45 4h-126l-80 -298h63q57 0 83 20.5t79 99.5h15l-70 -270h-15q-5 34 -7.5 48.5t-7.5 33.5t-10 25t-15.5 13t-23.5 8.5t-33 1.5
h-63l-90 -337h147q42 0 74.5 9t57 22t50.5 42.5t45.5 56.5t51.5 78h17l-66 -229h-607l3 13q68 4 91.5 15t31.5 39l150 563q7 26 -10.5 38.5t-82.5 15.5z" />
    <glyph glyph-name="Edieresis" unicode="&#xcb;" horiz-adv-x="687" 
d="M586 773q-21 0 -35 14t-14 39q0 34 21.5 59t51.5 25q20 0 34 -13.5t14 -37.5q0 -34 -21 -60t-51 -26zM392 773q-21 0 -35 14t-14 39q0 34 21.5 59t51.5 25q20 0 34 -13.5t14 -37.5q0 -34 -21 -60t-51 -26zM156 697h571l-53 -213h-16q-7 37 -11 55t-11 43.5t-14 36.5
t-18 25t-25 19t-33 9t-45 4h-126l-80 -298h63q57 0 83 20.5t79 99.5h15l-70 -270h-15q-5 34 -7.5 48.5t-7.5 33.5t-10 25t-15.5 13t-23.5 8.5t-33 1.5h-63l-90 -337h147q42 0 74.5 9t57 22t50.5 42.5t45.5 56.5t51.5 78h17l-66 -229h-607l3 13q68 4 91.5 15t31.5 39l150 563
q7 26 -10.5 38.5t-82.5 15.5z" />
    <glyph glyph-name="Igrave" unicode="&#xcc;" horiz-adv-x="423" 
d="M501 684q-68 -3 -94 -14.5t-33 -38.5l-151 -563q-8 -31 11.5 -41t89.5 -14l-3 -13h-345l3 13q69 4 94 15t33 39l151 563q7 28 -12.5 39.5t-87.5 14.5l3 13h344zM378 768l-109 100q-47 44 -47 67q0 17 13 30t31 13q17 0 29 -13t25 -44l67 -153h-9z" />
    <glyph glyph-name="Iacute" unicode="&#xcd;" horiz-adv-x="423" 
d="M501 684q-68 -3 -94 -14.5t-33 -38.5l-151 -563q-8 -31 11.5 -41t89.5 -14l-3 -13h-345l3 13q69 4 94 15t33 39l151 563q7 28 -12.5 39.5t-87.5 14.5l3 13h344zM295 768l85 128q32 51 47 67t38 16q16 0 28.5 -12t12.5 -27q0 -19 -17 -36.5t-69 -54.5l-113 -81h-12z" />
    <glyph glyph-name="Icircumflex" unicode="&#xce;" horiz-adv-x="423" 
d="M501 684q-68 -3 -94 -14.5t-33 -38.5l-151 -563q-8 -31 11.5 -41t89.5 -14l-3 -13h-345l3 13q69 4 94 15t33 39l151 563q7 28 -12.5 39.5t-87.5 14.5l3 13h344zM208 768l186 196h13l76 -196h-17l-94 93l-143 -93h-21z" />
    <glyph glyph-name="Idieresis" unicode="&#xcf;" horiz-adv-x="423" 
d="M501 684q-68 -3 -94 -14.5t-33 -38.5l-151 -563q-8 -31 11.5 -41t89.5 -14l-3 -13h-345l3 13q69 4 94 15t33 39l151 563q7 28 -12.5 39.5t-87.5 14.5l3 13h344zM456 773q-21 0 -35 14t-14 39q0 34 21.5 59t51.5 25q20 0 34 -13.5t14 -37.5q0 -34 -21 -60t-51 -26z
M262 773q-21 0 -35 14t-14 39q0 34 21.5 59t51.5 25q20 0 34 -13.5t14 -37.5q0 -34 -21 -60t-51 -26z" />
    <glyph glyph-name="Eth" unicode="&#xd0;" 
d="M96 67l75 283h-101l6 26h102l68 254q7 26 -10.5 38.5t-82.5 15.5l3 13h263q168 0 254 -77.5t86 -209.5q0 -78 -31 -153t-89 -132q-123 -125 -317 -125h-352l3 13q68 4 91.5 15t31.5 39zM199 20h125q105 0 183 78q63 64 97 167t34 204q0 102 -47.5 155t-156.5 53h-59
l-81 -301h138l-6 -26h-139z" />
    <glyph glyph-name="Ntilde" unicode="&#xd1;" horiz-adv-x="803" 
d="M346 697l278 -554h1l107 403q19 74 0.5 101.5t-91.5 36.5l3 13h264l-3 -13q-71 -11 -99.5 -38.5t-47.5 -99.5l-149 -561h-35l-306 610h-1l-118 -443q-20 -73 -2.5 -101.5t90.5 -37.5l-3 -13h-268l3 13q71 10 102.5 39.5t49.5 99.5l117 437q9 36 -12 64t-78 31l3 13h195z
M401 766q15 67 40 97t63 30q20 0 70 -25t69 -25q21 0 32.5 11t26.5 47h16q-15 -67 -39.5 -97t-63.5 -30q-21 0 -70.5 25.5t-68.5 25.5q-21 0 -33 -11.5t-26 -47.5h-16z" />
    <glyph glyph-name="Ograve" unicode="&#xd2;" 
d="M339 -17q-121 0 -200.5 79.5t-79.5 209.5q0 79 31.5 158t85 142t133.5 102.5t170 39.5q122 0 201 -79.5t79 -208.5q0 -107 -52 -208t-150.5 -168t-217.5 -67zM334 2q85 0 157.5 77.5t110.5 187.5t38 218q0 98 -39 154t-116 56q-86 0 -158 -77.5t-110 -187.5t-38 -218
q0 -99 38.5 -154.5t116.5 -55.5zM539 768l-109 100q-47 44 -47 67q0 17 13 30t31 13q17 0 29 -13t25 -44l67 -153h-9z" />
    <glyph glyph-name="Oacute" unicode="&#xd3;" 
d="M457 768l85 128q32 51 47 67t38 16q16 0 28.5 -12t12.5 -27q0 -19 -17 -36.5t-69 -54.5l-113 -81h-12zM339 -17q-121 0 -200.5 79.5t-79.5 209.5q0 79 31.5 158t85 142t133.5 102.5t170 39.5q122 0 201 -79.5t79 -208.5q0 -107 -52 -208t-150.5 -168t-217.5 -67zM334 2
q85 0 157.5 77.5t110.5 187.5t38 218q0 98 -39 154t-116 56q-86 0 -158 -77.5t-110 -187.5t-38 -218q0 -99 38.5 -154.5t116.5 -55.5z" />
    <glyph glyph-name="Ocircumflex" unicode="&#xd4;" 
d="M377 768l186 196h13l76 -196h-17l-94 93l-143 -93h-21zM339 -17q-121 0 -200.5 79.5t-79.5 209.5q0 79 31.5 158t85 142t133.5 102.5t170 39.5q122 0 201 -79.5t79 -208.5q0 -107 -52 -208t-150.5 -168t-217.5 -67zM334 2q85 0 157.5 77.5t110.5 187.5t38 218
q0 98 -39 154t-116 56q-86 0 -158 -77.5t-110 -187.5t-38 -218q0 -99 38.5 -154.5t116.5 -55.5z" />
    <glyph glyph-name="Otilde" unicode="&#xd5;" 
d="M339 -17q-121 0 -200.5 79.5t-79.5 209.5q0 79 31.5 158t85 142t133.5 102.5t170 39.5q122 0 201 -79.5t79 -208.5q0 -107 -52 -208t-150.5 -168t-217.5 -67zM334 2q85 0 157.5 77.5t110.5 187.5t38 218q0 98 -39 154t-116 56q-86 0 -158 -77.5t-110 -187.5t-38 -218
q0 -99 38.5 -154.5t116.5 -55.5zM370 766q15 67 40 97t63 30q20 0 70 -25t69 -25q21 0 32.5 11t26.5 47h16q-15 -67 -39.5 -97t-63.5 -30q-21 0 -70.5 25.5t-68.5 25.5q-21 0 -33 -11.5t-26 -47.5h-16z" />
    <glyph glyph-name="Odieresis" unicode="&#xd6;" 
d="M616 773q-21 0 -35 14t-14 39q0 34 21.5 59t51.5 25q20 0 34 -13.5t14 -37.5q0 -34 -21 -60t-51 -26zM422 773q-21 0 -35 14t-14 39q0 34 21.5 59t51.5 25q20 0 34 -13.5t14 -37.5q0 -34 -21 -60t-51 -26zM339 -17q-121 0 -200.5 79.5t-79.5 209.5q0 79 31.5 158t85 142
t133.5 102.5t170 39.5q122 0 201 -79.5t79 -208.5q0 -107 -52 -208t-150.5 -168t-217.5 -67zM334 2q85 0 157.5 77.5t110.5 187.5t38 218q0 98 -39 154t-116 56q-86 0 -158 -77.5t-110 -187.5t-38 -218q0 -99 38.5 -154.5t116.5 -55.5z" />
    <glyph glyph-name="multiply" unicode="&#xd7;" horiz-adv-x="556" 
d="M59 146l227 179l-130 178l19 15l130 -178l227 179l13 -17l-227 -179l131 -178l-19 -15l-131 178l-227 -179z" />
    <glyph glyph-name="Oslash" unicode="&#xd8;" 
d="M59 -36h-30l101 107q-71 77 -71 201q0 79 31.5 158t85 142t133.5 102.5t170 39.5q116 0 194 -73l87 92h30l-102 -107q71 -81 71 -200q0 -107 -52 -208t-150.5 -168t-217.5 -67q-116 0 -194 72zM334 2q85 0 157.5 77.5t110.5 187.5t38 218q0 45 -9 83l-437 -462
q34 -104 140 -104zM179 212q0 -43 8 -83l437 462q-35 104 -139 104q-86 0 -158 -77.5t-110 -187.5t-38 -218z" />
    <glyph glyph-name="Ugrave" unicode="&#xd9;" horiz-adv-x="787" 
d="M342 629l-99 -372q-14 -51 -14 -91q0 -72 39.5 -110.5t117.5 -38.5q95 0 154 49.5t90 165.5l84 317q18 69 -1 97.5t-91 37.5l3 13h264l-3 -13q-71 -11 -98 -37t-46 -98l-91 -343q-29 -109 -98.5 -166t-205.5 -57q-113 0 -172.5 53.5t-59.5 143.5q0 38 12 83l98 367
q7 26 -10.5 38.5t-82.5 15.5l3 13h324l-3 -13q-64 -4 -85.5 -16t-28.5 -39zM558 768l-109 100q-47 44 -47 67q0 17 13 30t31 13q17 0 29 -13t25 -44l67 -153h-9z" />
    <glyph glyph-name="Uacute" unicode="&#xda;" horiz-adv-x="787" 
d="M483 768l85 128q32 51 47 67t38 16q16 0 28.5 -12t12.5 -27q0 -19 -17 -36.5t-69 -54.5l-113 -81h-12zM342 629l-99 -372q-14 -51 -14 -91q0 -72 39.5 -110.5t117.5 -38.5q95 0 154 49.5t90 165.5l84 317q18 69 -1 97.5t-91 37.5l3 13h264l-3 -13q-71 -11 -98 -37
t-46 -98l-91 -343q-29 -109 -98.5 -166t-205.5 -57q-113 0 -172.5 53.5t-59.5 143.5q0 38 12 83l98 367q7 26 -10.5 38.5t-82.5 15.5l3 13h324l-3 -13q-64 -4 -85.5 -16t-28.5 -39z" />
    <glyph glyph-name="Ucircumflex" unicode="&#xdb;" horiz-adv-x="787" 
d="M405 768l186 196h13l76 -196h-17l-94 93l-143 -93h-21zM342 629l-99 -372q-14 -51 -14 -91q0 -72 39.5 -110.5t117.5 -38.5q95 0 154 49.5t90 165.5l84 317q18 69 -1 97.5t-91 37.5l3 13h264l-3 -13q-71 -11 -98 -37t-46 -98l-91 -343q-29 -109 -98.5 -166t-205.5 -57
q-113 0 -172.5 53.5t-59.5 143.5q0 38 12 83l98 367q7 26 -10.5 38.5t-82.5 15.5l3 13h324l-3 -13q-64 -4 -85.5 -16t-28.5 -39z" />
    <glyph glyph-name="Udieresis" unicode="&#xdc;" horiz-adv-x="787" 
d="M644 773q-21 0 -35 14t-14 39q0 34 21.5 59t51.5 25q20 0 34 -13.5t14 -37.5q0 -34 -21 -60t-51 -26zM450 773q-21 0 -35 14t-14 39q0 34 21.5 59t51.5 25q20 0 34 -13.5t14 -37.5q0 -34 -21 -60t-51 -26zM342 629l-99 -372q-14 -51 -14 -91q0 -72 39.5 -110.5
t117.5 -38.5q95 0 154 49.5t90 165.5l84 317q18 69 -1 97.5t-91 37.5l3 13h264l-3 -13q-71 -11 -98 -37t-46 -98l-91 -343q-29 -109 -98.5 -166t-205.5 -57q-113 0 -172.5 53.5t-59.5 143.5q0 38 12 83l98 367q7 26 -10.5 38.5t-82.5 15.5l3 13h324l-3 -13q-64 -4 -85.5 -16
t-28.5 -39z" />
    <glyph glyph-name="Yacute" unicode="&#xdd;" horiz-adv-x="686" 
d="M633 554l-211 -247l-64 -239q-8 -31 11.5 -41t89.5 -14l-3 -13h-345l3 13q69 4 94 15t33 39l65 240l-100 304q-13 40 -29 51.5t-71 21.5l3 13h325l-3 -13q-82 -3 -102.5 -18.5t-10.5 -47.5l93 -289l194 233q47 54 39 83t-76 39l3 13h251l-3 -13q-58 -9 -90.5 -32
t-95.5 -98zM471 768l85 128q32 51 47 67t38 16q16 0 28.5 -12t12.5 -27q0 -19 -17 -36.5t-69 -54.5l-113 -81h-12z" />
    <glyph glyph-name="Thorn" unicode="&#xde;" horiz-adv-x="658" 
d="M-30 0l3 13q68 4 91.5 15t31.5 39l150 563q7 26 -10.5 38.5t-82.5 15.5l3 13h323l-3 -13q-44 -2 -68 -9.5t-32.5 -17.5t-12.5 -28l-21 -75h41q138 0 198.5 -46.5t60.5 -119.5q0 -91 -82.5 -158.5t-243.5 -67.5h-79l-25 -94q-7 -28 11 -39.5t79 -15.5l-3 -13h-329z
M243 182h64q50 0 88.5 15.5t62 39t38.5 55.5t20.5 62.5t5.5 62.5q0 61 -30.5 88.5t-98.5 27.5h-57z" />
    <glyph glyph-name="germandbls" unicode="&#xdf;" horiz-adv-x="531" 
d="M-77 -200q-53 0 -82 20t-29 54q0 24 16 40.5t41 16.5q24 0 39 -16t15 -38q0 -32 -28 -49q13 -9 33 -9q32 0 53.5 30t40.5 120l116 525q51 229 220 229q71 0 115 -31t44 -86q0 -32 -18.5 -57.5t-45 -42.5l-53 -33.5t-45 -40.5t-18.5 -54q0 -26 25.5 -53.5t56 -50t56 -59
t25.5 -76.5q0 -61 -42.5 -104.5t-129.5 -43.5q-53 0 -90.5 24t-37.5 64q0 27 16 45.5t42 18.5q23 0 37 -14.5t14 -37.5q0 -32 -29 -52q6 -12 24 -20.5t40 -8.5q37 0 59 25t22 62q0 31 -15.5 56t-38 43l-45 36t-38 43t-15.5 56q0 34 15.5 61.5t37.5 47l44 40.5t37.5 54
t15.5 75q0 95 -69 95q-75 0 -109 -157l-96 -450q-36 -169 -86 -233t-140 -64z" />
    <glyph glyph-name="agrave" unicode="&#xe0;" horiz-adv-x="535" 
d="M470 307l-58 -201q-10 -35 -10 -52q0 -21 20 -28t67 -3v-10q-55 -21 -101 -21q-41 0 -60 12.5t-19 44.5q0 14 5 34l-2 1q-35 -50 -69.5 -71.5t-78.5 -21.5q-61 0 -97 42.5t-36 117.5q0 118 84.5 217.5t184.5 99.5q40 0 62.5 -16t38.5 -48l18 52l105 12zM314 445
q-46 0 -88 -53.5t-64.5 -121.5t-22.5 -120q0 -54 18.5 -84.5t54.5 -30.5q53 0 103 88l71 237q-5 38 -25 61.5t-47 23.5zM386 528l-109 100q-47 44 -47 67q0 17 13 30t31 13q17 0 29 -13t25 -44l67 -153h-9z" />
    <glyph glyph-name="aacute" unicode="&#xe1;" horiz-adv-x="535" 
d="M470 307l-58 -201q-10 -35 -10 -52q0 -21 20 -28t67 -3v-10q-55 -21 -101 -21q-41 0 -60 12.5t-19 44.5q0 14 5 34l-2 1q-35 -50 -69.5 -71.5t-78.5 -21.5q-61 0 -97 42.5t-36 117.5q0 118 84.5 217.5t184.5 99.5q40 0 62.5 -16t38.5 -48l18 52l105 12zM314 445
q-46 0 -88 -53.5t-64.5 -121.5t-22.5 -120q0 -54 18.5 -84.5t54.5 -30.5q53 0 103 88l71 237q-5 38 -25 61.5t-47 23.5zM307 528l85 128q32 51 47 67t38 16q16 0 28.5 -12t12.5 -27q0 -19 -17 -36.5t-69 -54.5l-113 -81h-12z" />
    <glyph glyph-name="acircumflex" unicode="&#xe2;" horiz-adv-x="535" 
d="M470 307l-58 -201q-10 -35 -10 -52q0 -21 20 -28t67 -3v-10q-55 -21 -101 -21q-41 0 -60 12.5t-19 44.5q0 14 5 34l-2 1q-35 -50 -69.5 -71.5t-78.5 -21.5q-61 0 -97 42.5t-36 117.5q0 118 84.5 217.5t184.5 99.5q40 0 62.5 -16t38.5 -48l18 52l105 12zM314 445
q-46 0 -88 -53.5t-64.5 -121.5t-22.5 -120q0 -54 18.5 -84.5t54.5 -30.5q53 0 103 88l71 237q-5 38 -25 61.5t-47 23.5zM210 528l186 196h13l76 -196h-17l-94 93l-143 -93h-21z" />
    <glyph glyph-name="atilde" unicode="&#xe3;" horiz-adv-x="535" 
d="M470 307l-58 -201q-10 -35 -10 -52q0 -21 20 -28t67 -3v-10q-55 -21 -101 -21q-41 0 -60 12.5t-19 44.5q0 14 5 34l-2 1q-35 -50 -69.5 -71.5t-78.5 -21.5q-61 0 -97 42.5t-36 117.5q0 118 84.5 217.5t184.5 99.5q40 0 62.5 -16t38.5 -48l18 52l105 12zM314 445
q-46 0 -88 -53.5t-64.5 -121.5t-22.5 -120q0 -54 18.5 -84.5t54.5 -30.5q53 0 103 88l71 237q-5 38 -25 61.5t-47 23.5zM212 526q15 67 40 97t63 30q20 0 70 -25t69 -25q21 0 32.5 11t26.5 47h16q-15 -67 -39.5 -97t-63.5 -30q-21 0 -70.5 25.5t-68.5 25.5q-21 0 -33 -11.5
t-26 -47.5h-16z" />
    <glyph glyph-name="adieresis" unicode="&#xe4;" horiz-adv-x="535" 
d="M470 307l-58 -201q-10 -35 -10 -52q0 -21 20 -28t67 -3v-10q-55 -21 -101 -21q-41 0 -60 12.5t-19 44.5q0 14 5 34l-2 1q-35 -50 -69.5 -71.5t-78.5 -21.5q-61 0 -97 42.5t-36 117.5q0 118 84.5 217.5t184.5 99.5q40 0 62.5 -16t38.5 -48l18 52l105 12zM314 445
q-46 0 -88 -53.5t-64.5 -121.5t-22.5 -120q0 -54 18.5 -84.5t54.5 -30.5q53 0 103 88l71 237q-5 38 -25 61.5t-47 23.5zM463 533q-21 0 -35 14t-14 39q0 34 21.5 59t51.5 25q20 0 34 -13.5t14 -37.5q0 -34 -21 -60t-51 -26zM269 533q-21 0 -35 14t-14 39q0 34 21.5 59
t51.5 25q20 0 34 -13.5t14 -37.5q0 -34 -21 -60t-51 -26z" />
    <glyph glyph-name="aring" unicode="&#xe5;" horiz-adv-x="535" 
d="M470 307l-58 -201q-10 -35 -10 -52q0 -21 20 -28t67 -3v-10q-55 -21 -101 -21q-41 0 -60 12.5t-19 44.5q0 14 5 34l-2 1q-35 -50 -69.5 -71.5t-78.5 -21.5q-61 0 -97 42.5t-36 117.5q0 118 84.5 217.5t184.5 99.5q40 0 62.5 -16t38.5 -48l18 52l105 12zM314 445
q-46 0 -88 -53.5t-64.5 -121.5t-22.5 -120q0 -54 18.5 -84.5t54.5 -30.5q53 0 103 88l71 237q-5 38 -25 61.5t-47 23.5zM371 533q-43 0 -70.5 24t-27.5 63q0 51 39.5 86.5t94.5 35.5q43 0 70.5 -24t27.5 -63q0 -51 -39.5 -86.5t-94.5 -35.5zM372 550q35 0 56.5 39t21.5 82
q0 54 -44 54q-34 0 -56 -39.5t-22 -81.5q0 -54 44 -54z" />
    <glyph glyph-name="ae" unicode="&#xe6;" horiz-adv-x="734" 
d="M597 468q66 0 101 -28.5t35 -74.5q0 -63 -79.5 -103.5t-231.5 -37.5q-5 -24 -5 -56q0 -71 25 -104.5t84 -33.5q39 0 78.5 23t68.5 61l13 -11q-81 -112 -200 -112q-65 0 -110 36t-50 108h-3q-25 -66 -75.5 -105t-107.5 -39t-89.5 28t-32.5 75q0 69 84 110t234 42
q6 32 6 81q0 61 -23 91.5t-63 30.5q-59 0 -85 -38q31 -14 31 -48q0 -28 -15.5 -43.5t-41.5 -15.5t-41.5 16t-15.5 41q0 45 49.5 76t124.5 31q120 0 144 -86h3q81 86 188 86zM187 39q53 0 93.5 53.5t51.5 137.5q-216 -5 -216 -120q0 -34 19.5 -52.5t51.5 -18.5zM592 447
q-51 0 -100 -62t-67 -145q217 4 217 151q0 56 -50 56z" />
    <glyph glyph-name="ccedilla" unicode="&#xe7;" horiz-adv-x="445" 
d="M141 -249q-51 0 -94 26l9 15q40 -21 76 -21q31 0 49.5 17t18.5 43t-20.5 40t-54.5 14q-17 0 -32 -4l-3 10l130 100h-8q-79 0 -131 51.5t-52 135.5q0 113 79 201.5t186 88.5q64 0 102.5 -27t38.5 -70q0 -27 -16.5 -45.5t-42.5 -18.5q-27 0 -43 15t-16 42q0 15 11.5 33.5
t29.5 27.5q-19 24 -57 24q-45 0 -84 -45.5t-60.5 -109t-21.5 -122.5q0 -143 117 -143q79 0 139 87l14 -10q-63 -97 -156 -112l-83 -65l1 -3q105 -6 105 -79q0 -41 -38 -68.5t-93 -27.5z" />
    <glyph glyph-name="egrave" unicode="&#xe8;" horiz-adv-x="450" 
d="M449 365q0 -63 -79.5 -103.5t-231.5 -37.5q-5 -24 -5 -56q0 -71 25 -104.5t84 -33.5q39 0 78.5 23t68.5 61l13 -11q-83 -112 -202 -112q-74 0 -123.5 45t-49.5 130q0 117 84 209.5t202 92.5q66 0 101 -28.5t35 -74.5zM308 447q-51 0 -100 -62t-67 -145q217 4 217 151
q0 56 -50 56zM341 528l-109 100q-47 44 -47 67q0 17 13 30t31 13q17 0 29 -13t25 -44l67 -153h-9z" />
    <glyph glyph-name="eacute" unicode="&#xe9;" horiz-adv-x="450" 
d="M449 365q0 -63 -79.5 -103.5t-231.5 -37.5q-5 -24 -5 -56q0 -71 25 -104.5t84 -33.5q39 0 78.5 23t68.5 61l13 -11q-83 -112 -202 -112q-74 0 -123.5 45t-49.5 130q0 117 84 209.5t202 92.5q66 0 101 -28.5t35 -74.5zM308 447q-51 0 -100 -62t-67 -145q217 4 217 151
q0 56 -50 56zM270 528l85 128q32 51 47 67t38 16q16 0 28.5 -12t12.5 -27q0 -19 -17 -36.5t-69 -54.5l-113 -81h-12z" />
    <glyph glyph-name="ecircumflex" unicode="&#xea;" horiz-adv-x="450" 
d="M449 365q0 -63 -79.5 -103.5t-231.5 -37.5q-5 -24 -5 -56q0 -71 25 -104.5t84 -33.5q39 0 78.5 23t68.5 61l13 -11q-83 -112 -202 -112q-74 0 -123.5 45t-49.5 130q0 117 84 209.5t202 92.5q66 0 101 -28.5t35 -74.5zM308 447q-51 0 -100 -62t-67 -145q217 4 217 151
q0 56 -50 56zM177 528l186 196h13l76 -196h-17l-94 93l-143 -93h-21z" />
    <glyph glyph-name="edieresis" unicode="&#xeb;" horiz-adv-x="450" 
d="M449 365q0 -63 -79.5 -103.5t-231.5 -37.5q-5 -24 -5 -56q0 -71 25 -104.5t84 -33.5q39 0 78.5 23t68.5 61l13 -11q-83 -112 -202 -112q-74 0 -123.5 45t-49.5 130q0 117 84 209.5t202 92.5q66 0 101 -28.5t35 -74.5zM308 447q-51 0 -100 -62t-67 -145q217 4 217 151
q0 56 -50 56zM227 533q-21 0 -35 14t-14 39q0 34 21.5 59t51.5 25q20 0 34 -13.5t14 -37.5q0 -34 -21 -60t-51 -26zM421 533q-21 0 -35 14t-14 39q0 34 21.5 59t51.5 25q20 0 34 -13.5t14 -37.5q0 -34 -21 -60t-51 -26z" />
    <glyph glyph-name="igrave" unicode="&#xec;" horiz-adv-x="300" 
d="M250 27v-10q-59 -25 -116 -25q-86 0 -86 68q0 18 8 47l88 284q7 24 -11.5 36t-66.5 15v12l203 9l-110 -358q-9 -27 -9 -44q0 -23 21.5 -30t78.5 -4zM251 528l-109 100q-47 44 -47 67q0 17 13 30t31 13q17 0 29 -13t25 -44l67 -153h-9z" />
    <glyph glyph-name="iacute" unicode="&#xed;" horiz-adv-x="300" 
d="M173 528l85 128q32 51 47 67t38 16q16 0 28.5 -12t12.5 -27q0 -19 -17 -36.5t-69 -54.5l-113 -81h-12zM250 27v-10q-59 -25 -116 -25q-86 0 -86 68q0 18 8 47l88 284q7 24 -11.5 36t-66.5 15v12l203 9l-110 -358q-9 -27 -9 -44q0 -23 21.5 -30t78.5 -4z" />
    <glyph glyph-name="icircumflex" unicode="&#xee;" horiz-adv-x="300" 
d="M77 528l186 196h13l76 -196h-17l-94 93l-143 -93h-21zM250 27v-10q-59 -25 -116 -25q-86 0 -86 68q0 18 8 47l88 284q7 24 -11.5 36t-66.5 15v12l203 9l-110 -358q-9 -27 -9 -44q0 -23 21.5 -30t78.5 -4z" />
    <glyph glyph-name="idieresis" unicode="&#xef;" horiz-adv-x="300" 
d="M325 533q-21 0 -35 14t-14 39q0 34 21.5 59t51.5 25q20 0 34 -13.5t14 -37.5q0 -34 -21 -60t-51 -26zM131 533q-21 0 -35 14t-14 39q0 34 21.5 59t51.5 25q20 0 34 -13.5t14 -37.5q0 -34 -21 -60t-51 -26zM250 27v-10q-59 -25 -116 -25q-86 0 -86 68q0 18 8 47l88 284
q7 24 -11.5 36t-66.5 15v12l203 9l-110 -358q-9 -27 -9 -44q0 -23 21.5 -30t78.5 -4z" />
    <glyph glyph-name="eth" unicode="&#xf0;" horiz-adv-x="506" 
d="M298 603l-133 -76l-10 18l131 72q-51 56 -139 93l8 14q107 -27 178 -80l92 52l10 -18l-85 -46q130 -105 127 -290q-1 -151 -74 -251t-196 -100q-80 0 -129 52.5t-49 139.5q0 109 74 197t193 88q40 0 67 -20q-12 90 -65 155zM206 11q39 0 72.5 35t54 87t31.5 105t11 95
q0 116 -79 116q-39 0 -72.5 -35.5t-53.5 -87t-31.5 -105t-11.5 -95.5q0 -115 79 -115z" />
    <glyph glyph-name="ntilde" unicode="&#xf1;" horiz-adv-x="543" 
d="M66 162l62 229q7 25 -5.5 36.5t-57.5 14.5v12l181 9l-30 -97l2 -2q46 47 96 74.5t91 27.5q46 0 70.5 -24t24.5 -68q0 -33 -11 -67l-68 -211q-10 -32 -10 -45q0 -21 19.5 -26.5t70.5 -1.5v-10q-51 -21 -101 -21q-87 0 -87 62q0 21 9 48l65 201q11 36 11 58q0 49 -53 49
q-56 0 -133 -67l-85 -343h-109zM196 526q15 67 40 97t63 30q20 0 70 -25t69 -25q21 0 32.5 11t26.5 47h16q-15 -67 -39.5 -97t-63.5 -30q-21 0 -70.5 25.5t-68.5 25.5q-21 0 -33 -11.5t-26 -47.5h-16z" />
    <glyph glyph-name="ograve" unicode="&#xf2;" horiz-adv-x="502" 
d="M296 468q80 0 129 -52.5t49 -139.5q0 -69 -31 -133t-93.5 -108t-142.5 -44t-129.5 52.5t-49.5 139.5q0 109 74 197t194 88zM206 11q39 0 72.5 35t53.5 87t31.5 105t11.5 95q0 116 -79 116q-39 0 -72.5 -35.5t-53.5 -87t-31.5 -105t-11.5 -95.5q0 -115 79 -115zM354 528
l-109 100q-47 44 -47 67q0 17 13 30t31 13q17 0 29 -13t25 -44l67 -153h-9z" />
    <glyph glyph-name="oacute" unicode="&#xf3;" horiz-adv-x="502" 
d="M276 528l85 128q32 51 47 67t38 16q16 0 28.5 -12t12.5 -27q0 -19 -17 -36.5t-69 -54.5l-113 -81h-12zM296 468q80 0 129 -52.5t49 -139.5q0 -69 -31 -133t-93.5 -108t-142.5 -44t-129.5 52.5t-49.5 139.5q0 109 74 197t194 88zM206 11q39 0 72.5 35t53.5 87t31.5 105
t11.5 95q0 116 -79 116q-39 0 -72.5 -35.5t-53.5 -87t-31.5 -105t-11.5 -95.5q0 -115 79 -115z" />
    <glyph glyph-name="ocircumflex" unicode="&#xf4;" horiz-adv-x="502" 
d="M177 528l186 196h13l76 -196h-17l-94 93l-143 -93h-21zM296 468q80 0 129 -52.5t49 -139.5q0 -69 -31 -133t-93.5 -108t-142.5 -44t-129.5 52.5t-49.5 139.5q0 109 74 197t194 88zM206 11q39 0 72.5 35t53.5 87t31.5 105t11.5 95q0 116 -79 116q-39 0 -72.5 -35.5
t-53.5 -87t-31.5 -105t-11.5 -95.5q0 -115 79 -115z" />
    <glyph glyph-name="otilde" unicode="&#xf5;" horiz-adv-x="502" 
d="M296 468q80 0 129 -52.5t49 -139.5q0 -69 -31 -133t-93.5 -108t-142.5 -44t-129.5 52.5t-49.5 139.5q0 109 74 197t194 88zM206 11q39 0 72.5 35t53.5 87t31.5 105t11.5 95q0 116 -79 116q-39 0 -72.5 -35.5t-53.5 -87t-31.5 -105t-11.5 -95.5q0 -115 79 -115zM180 526
q15 67 40 97t63 30q20 0 70 -25t69 -25q21 0 32.5 11t26.5 47h16q-15 -67 -39.5 -97t-63.5 -30q-21 0 -70.5 25.5t-68.5 25.5q-21 0 -33 -11.5t-26 -47.5h-16z" />
    <glyph glyph-name="odieresis" unicode="&#xf6;" horiz-adv-x="502" 
d="M427 533q-21 0 -35 14t-14 39q0 34 21.5 59t51.5 25q20 0 34 -13.5t14 -37.5q0 -34 -21 -60t-51 -26zM233 533q-21 0 -35 14t-14 39q0 34 21.5 59t51.5 25q20 0 34 -13.5t14 -37.5q0 -34 -21 -60t-51 -26zM296 468q80 0 129 -52.5t49 -139.5q0 -69 -31 -133t-93.5 -108
t-142.5 -44t-129.5 52.5t-49.5 139.5q0 109 74 197t194 88zM206 11q39 0 72.5 35t53.5 87t31.5 105t11.5 95q0 116 -79 116q-39 0 -72.5 -35.5t-53.5 -87t-31.5 -105t-11.5 -95.5q0 -115 79 -115z" />
    <glyph glyph-name="divide" unicode="&#xf7;" horiz-adv-x="576" 
d="M545 315h-468l5 22h468zM354 413q-25 0 -42 17t-17 41t17 41t42 17q24 0 41 -17t17 -41t-17 -41t-41 -17zM276 123q-25 0 -42 17t-17 41t17 41t42 17q24 0 41 -17t17 -41t-17 -41t-41 -17z" />
    <glyph glyph-name="oslash" unicode="&#xf8;" horiz-adv-x="502" 
d="M19 -24l58 67q-49 54 -49 140q0 109 74 197t194 88q70 0 117 -41l49 56h21l-59 -67q50 -52 50 -140q0 -69 -31 -133t-93.5 -108t-142.5 -44q-69 0 -118 41l-48 -56h-22zM127 126q0 -18 1 -26l243 280q-14 69 -75 69q-39 0 -72.5 -35.5t-53.5 -87t-31.5 -105t-11.5 -95.5z
M206 11q39 0 72.5 35t53.5 87t31.5 105t11.5 95q0 5 -0.5 13t-0.5 12l-243 -278q13 -69 75 -69z" />
    <glyph glyph-name="ugrave" unicode="&#xf9;" horiz-adv-x="556" 
d="M56 150l77 239q9 26 -5 38t-59 15v12l186 9l-97 -309q-10 -30 -10 -54q0 -50 60 -50q52 0 123 66l56 187l41 158h107l-109 -360q-10 -33 -10 -47q0 -22 19.5 -28.5t68.5 -2.5v-10q-53 -22 -103 -22q-82 0 -82 58q0 15 8 41l-2 2q-92 -101 -179 -101q-51 0 -76.5 25.5
t-25.5 69.5q0 30 12 64zM373 528l-109 100q-47 44 -47 67q0 17 13 30t31 13q17 0 29 -13t25 -44l67 -153h-9z" />
    <glyph glyph-name="uacute" unicode="&#xfa;" horiz-adv-x="556" 
d="M295 528l85 128q32 51 47 67t38 16q16 0 28.5 -12t12.5 -27q0 -19 -17 -36.5t-69 -54.5l-113 -81h-12zM56 150l77 239q9 26 -5 38t-59 15v12l186 9l-97 -309q-10 -30 -10 -54q0 -50 60 -50q52 0 123 66l56 187l41 158h107l-109 -360q-10 -33 -10 -47q0 -22 19.5 -28.5
t68.5 -2.5v-10q-53 -22 -103 -22q-82 0 -82 58q0 15 8 41l-2 2q-92 -101 -179 -101q-51 0 -76.5 25.5t-25.5 69.5q0 30 12 64z" />
    <glyph glyph-name="ucircumflex" unicode="&#xfb;" horiz-adv-x="556" 
d="M206 528l186 196h13l76 -196h-17l-94 93l-143 -93h-21zM56 150l77 239q9 26 -5 38t-59 15v12l186 9l-97 -309q-10 -30 -10 -54q0 -50 60 -50q52 0 123 66l56 187l41 158h107l-109 -360q-10 -33 -10 -47q0 -22 19.5 -28.5t68.5 -2.5v-10q-53 -22 -103 -22q-82 0 -82 58
q0 15 8 41l-2 2q-92 -101 -179 -101q-51 0 -76.5 25.5t-25.5 69.5q0 30 12 64z" />
    <glyph glyph-name="udieresis" unicode="&#xfc;" horiz-adv-x="556" 
d="M451 533q-21 0 -35 14t-14 39q0 34 21.5 59t51.5 25q20 0 34 -13.5t14 -37.5q0 -34 -21 -60t-51 -26zM257 533q-21 0 -35 14t-14 39q0 34 21.5 59t51.5 25q20 0 34 -13.5t14 -37.5q0 -34 -21 -60t-51 -26zM56 150l77 239q9 26 -5 38t-59 15v12l186 9l-97 -309
q-10 -30 -10 -54q0 -50 60 -50q52 0 123 66l56 187l41 158h107l-109 -360q-10 -33 -10 -47q0 -22 19.5 -28.5t68.5 -2.5v-10q-53 -22 -103 -22q-82 0 -82 58q0 15 8 41l-2 2q-92 -101 -179 -101q-51 0 -76.5 25.5t-25.5 69.5q0 30 12 64z" />
    <glyph glyph-name="yacute" unicode="&#xfd;" horiz-adv-x="464" 
d="M181 464l34 -201l33 -218h2l56 87q78 122 88 202q-28 9 -43.5 28.5t-15.5 43.5q0 27 16 45t43 18q28 0 45 -20.5t17 -50.5q0 -42 -25 -97t-113 -193q-81 -129 -139.5 -198t-95 -89.5t-77.5 -20.5t-63 20t-22 53q0 26 18 45t43 19t42 -17t17 -45q0 -27 -15 -44
q80 13 145 112l-41 237l-38 207q-5 30 -20 39.5t-58 8.5v12zM232 528l85 128q32 51 47 67t38 16q16 0 28.5 -12t12.5 -27q0 -19 -17 -36.5t-69 -54.5l-113 -81h-12z" />
    <glyph glyph-name="thorn" unicode="&#xfe;" horiz-adv-x="518" 
d="M215 390q70 78 148 78q54 0 90 -40t36 -112q0 -119 -84.5 -220.5t-189.5 -101.5q-62 0 -96 31l-46 -171q-5 -17 14 -24t78 -9v-12h-278v12q70 3 77 28l43 134l72 272l98 389q7 25 -11.5 36.5t-72.5 14.5v12l211 10l-92 -325zM212 17q47 0 87.5 48t62 116.5t21.5 133.5
q0 102 -78 102q-23 0 -51 -14.5t-47 -36.5l-76 -294q8 -25 31.5 -40t49.5 -15z" />
    <glyph glyph-name="ydieresis" unicode="&#xff;" horiz-adv-x="464" 
d="M181 464l34 -201l33 -218h2l56 87q78 122 88 202q-28 9 -43.5 28.5t-15.5 43.5q0 27 16 45t43 18q28 0 45 -20.5t17 -50.5q0 -42 -25 -97t-113 -193q-81 -129 -139.5 -198t-95 -89.5t-77.5 -20.5t-63 20t-22 53q0 26 18 45t43 19t42 -17t17 -45q0 -27 -15 -44
q80 13 145 112l-41 237l-38 207q-5 30 -20 39.5t-58 8.5v12zM405 533q-21 0 -35 14t-14 39q0 34 21.5 59t51.5 25q20 0 34 -13.5t14 -37.5q0 -34 -21 -60t-51 -26zM211 533q-21 0 -35 14t-14 39q0 34 21.5 59t51.5 25q20 0 34 -13.5t14 -37.5q0 -34 -21 -60t-51 -26z" />
    <glyph glyph-name="Amacron" unicode="&#x100;" horiz-adv-x="689" 
d="M-67 0l4 13q56 11 95.5 46t88.5 112l341 538h45l82 -600q8 -56 23 -72.5t71 -23.5l-4 -13h-314l4 13q70 4 88.5 21t12.5 67l-20 170h-237l-72 -117q-44 -72 -35.5 -101t73.5 -40l-4 -13h-242zM447 292l-35 293h-4l-183 -293h222zM361 798l11 43h268l-11 -43h-268z" />
    <glyph glyph-name="amacron" unicode="&#x101;" horiz-adv-x="535" 
d="M470 307l-58 -201q-10 -35 -10 -52q0 -21 20 -28t67 -3v-10q-55 -21 -101 -21q-41 0 -60 12.5t-19 44.5q0 14 5 34l-2 1q-35 -50 -69.5 -71.5t-78.5 -21.5q-61 0 -97 42.5t-36 117.5q0 118 84.5 217.5t184.5 99.5q40 0 62.5 -16t38.5 -48l18 52l105 12zM314 445
q-46 0 -88 -53.5t-64.5 -121.5t-22.5 -120q0 -54 18.5 -84.5t54.5 -30.5q53 0 103 88l71 237q-5 38 -25 61.5t-47 23.5zM221 558l11 43h268l-11 -43h-268z" />
    <glyph glyph-name="Abreve" unicode="&#x102;" horiz-adv-x="689" 
d="M-67 0l4 13q56 11 95.5 46t88.5 112l341 538h45l82 -600q8 -56 23 -72.5t71 -23.5l-4 -13h-314l4 13q70 4 88.5 21t12.5 67l-20 170h-237l-72 -117q-44 -72 -35.5 -101t73.5 -40l-4 -13h-242zM447 292l-35 293h-4l-183 -293h222zM488 773q-59 0 -86 41.5t-12 117.5h16
q6 -90 96 -90q48 0 80.5 22t59.5 68h20q-52 -159 -174 -159z" />
    <glyph glyph-name="abreve" unicode="&#x103;" horiz-adv-x="535" 
d="M470 307l-58 -201q-10 -35 -10 -52q0 -21 20 -28t67 -3v-10q-55 -21 -101 -21q-41 0 -60 12.5t-19 44.5q0 14 5 34l-2 1q-35 -50 -69.5 -71.5t-78.5 -21.5q-61 0 -97 42.5t-36 117.5q0 118 84.5 217.5t184.5 99.5q40 0 62.5 -16t38.5 -48l18 52l105 12zM314 445
q-46 0 -88 -53.5t-64.5 -121.5t-22.5 -120q0 -54 18.5 -84.5t54.5 -30.5q53 0 103 88l71 237q-5 38 -25 61.5t-47 23.5zM350 533q-59 0 -86 41.5t-12 117.5h16q6 -90 96 -90q48 0 80.5 22t59.5 68h20q-52 -159 -174 -159z" />
    <glyph glyph-name="Aogonek" unicode="&#x104;" horiz-adv-x="689" 
d="M451 -244q-40 0 -65 21.5t-25 55.5q0 47 38.5 78t115.5 66l49 23h-199l4 13q70 4 88.5 21t12.5 67l-20 170h-237l-72 -117q-44 -72 -35.5 -101t73.5 -40l-4 -13h-242l4 13q56 11 95.5 46t88.5 112l341 538h45l82 -600q8 -56 23 -72.5t71 -23.5l-4 -13h-91l-44 -27
q-102 -62 -102 -129q0 -27 15 -41.5t39 -14.5q25 0 65 15l4 -12q-59 -35 -114 -35zM447 292l-35 293h-4l-183 -293h222z" />
    <glyph glyph-name="aogonek" unicode="&#x105;" horiz-adv-x="535" 
d="M313 -244q-40 0 -65 21t-25 56q0 48 39.5 79.5t119.5 66.5l32 15q-20 -2 -26 -2q-41 0 -60 12.5t-19 44.5q0 14 5 34l-2 1q-35 -50 -69.5 -71.5t-78.5 -21.5q-61 0 -97 42.5t-36 117.5q0 118 84.5 217.5t184.5 99.5q40 0 62.5 -16t38.5 -48l18 52l105 12l-54 -161
l-58 -201q-10 -35 -10 -52q0 -21 20 -28t67 -3v-10l-59 -30q-127 -64 -127 -139q0 -27 15 -41.5t39 -14.5q27 0 65 15l5 -12q-59 -35 -114 -35zM314 445q-46 0 -88 -53.5t-64.5 -121.5t-22.5 -120q0 -54 18.5 -84.5t54.5 -30.5q53 0 103 88l71 237q-5 38 -25 61.5t-47 23.5z
" />
    <glyph glyph-name="Cacute" unicode="&#x106;" horiz-adv-x="696" 
d="M425 768l85 128q32 51 47 67t38 16q16 0 28.5 -12t12.5 -27q0 -19 -17 -36.5t-69 -54.5l-113 -81h-12zM338 -17q-122 0 -200.5 81t-78.5 211q0 109 52.5 208.5t153 165t223.5 65.5q98 0 177 -52l55 49h16l-65 -237h-16q-35 131 -67.5 176t-105.5 45q-79 0 -150 -69.5
t-110.5 -171.5t-39.5 -202q0 -109 52 -169.5t149 -60.5q137 0 264 169l15 -11q-139 -197 -324 -197z" />
    <glyph glyph-name="cacute" unicode="&#x107;" horiz-adv-x="445" 
d="M255 528l85 128q32 51 47 67t38 16q16 0 28.5 -12t12.5 -27q0 -19 -17 -36.5t-69 -54.5l-113 -81h-12zM294 468q64 0 102.5 -27t38.5 -70q0 -27 -16.5 -45.5t-42.5 -18.5q-27 0 -43 15t-16 42q0 15 11.5 33.5t29.5 27.5q-19 24 -57 24q-45 0 -84 -45.5t-60.5 -109
t-21.5 -122.5q0 -143 117 -143q79 0 139 87l14 -10q-75 -115 -193 -115q-79 0 -131 51.5t-52 135.5q0 113 79 201.5t186 88.5z" />
    <glyph glyph-name="Cdotaccent" unicode="&#x10a;" horiz-adv-x="696" 
d="M338 -17q-122 0 -200.5 81t-78.5 211q0 109 52.5 208.5t153 165t223.5 65.5q98 0 177 -52l55 49h16l-65 -237h-16q-35 131 -67.5 176t-105.5 45q-79 0 -150 -69.5t-110.5 -171.5t-39.5 -202q0 -109 52 -169.5t149 -60.5q137 0 264 169l15 -11q-139 -197 -324 -197z
M506 773q-21 0 -35.5 14.5t-14.5 39.5q0 35 22 60.5t53 25.5q21 0 35.5 -13.5t14.5 -38.5q0 -35 -22.5 -61.5t-52.5 -26.5z" />
    <glyph glyph-name="cdotaccent" unicode="&#x10b;" horiz-adv-x="445" 
d="M294 468q64 0 102.5 -27t38.5 -70q0 -27 -16.5 -45.5t-42.5 -18.5q-27 0 -43 15t-16 42q0 15 11.5 33.5t29.5 27.5q-19 24 -57 24q-45 0 -84 -45.5t-60.5 -109t-21.5 -122.5q0 -143 117 -143q79 0 139 87l14 -10q-75 -115 -193 -115q-79 0 -131 51.5t-52 135.5
q0 113 79 201.5t186 88.5zM318 533q-21 0 -35.5 14.5t-14.5 39.5q0 35 22 60.5t53 25.5q21 0 35.5 -13.5t14.5 -38.5q0 -35 -22.5 -61.5t-52.5 -26.5z" />
    <glyph glyph-name="Ccaron" unicode="&#x10c;" horiz-adv-x="696" 
d="M484 768l-77 196h17l94 -93l143 93h21l-185 -196h-13zM338 -17q-122 0 -200.5 81t-78.5 211q0 109 52.5 208.5t153 165t223.5 65.5q98 0 177 -52l55 49h16l-65 -237h-16q-35 131 -67.5 176t-105.5 45q-79 0 -150 -69.5t-110.5 -171.5t-39.5 -202q0 -109 52 -169.5
t149 -60.5q137 0 264 169l15 -11q-139 -197 -324 -197z" />
    <glyph glyph-name="ccaron" unicode="&#x10d;" horiz-adv-x="445" 
d="M299 528l-77 196h17l94 -93l143 93h21l-185 -196h-13zM294 468q64 0 102.5 -27t38.5 -70q0 -27 -16.5 -45.5t-42.5 -18.5q-27 0 -43 15t-16 42q0 15 11.5 33.5t29.5 27.5q-19 24 -57 24q-45 0 -84 -45.5t-60.5 -109t-21.5 -122.5q0 -143 117 -143q79 0 139 87l14 -10
q-75 -115 -193 -115q-79 0 -131 51.5t-52 135.5q0 113 79 201.5t186 88.5z" />
    <glyph glyph-name="Dcaron" unicode="&#x10e;" 
d="M96 67l150 563q7 26 -10.5 38.5t-82.5 15.5l3 13h263q168 0 254 -77.5t86 -209.5q0 -78 -31 -153t-89 -132q-123 -125 -317 -125h-352l3 13q68 4 91.5 15t31.5 39zM199 20h125q105 0 183 78q63 64 97 167t34 204q0 102 -47.5 155t-156.5 53h-59zM497 768l-77 196h17
l94 -93l143 93h21l-185 -196h-13z" />
    <glyph glyph-name="dcaron" unicode="&#x10f;" horiz-adv-x="530" 
d="M583 717l-169 -605q-10 -35 -10 -51q0 -23 19.5 -32.5t70.5 -5.5v-10q-51 -21 -104 -21q-41 0 -60.5 15t-19.5 48q0 14 2 24l-2 1q-67 -89 -145 -89q-59 0 -97 46t-38 121q0 73 38 145t99.5 118.5t126.5 46.5q40 0 63 -12.5t42 -38.5l60 226q6 25 -12.5 37t-72.5 15v12z
M309 445q-48 0 -89 -54t-61.5 -121t-20.5 -120q0 -52 20.5 -80t57.5 -28q55 0 98 75l73 251q-9 34 -29 55.5t-49 21.5zM624 529l40 163q9 37 21 52.5t33 15.5q16 0 27 -10.5t11 -25.5q0 -21 -29 -64l-90 -131h-13z" />
    <glyph glyph-name="Dcroat" unicode="&#x110;" 
d="M96 67l75 283h-101l6 26h102l68 254q7 26 -10.5 38.5t-82.5 15.5l3 13h263q168 0 254 -77.5t86 -209.5q0 -78 -31 -153t-89 -132q-123 -125 -317 -125h-352l3 13q68 4 91.5 15t31.5 39zM199 20h125q105 0 183 78q63 64 97 167t34 204q0 102 -47.5 155t-156.5 53h-59
l-81 -301h138l-6 -26h-139z" />
    <glyph glyph-name="dcroat" unicode="&#x111;" horiz-adv-x="530" 
d="M583 717l-35 -124h71l-6 -20h-70l-129 -461q-10 -35 -10 -51q0 -23 19.5 -32.5t70.5 -5.5v-10q-51 -21 -104 -21q-41 0 -60.5 15t-19.5 48q0 14 2 24l-2 1q-67 -89 -145 -89q-59 0 -97 46t-38 121q0 73 38 145t99.5 118.5t126.5 46.5q40 0 63 -12.5t42 -38.5l41 156h-132
l6 20h132l13 50q6 25 -12.5 37t-72.5 15v12zM309 445q-48 0 -89 -54t-61.5 -121t-20.5 -120q0 -52 20.5 -80t57.5 -28q55 0 98 75l73 251q-9 34 -29 55.5t-49 21.5z" />
    <glyph glyph-name="Emacron" unicode="&#x112;" horiz-adv-x="687" 
d="M156 697h571l-53 -213h-16q-7 37 -11 55t-11 43.5t-14 36.5t-18 25t-25 19t-33 9t-45 4h-126l-80 -298h63q57 0 83 20.5t79 99.5h15l-70 -270h-15q-5 34 -7.5 48.5t-7.5 33.5t-10 25t-15.5 13t-23.5 8.5t-33 1.5h-63l-90 -337h147q42 0 74.5 9t57 22t50.5 42.5t45.5 56.5
t51.5 78h17l-66 -229h-607l3 13q68 4 91.5 15t31.5 39l150 563q7 26 -10.5 38.5t-82.5 15.5zM360 798l11 43h268l-11 -43h-268z" />
    <glyph glyph-name="emacron" unicode="&#x113;" horiz-adv-x="450" 
d="M449 365q0 -63 -79.5 -103.5t-231.5 -37.5q-5 -24 -5 -56q0 -71 25 -104.5t84 -33.5q39 0 78.5 23t68.5 61l13 -11q-83 -112 -202 -112q-74 0 -123.5 45t-49.5 130q0 117 84 209.5t202 92.5q66 0 101 -28.5t35 -74.5zM308 447q-51 0 -100 -62t-67 -145q217 4 217 151
q0 56 -50 56zM183 558l11 43h268l-11 -43h-268z" />
    <glyph glyph-name="Ebreve" unicode="&#x114;" horiz-adv-x="687" 
d="M156 697h571l-53 -213h-16q-7 37 -11 55t-11 43.5t-14 36.5t-18 25t-25 19t-33 9t-45 4h-126l-80 -298h63q57 0 83 20.5t79 99.5h15l-70 -270h-15q-5 34 -7.5 48.5t-7.5 33.5t-10 25t-15.5 13t-23.5 8.5t-33 1.5h-63l-90 -337h147q42 0 74.5 9t57 22t50.5 42.5t45.5 56.5
t51.5 78h17l-66 -229h-607l3 13q68 4 91.5 15t31.5 39l150 563q7 26 -10.5 38.5t-82.5 15.5zM489 773q-59 0 -86 41.5t-12 117.5h16q6 -90 96 -90q48 0 80.5 22t59.5 68h20q-52 -159 -174 -159z" />
    <glyph glyph-name="ebreve" unicode="&#x115;" horiz-adv-x="450" 
d="M449 365q0 -63 -79.5 -103.5t-231.5 -37.5q-5 -24 -5 -56q0 -71 25 -104.5t84 -33.5q39 0 78.5 23t68.5 61l13 -11q-83 -112 -202 -112q-74 0 -123.5 45t-49.5 130q0 117 84 209.5t202 92.5q66 0 101 -28.5t35 -74.5zM308 447q-51 0 -100 -62t-67 -145q217 4 217 151
q0 56 -50 56zM311 533q-59 0 -86 41.5t-12 117.5h16q6 -90 96 -90q48 0 80.5 22t59.5 68h20q-52 -159 -174 -159z" />
    <glyph glyph-name="Edotaccent" unicode="&#x116;" horiz-adv-x="687" 
d="M156 697h571l-53 -213h-16q-7 37 -11 55t-11 43.5t-14 36.5t-18 25t-25 19t-33 9t-45 4h-126l-80 -298h63q57 0 83 20.5t79 99.5h15l-70 -270h-15q-5 34 -7.5 48.5t-7.5 33.5t-10 25t-15.5 13t-23.5 8.5t-33 1.5h-63l-90 -337h147q42 0 74.5 9t57 22t50.5 42.5t45.5 56.5
t51.5 78h17l-66 -229h-607l3 13q68 4 91.5 15t31.5 39l150 563q7 26 -10.5 38.5t-82.5 15.5zM490 773q-21 0 -35.5 14.5t-14.5 39.5q0 35 22 60.5t53 25.5q21 0 35.5 -13.5t14.5 -38.5q0 -35 -22.5 -61.5t-52.5 -26.5z" />
    <glyph glyph-name="edotaccent" unicode="&#x117;" horiz-adv-x="450" 
d="M449 365q0 -63 -79.5 -103.5t-231.5 -37.5q-5 -24 -5 -56q0 -71 25 -104.5t84 -33.5q39 0 78.5 23t68.5 61l13 -11q-83 -112 -202 -112q-74 0 -123.5 45t-49.5 130q0 117 84 209.5t202 92.5q66 0 101 -28.5t35 -74.5zM308 447q-51 0 -100 -62t-67 -145q217 4 217 151
q0 56 -50 56zM323 533q-21 0 -35.5 14.5t-14.5 39.5q0 35 22 60.5t53 25.5q21 0 35.5 -13.5t14.5 -38.5q0 -35 -22.5 -61.5t-52.5 -26.5z" />
    <glyph glyph-name="Eogonek" unicode="&#x118;" horiz-adv-x="688" 
d="M156 697h571l-53 -213h-16q-7 37 -11 55t-11 43.5t-14 36.5t-18 25t-25 19t-33 9t-45 4h-126l-80 -298h63q57 0 83 20.5t79 99.5h15l-70 -270h-15q-5 34 -7.5 48.5t-7.5 33.5t-10 25t-15.5 13t-23.5 8.5t-33 1.5h-63l-90 -337h147q42 0 74.5 9t57 22t50.5 42.5t45.5 56.5
t51.5 78h17l-66 -229h-82l-44 -27q-102 -62 -102 -129q0 -27 15 -41.5t39 -14.5q25 0 65 15l4 -12q-60 -35 -114 -35q-40 0 -65 21.5t-25 55.5q0 47 38.5 78t115.5 66l49 23h-501l3 13q68 4 91.5 15t31.5 39l150 563q7 26 -10.5 38.5t-82.5 15.5z" />
    <glyph glyph-name="eogonek" unicode="&#x119;" horiz-adv-x="450" 
d="M156 -244q-40 0 -65 21t-25 56q0 47 37 78t106 63l51 25q-29 -8 -60 -8q-74 0 -123.5 45t-49.5 130q0 117 84 209.5t202 92.5q66 0 101 -28.5t35 -74.5q0 -63 -79.5 -103.5t-231.5 -37.5q-5 -24 -5 -56q0 -71 25 -104.5t84 -33.5q39 0 78.5 23t68.5 61l13 -11
q-35 -45 -83 -79l-63 -45q-58 -41 -84 -70t-26 -65q0 -27 15 -41.5t39 -14.5q27 0 65 15l5 -12q-59 -35 -114 -35zM308 447q-51 0 -100 -62t-67 -145q217 4 217 151q0 56 -50 56z" />
    <glyph glyph-name="Ecaron" unicode="&#x11a;" horiz-adv-x="687" 
d="M480 768l-77 196h17l94 -93l143 93h21l-185 -196h-13zM156 697h571l-53 -213h-16q-7 37 -11 55t-11 43.5t-14 36.5t-18 25t-25 19t-33 9t-45 4h-126l-80 -298h63q57 0 83 20.5t79 99.5h15l-70 -270h-15q-5 34 -7.5 48.5t-7.5 33.5t-10 25t-15.5 13t-23.5 8.5t-33 1.5h-63
l-90 -337h147q42 0 74.5 9t57 22t50.5 42.5t45.5 56.5t51.5 78h17l-66 -229h-607l3 13q68 4 91.5 15t31.5 39l150 563q7 26 -10.5 38.5t-82.5 15.5z" />
    <glyph glyph-name="ecaron" unicode="&#x11b;" horiz-adv-x="450" 
d="M449 365q0 -63 -79.5 -103.5t-231.5 -37.5q-5 -24 -5 -56q0 -71 25 -104.5t84 -33.5q39 0 78.5 23t68.5 61l13 -11q-83 -112 -202 -112q-74 0 -123.5 45t-49.5 130q0 117 84 209.5t202 92.5q66 0 101 -28.5t35 -74.5zM308 447q-51 0 -100 -62t-67 -145q217 4 217 151
q0 56 -50 56zM300 528l-77 196h17l94 -93l143 93h21l-185 -196h-13z" />
    <glyph glyph-name="Gbreve" unicode="&#x11e;" horiz-adv-x="735" 
d="M739 711l-62 -227h-16q-40 129 -71 170t-103 41q-85 0 -157 -72.5t-110 -179t-38 -213.5q0 -101 50 -164.5t131 -63.5q67 0 121 33l58 219q7 27 -10 38.5t-84 15.5l3 13h299l-3 -13q-49 -3 -66 -15t-25 -41l-59 -206q-128 -63 -244 -63q-128 0 -211 81.5t-83 210.5
q0 107 52.5 207t153 166t223.5 66q104 0 183 -50l52 47h16zM493 773q-59 0 -86 41.5t-12 117.5h16q6 -90 96 -90q48 0 80.5 22t59.5 68h20q-52 -159 -174 -159z" />
    <glyph glyph-name="gbreve" unicode="&#x11f;" horiz-adv-x="519" 
d="M170 0q-59 0 -98.5 43t-39.5 117q0 72 37 143.5t98 118t126 46.5q69 0 108 -57l16 45l106 12l-54 -162l-88 -313q-29 -103 -84 -148t-163 -45q-77 0 -119.5 29t-42.5 68q0 31 18.5 51.5t47.5 20.5q26 0 40.5 -16t14.5 -41q0 -36 -36 -57q22 -36 76 -36q55 0 90.5 42
t59.5 126l24 85l-3 1q-32 -38 -62.5 -55.5t-71.5 -17.5zM307 445q-48 0 -88.5 -54t-60 -120.5t-19.5 -119.5q0 -104 80 -104q51 0 91 60l76 257q-9 34 -30 57.5t-49 23.5zM341 533q-59 0 -86 41.5t-12 117.5h16q6 -90 96 -90q48 0 80.5 22t59.5 68h20q-52 -159 -174 -159z
" />
    <glyph glyph-name="Gdotaccent" unicode="&#x120;" horiz-adv-x="735" 
d="M739 711l-62 -227h-16q-40 129 -71 170t-103 41q-85 0 -157 -72.5t-110 -179t-38 -213.5q0 -101 50 -164.5t131 -63.5q67 0 121 33l58 219q7 27 -10 38.5t-84 15.5l3 13h299l-3 -13q-49 -3 -66 -15t-25 -41l-59 -206q-128 -63 -244 -63q-128 0 -211 81.5t-83 210.5
q0 107 52.5 207t153 166t223.5 66q104 0 183 -50l52 47h16zM506 773q-21 0 -35.5 14.5t-14.5 39.5q0 35 22 60.5t53 25.5q21 0 35.5 -13.5t14.5 -38.5q0 -35 -22.5 -61.5t-52.5 -26.5z" />
    <glyph glyph-name="gdotaccent" unicode="&#x121;" horiz-adv-x="519" 
d="M170 0q-59 0 -98.5 43t-39.5 117q0 72 37 143.5t98 118t126 46.5q69 0 108 -57l16 45l106 12l-54 -162l-88 -313q-29 -103 -84 -148t-163 -45q-77 0 -119.5 29t-42.5 68q0 31 18.5 51.5t47.5 20.5q26 0 40.5 -16t14.5 -41q0 -36 -36 -57q22 -36 76 -36q55 0 90.5 42
t59.5 126l24 85l-3 1q-32 -38 -62.5 -55.5t-71.5 -17.5zM307 445q-48 0 -88.5 -54t-60 -120.5t-19.5 -119.5q0 -104 80 -104q51 0 91 60l76 257q-9 34 -30 57.5t-49 23.5zM348 533q-21 0 -35.5 14.5t-14.5 39.5q0 35 22 60.5t53 25.5q21 0 35.5 -13.5t14.5 -38.5
q0 -35 -22.5 -61.5t-52.5 -26.5z" />
    <glyph glyph-name="Gcommaaccent" unicode="&#x122;" horiz-adv-x="735" 
d="M188 -287l-4 11q97 46 115 100l-3 2q-26 -2 -42.5 13.5t-16.5 40.5t17.5 42.5t42.5 17.5q27 0 44 -19.5t17 -47.5q0 -95 -170 -160zM739 711l-62 -227h-16q-40 129 -71 170t-103 41q-85 0 -157 -72.5t-110 -179t-38 -213.5q0 -101 50 -164.5t131 -63.5q67 0 121 33
l58 219q7 27 -10 38.5t-84 15.5l3 13h299l-3 -13q-49 -3 -66 -15t-25 -41l-59 -206q-128 -63 -244 -63q-128 0 -211 81.5t-83 210.5q0 107 52.5 207t153 166t223.5 66q104 0 183 -50l52 47h16z" />
    <glyph glyph-name="gcommaaccent" unicode="&#x123;" horiz-adv-x="519" 
d="M470 784l4 -11q-97 -46 -115 -100l3 -2q26 2 42.5 -13.5t16.5 -40.5t-17.5 -42.5t-42.5 -17.5q-27 0 -44 19.5t-17 47.5q0 95 170 160zM170 0q-59 0 -98.5 43t-39.5 117q0 72 37 143.5t98 118t126 46.5q69 0 108 -57l16 45l106 12l-54 -162l-88 -313q-29 -103 -84 -148
t-163 -45q-77 0 -119.5 29t-42.5 68q0 31 18.5 51.5t47.5 20.5q26 0 40.5 -16t14.5 -41q0 -36 -36 -57q22 -36 76 -36q55 0 90.5 42t59.5 126l24 85l-3 1q-32 -38 -62.5 -55.5t-71.5 -17.5zM307 445q-48 0 -88.5 -54t-60 -120.5t-19.5 -119.5q0 -104 80 -104q51 0 91 60
l76 257q-9 34 -30 57.5t-49 23.5z" />
    <glyph glyph-name="Hbar" unicode="&#x126;" horiz-adv-x="830" 
d="M862 511h-103l-118 -443q-8 -28 9.5 -39.5t83.5 -15.5l-3 -13h-324l3 13q63 4 84.5 15t29.5 41l76 282h-312l-76 -283q-7 -28 11 -39.5t79 -15.5l-3 -13h-329l3 13q68 4 91.5 15t31.5 39l118 444h-102l6 24h103l25 95q7 26 -10.5 38.5t-82.5 15.5l3 13h324l-3 -13
q-64 -4 -85.5 -16t-28.5 -39l-25 -94h311l26 95q7 26 -10.5 38t-79.5 16l3 13h329l-3 -13q-66 -3 -91 -15t-32 -38l-26 -96h103zM294 372h312l37 139h-312z" />
    <glyph glyph-name="hbar" unicode="&#x127;" horiz-adv-x="539" 
d="M485 307l-68 -211q-10 -32 -10 -45q0 -21 19.5 -26.5t70.5 -1.5v-10q-51 -21 -101 -21q-87 0 -87 62q0 21 9 48l65 201q11 36 11 58q0 49 -52 49q-57 0 -134 -67l-85 -343h-108l47 162l104 411h-70l6 20h69l13 51q7 25 -11.5 36.5t-72.5 14.5v12l211 10l-35 -124h132
l-6 -20h-131l-58 -207l2 -2q45 47 95 74.5t92 27.5q45 0 69.5 -24t24.5 -68q0 -33 -11 -67z" />
    <glyph glyph-name="Imacron" unicode="&#x12a;" horiz-adv-x="423" 
d="M501 684q-68 -3 -94 -14.5t-33 -38.5l-151 -563q-8 -31 11.5 -41t89.5 -14l-3 -13h-345l3 13q69 4 94 15t33 39l151 563q7 28 -12.5 39.5t-87.5 14.5l3 13h344zM222 798l11 43h268l-11 -43h-268z" />
    <glyph glyph-name="imacron" unicode="&#x12b;" horiz-adv-x="300" 
d="M250 27v-10q-59 -25 -116 -25q-86 0 -86 68q0 18 8 47l88 284q7 24 -11.5 36t-66.5 15v12l203 9l-110 -358q-9 -27 -9 -44q0 -23 21.5 -30t78.5 -4zM86 558l11 43h268l-11 -43h-268z" />
    <glyph glyph-name="Ibreve" unicode="&#x12c;" horiz-adv-x="423" 
d="M501 684q-68 -3 -94 -14.5t-33 -38.5l-151 -563q-8 -31 11.5 -41t89.5 -14l-3 -13h-345l3 13q69 4 94 15t33 39l151 563q7 28 -12.5 39.5t-87.5 14.5l3 13h344zM348 773q-59 0 -86 41.5t-12 117.5h16q6 -90 96 -90q48 0 80.5 22t59.5 68h20q-52 -159 -174 -159z" />
    <glyph glyph-name="ibreve" unicode="&#x12d;" horiz-adv-x="300" 
d="M250 27v-10q-59 -25 -116 -25q-86 0 -86 68q0 18 8 47l88 284q7 24 -11.5 36t-66.5 15v12l203 9l-110 -358q-9 -27 -9 -44q0 -23 21.5 -30t78.5 -4zM219 533q-59 0 -86 41.5t-12 117.5h16q6 -90 96 -90q48 0 80.5 22t59.5 68h20q-52 -159 -174 -159z" />
    <glyph glyph-name="Iogonek" unicode="&#x12e;" horiz-adv-x="423" 
d="M64 -244q-40 0 -65 21.5t-25 55.5q0 47 38.5 78t115.5 66l49 23h-201l3 13q69 4 94 15t33 39l151 563q7 28 -12.5 39.5t-87.5 14.5l3 13h344l-3 -13q-68 -3 -94 -14.5t-33 -38.5l-151 -563q-8 -31 11.5 -41t89.5 -14l-3 -13h-120l-44 -27q-102 -62 -102 -129
q0 -27 15 -41.5t39 -14.5q25 0 65 15l4 -12q-60 -35 -114 -35z" />
    <glyph glyph-name="iogonek" unicode="&#x12f;" horiz-adv-x="298" 
d="M68 -244q-40 0 -64.5 21.5t-24.5 55.5q0 48 38.5 79.5t115.5 64.5l43 20q-23 -5 -42 -5q-86 0 -86 68q0 18 8 47l88 284q7 24 -11.5 36t-66.5 15v12l203 9l-110 -358q-9 -27 -9 -44q0 -23 21.5 -30t78.5 -4v-10q-28 -10 -76 -38q-115 -63 -115 -135q0 -27 15 -41.5
t39 -14.5q25 0 65 15l4 -12q-59 -35 -114 -35zM246 560q-21 0 -35.5 14.5t-14.5 39.5q0 35 22 60.5t53 25.5q21 0 35 -13.5t14 -38.5q0 -35 -22 -61.5t-52 -26.5z" />
    <glyph glyph-name="Idotaccent" unicode="&#x130;" horiz-adv-x="423" 
d="M501 684q-68 -3 -94 -14.5t-33 -38.5l-151 -563q-8 -31 11.5 -41t89.5 -14l-3 -13h-345l3 13q69 4 94 15t33 39l151 563q7 28 -12.5 39.5t-87.5 14.5l3 13h344zM359 773q-21 0 -35.5 14.5t-14.5 39.5q0 35 22 60.5t53 25.5q21 0 35.5 -13.5t14.5 -38.5q0 -35 -22.5 -61.5
t-52.5 -26.5z" />
    <glyph glyph-name="dotlessi" unicode="&#x131;" horiz-adv-x="300" 
d="M250 27v-10q-59 -25 -116 -25q-86 0 -86 68q0 18 8 47l88 284q7 24 -11.5 36t-66.5 15v12l203 9l-110 -358q-9 -27 -9 -44q0 -23 21.5 -30t78.5 -4z" />
    <glyph glyph-name="Kcommaaccent" unicode="&#x136;" horiz-adv-x="773" 
d="M194 -287l-4 11q97 46 115 100l-3 2q-26 -2 -42.5 13.5t-16.5 40.5t17.5 42.5t42.5 17.5q27 0 44 -19.5t17 -47.5q0 -95 -170 -160zM849 697l-3 -13q-65 -13 -107 -36t-126 -92l-159 -130l141 -311q27 -60 47 -77t75 -25l-3 -13h-320l3 13q66 6 80.5 23t-6.5 64l-108 251
l-96 -78l-55 -205q-7 -28 10 -39.5t72 -15.5l-3 -13h-321l3 13q68 4 91.5 15t31.5 39l150 563q7 26 -10.5 38.5t-82.5 15.5l3 13h324l-3 -13q-64 -4 -85.5 -16t-28.5 -39l-87 -324l318 262q34 28 43.5 53t-7 42t-57.5 22l3 13h273z" />
    <glyph glyph-name="kcommaaccent" unicode="&#x137;" horiz-adv-x="506" 
d="M70 -287l-4 11q97 46 115 100l-3 2q-26 -2 -42.5 13.5t-16.5 40.5t17.5 42.5t42.5 17.5q27 0 44 -19.5t17 -47.5q0 -95 -170 -160zM311 717l-122 -446h27q33 0 61 31t46.5 67.5t49 67.5t67.5 31q31 0 48.5 -18t17.5 -43q0 -31 -15 -48.5t-41 -17.5q-25 0 -40.5 13
t-15.5 36q0 18 11 34q-20 -4 -43 -37.5l-49.5 -70.5t-52.5 -47v-3q81 -4 111 -29.5t30 -74.5q0 -13 -3.5 -54t-3.5 -58q0 -20 15 -27.5t65 -6.5v-10q-34 -14 -97 -14q-53 0 -70 16.5t-17 52.5q0 21 4 59t4 48q0 51 -16 69.5t-57 18.5h-39l-63 -256h-108l47 162l122 482
q7 25 -11.5 36.5t-72.5 14.5v12z" />
    <glyph glyph-name="Lacute" unicode="&#x139;" horiz-adv-x="640" 
d="M328 768l85 128q32 51 47 67t38 16q16 0 28.5 -12t12.5 -27q0 -19 -17 -36.5t-69 -54.5l-113 -81h-12zM363 629l-163 -608h124q36 0 63.5 8t48.5 19.5t48.5 43.5t48 60t61.5 89h19l-71 -241h-572l3 13q68 4 91.5 15t31.5 39l150 563q7 26 -10.5 38.5t-82.5 15.5l3 13h326
l-3 -13q-45 -2 -69.5 -9.5t-33.5 -17.5t-13 -28z" />
    <glyph glyph-name="lacute" unicode="&#x13a;" horiz-adv-x="288" 
d="M248 767l85 128q32 51 47 67t38 16q16 0 28.5 -12t12.5 -27q0 -19 -17 -36.5t-69 -54.5l-113 -81h-12zM325 717l-178 -611q-7 -28 -7 -42q0 -24 22.5 -32t80.5 -4v-10q-59 -25 -120 -25q-86 0 -86 68q0 19 8 46l106 351l49 186q6 25 -12 36.5t-72 14.5v12z" />
    <glyph glyph-name="Lcommaaccent" unicode="&#x13b;" horiz-adv-x="640" 
d="M155 -287l-4 11q97 46 115 100l-3 2q-26 -2 -42.5 13.5t-16.5 40.5t17.5 42.5t42.5 17.5q27 0 44 -19.5t17 -47.5q0 -95 -170 -160zM363 629l-163 -608h124q36 0 63.5 8t48.5 19.5t48.5 43.5t48 60t61.5 89h19l-71 -241h-572l3 13q68 4 91.5 15t31.5 39l150 563
q7 26 -10.5 38.5t-82.5 15.5l3 13h326l-3 -13q-45 -2 -69.5 -9.5t-33.5 -17.5t-13 -28z" />
    <glyph glyph-name="lcommaaccent" unicode="&#x13c;" horiz-adv-x="288" 
d="M-47 -287l-4 11q97 46 115 100l-3 2q-26 -2 -42.5 13.5t-16.5 40.5t17.5 42.5t42.5 17.5q27 0 44 -19.5t17 -47.5q0 -95 -170 -160zM325 717l-178 -611q-7 -28 -7 -42q0 -24 22.5 -32t80.5 -4v-10q-59 -25 -120 -25q-86 0 -86 68q0 19 8 46l106 351l49 186q6 25 -12 36.5
t-72 14.5v12z" />
    <glyph glyph-name="Lcaron" unicode="&#x13d;" horiz-adv-x="640" 
d="M499 509l40 163q9 37 21 52.5t33 15.5q16 0 27 -10.5t11 -25.5q0 -21 -29 -64l-90 -131h-13zM363 629l-163 -608h124q36 0 63.5 8t48.5 19.5t48.5 43.5t48 60t61.5 89h19l-71 -241h-572l3 13q68 4 91.5 15t31.5 39l150 563q7 26 -10.5 38.5t-82.5 15.5l3 13h326l-3 -13
q-45 -2 -69.5 -9.5t-33.5 -17.5t-13 -28z" />
    <glyph glyph-name="lcaron" unicode="&#x13e;" horiz-adv-x="288" 
d="M363 529l40 163q9 37 21 52.5t33 15.5q16 0 27 -10.5t11 -25.5q0 -21 -29 -64l-90 -131h-13zM325 717l-178 -611q-7 -28 -7 -42q0 -24 22.5 -32t80.5 -4v-10q-59 -25 -120 -25q-86 0 -86 68q0 19 8 46l106 351l49 186q6 25 -12 36.5t-72 14.5v12z" />
    <glyph glyph-name="Ldot" unicode="&#x13f;" horiz-adv-x="640" 
d="M-30 0l3 13q68 4 91.5 15t31.5 39l150 563q7 26 -10.5 38.5t-82.5 15.5l3 13h326l-3 -13q-45 -2 -69.5 -9.5t-33.5 -17.5t-13 -28l-163 -608h124q36 0 63.5 8t48.5 19t48 42t47.5 58.5l61.5 86.5h18l-69 -235h-572zM499 298q-21 0 -35.5 14.5t-14.5 39.5q0 35 22 60.5
t53 25.5q21 0 35.5 -13.5t14.5 -38.5q0 -35 -22.5 -61.5t-52.5 -26.5z" />
    <glyph glyph-name="ldot" unicode="&#x140;" horiz-adv-x="359" 
d="M331 258q-21 0 -35.5 14t-14.5 40q0 34 22.5 60t52.5 26q21 0 35 -14t14 -39q0 -34 -22 -60.5t-52 -26.5zM325 717l-178 -611q-7 -28 -7 -42q0 -24 22.5 -32t80.5 -4v-10q-59 -25 -120 -25q-86 0 -86 68q0 19 8 46l106 351l49 186q6 25 -12 36.5t-72 14.5v12z" />
    <glyph glyph-name="Lslash" unicode="&#x141;" horiz-adv-x="640" 
d="M363 629l-68 -253l152 39v-26l-160 -41l-87 -327h124q36 0 63.5 8t48.5 19.5t48.5 43.5t48 60t61.5 89h19l-71 -241h-572l3 13q68 4 91.5 15t31.5 39l66 249l-104 -27v27l112 28l76 286q7 26 -10.5 38.5t-82.5 15.5l3 13h326l-3 -13q-45 -2 -69.5 -9.5t-33.5 -17.5
t-13 -28z" />
    <glyph glyph-name="lslash" unicode="&#x142;" horiz-adv-x="320" 
d="M340 717l-99 -340l101 25v-24l-109 -27l-71 -245q-7 -28 -7 -42q0 -24 22.5 -32t80.5 -4v-10q-59 -25 -120 -25q-86 0 -86 68q0 19 8 46l65 217l-90 -22v24l98 24l33 108l49 186q6 25 -12 36.5t-72 14.5v12z" />
    <glyph glyph-name="Nacute" unicode="&#x143;" horiz-adv-x="803" 
d="M499 761l85 128q32 51 47 67t38 16q16 0 28.5 -12t12.5 -27q0 -19 -17 -36.5t-69 -54.5l-113 -81h-12zM346 697l278 -554h1l107 403q19 74 0.5 101.5t-91.5 36.5l3 13h264l-3 -13q-71 -11 -99.5 -38.5t-47.5 -99.5l-149 -561h-35l-306 610h-1l-118 -443
q-20 -73 -2.5 -101.5t90.5 -37.5l-3 -13h-268l3 13q71 10 102.5 39.5t49.5 99.5l117 437q9 36 -12 64t-78 31l3 13h195z" />
    <glyph glyph-name="nacute" unicode="&#x144;" horiz-adv-x="543" 
d="M314 528l85 128q32 51 47 67t38 16q16 0 28.5 -12t12.5 -27q0 -19 -17 -36.5t-69 -54.5l-113 -81h-12zM66 162l62 229q7 25 -5.5 36.5t-57.5 14.5v12l181 9l-30 -97l2 -2q46 47 96 74.5t91 27.5q46 0 70.5 -24t24.5 -68q0 -33 -11 -67l-68 -211q-10 -32 -10 -45
q0 -21 19.5 -26.5t70.5 -1.5v-10q-51 -21 -101 -21q-87 0 -87 62q0 21 9 48l65 201q11 36 11 58q0 49 -53 49q-56 0 -133 -67l-85 -343h-109z" />
    <glyph glyph-name="Ncommaaccent" unicode="&#x145;" horiz-adv-x="803" 
d="M233 -287l-4 11q97 46 115 100l-3 2q-26 -2 -42.5 13.5t-16.5 40.5t17.5 42.5t42.5 17.5q27 0 44 -19.5t17 -47.5q0 -95 -170 -160zM346 697l278 -554h1l107 403q19 74 0.5 101.5t-91.5 36.5l3 13h264l-3 -13q-71 -11 -99.5 -38.5t-47.5 -99.5l-149 -561h-35l-306 610h-1
l-118 -443q-20 -73 -2.5 -101.5t90.5 -37.5l-3 -13h-268l3 13q71 10 102.5 39.5t49.5 99.5l117 437q9 36 -12 64t-78 31l3 13h195z" />
    <glyph glyph-name="ncommaaccent" unicode="&#x146;" horiz-adv-x="543" 
d="M88 -287l-4 11q97 46 115 100l-3 2q-26 -2 -42.5 13.5t-16.5 40.5t17.5 42.5t42.5 17.5q27 0 44 -19.5t17 -47.5q0 -95 -170 -160zM66 162l62 229q7 25 -5.5 36.5t-57.5 14.5v12l181 9l-30 -97l2 -2q46 47 96 74.5t91 27.5q46 0 70.5 -24t24.5 -68q0 -33 -11 -67
l-68 -211q-10 -32 -10 -45q0 -21 19.5 -26.5t70.5 -1.5v-10q-51 -21 -101 -21q-87 0 -87 62q0 21 9 48l65 201q11 36 11 58q0 49 -53 49q-56 0 -133 -67l-85 -343h-109z" />
    <glyph glyph-name="Ncaron" unicode="&#x147;" horiz-adv-x="803" 
d="M526 761l-77 196h17l94 -93l143 93h21l-185 -196h-13zM346 697l278 -554h1l107 403q19 74 0.5 101.5t-91.5 36.5l3 13h264l-3 -13q-71 -11 -99.5 -38.5t-47.5 -99.5l-149 -561h-35l-306 610h-1l-118 -443q-20 -73 -2.5 -101.5t90.5 -37.5l-3 -13h-268l3 13
q71 10 102.5 39.5t49.5 99.5l117 437q9 36 -12 64t-78 31l3 13h195z" />
    <glyph glyph-name="ncaron" unicode="&#x148;" horiz-adv-x="543" 
d="M342 528l-77 196h17l94 -93l143 93h21l-185 -196h-13zM66 162l62 229q7 25 -5.5 36.5t-57.5 14.5v12l181 9l-30 -97l2 -2q46 47 96 74.5t91 27.5q46 0 70.5 -24t24.5 -68q0 -33 -11 -67l-68 -211q-10 -32 -10 -45q0 -21 19.5 -26.5t70.5 -1.5v-10q-51 -21 -101 -21
q-87 0 -87 62q0 21 9 48l65 201q11 36 11 58q0 49 -53 49q-56 0 -133 -67l-85 -343h-109z" />
    <glyph glyph-name="Omacron" unicode="&#x14c;" 
d="M390 798l11 43h268l-11 -43h-268zM339 -17q-121 0 -200.5 79.5t-79.5 209.5q0 79 31.5 158t85 142t133.5 102.5t170 39.5q122 0 201 -79.5t79 -208.5q0 -107 -52 -208t-150.5 -168t-217.5 -67zM334 2q85 0 157.5 77.5t110.5 187.5t38 218q0 98 -39 154t-116 56
q-86 0 -158 -77.5t-110 -187.5t-38 -218q0 -99 38.5 -154.5t116.5 -55.5z" />
    <glyph glyph-name="omacron" unicode="&#x14d;" horiz-adv-x="502" 
d="M192 558l11 43h268l-11 -43h-268zM296 468q80 0 129 -52.5t49 -139.5q0 -69 -31 -133t-93.5 -108t-142.5 -44t-129.5 52.5t-49.5 139.5q0 109 74 197t194 88zM206 11q39 0 72.5 35t53.5 87t31.5 105t11.5 95q0 116 -79 116q-39 0 -72.5 -35.5t-53.5 -87t-31.5 -105
t-11.5 -95.5q0 -115 79 -115z" />
    <glyph glyph-name="Obreve" unicode="&#x14e;" 
d="M339 -17q-121 0 -200.5 79.5t-79.5 209.5q0 79 31.5 158t85 142t133.5 102.5t170 39.5q122 0 201 -79.5t79 -208.5q0 -107 -52 -208t-150.5 -168t-217.5 -67zM334 2q85 0 157.5 77.5t110.5 187.5t38 218q0 98 -39 154t-116 56q-86 0 -158 -77.5t-110 -187.5t-38 -218
q0 -99 38.5 -154.5t116.5 -55.5zM517 773q-59 0 -86 41.5t-12 117.5h16q6 -90 96 -90q48 0 80.5 22t59.5 68h20q-52 -159 -174 -159z" />
    <glyph glyph-name="obreve" unicode="&#x14f;" horiz-adv-x="502" 
d="M296 468q80 0 129 -52.5t49 -139.5q0 -69 -31 -133t-93.5 -108t-142.5 -44t-129.5 52.5t-49.5 139.5q0 109 74 197t194 88zM206 11q39 0 72.5 35t53.5 87t31.5 105t11.5 95q0 116 -79 116q-39 0 -72.5 -35.5t-53.5 -87t-31.5 -105t-11.5 -95.5q0 -115 79 -115zM333 533
q-59 0 -86 41.5t-12 117.5h16q6 -90 96 -90q48 0 80.5 22t59.5 68h20q-52 -159 -174 -159z" />
    <glyph glyph-name="Ohungarumlaut" unicode="&#x150;" 
d="M410 768l89 128q34 51 49.5 67t37.5 16q17 0 28.5 -11.5t11.5 -26.5q0 -19 -17.5 -36t-71.5 -56l-115 -81h-12zM580 768l89 128q34 51 49.5 67t37.5 16q17 0 28.5 -11.5t11.5 -26.5q0 -19 -17.5 -36t-71.5 -56l-115 -81h-12zM339 -17q-121 0 -200.5 79.5t-79.5 209.5
q0 79 31.5 158t85 142t133.5 102.5t170 39.5q122 0 201 -79.5t79 -208.5q0 -107 -52 -208t-150.5 -168t-217.5 -67zM334 2q85 0 157.5 77.5t110.5 187.5t38 218q0 98 -39 154t-116 56q-86 0 -158 -77.5t-110 -187.5t-38 -218q0 -99 38.5 -154.5t116.5 -55.5z" />
    <glyph glyph-name="ohungarumlaut" unicode="&#x151;" horiz-adv-x="502" 
d="M218 528l89 128q34 51 49.5 67t37.5 16q17 0 28.5 -11.5t11.5 -26.5q0 -19 -17.5 -36t-71.5 -56l-115 -81h-12zM388 528l89 128q34 51 49.5 67t37.5 16q17 0 28.5 -11.5t11.5 -26.5q0 -19 -17.5 -36t-71.5 -56l-115 -81h-12zM296 468q80 0 129 -52.5t49 -139.5
q0 -69 -31 -133t-93.5 -108t-142.5 -44t-129.5 52.5t-49.5 139.5q0 109 74 197t194 88zM206 11q39 0 72.5 35t53.5 87t31.5 105t11.5 95q0 116 -79 116q-39 0 -72.5 -35.5t-53.5 -87t-31.5 -105t-11.5 -95.5q0 -115 79 -115z" />
    <glyph glyph-name="OE" unicode="&#x152;" horiz-adv-x="1053" 
d="M943 0h-527q-171 0 -262 80t-91 213q0 75 30.5 146.5t86.5 127.5q132 130 331 130h582l-53 -213h-16q-7 37 -11 55t-11 43.5t-14 36.5t-18 25t-25 19t-33 9t-45 4h-126l-79 -298h62q57 0 83 20.5t79 99.5h15l-70 -270h-15q-5 34 -7.5 48.5t-7.5 33.5t-10 25t-15.5 13
t-23.5 8.5t-33 1.5h-63l-90 -337h147q52 0 89 11t70 40.5t57 61.5t64 95h17zM625 677h-116q-108 0 -192 -82q-63 -63 -97.5 -163t-34.5 -197q0 -215 214 -215h50z" />
    <glyph glyph-name="oe" unicode="&#x153;" horiz-adv-x="779" 
d="M642 468q66 0 101 -28.5t35 -74.5q0 -63 -79.5 -103.5t-231.5 -37.5q-5 -24 -5 -56q0 -71 25 -104.5t83 -33.5q39 0 78.5 22.5t69.5 61.5l13 -11q-83 -112 -200 -112q-103 0 -142 80q-73 -80 -182 -80q-80 0 -129 52.5t-49 139.5q0 109 74 197t193 88q109 0 150 -94
q82 94 196 94zM206 11q39 0 72.5 35t54 87t31.5 105t11 95q0 116 -79 116q-39 0 -72.5 -35.5t-53.5 -87t-31.5 -105t-11.5 -95.5q0 -115 79 -115zM636 447q-51 0 -99.5 -62t-66.5 -145q217 4 217 151q0 56 -51 56z" />
    <glyph glyph-name="Racute" unicode="&#x154;" horiz-adv-x="704" 
d="M435 768l85 128q32 51 47 67t38 16q16 0 28.5 -12t12.5 -27q0 -19 -17 -36.5t-69 -54.5l-113 -81h-12zM290 360h64q74 0 124.5 32t70.5 76.5t20 96.5q0 57 -31 84.5t-103 27.5h-60zM153 684l3 13h272q261 0 261 -149q0 -75 -63 -127t-194 -69l-1 -3q100 -9 134 -46
t27 -117l-4 -74q-5 -62 11 -82t78 -22l-3 -13q-30 -2 -61 -2q-74 0 -107.5 13t-39.5 41.5t1 75.5l10 83q9 73 -15.5 103t-105.5 30h-71l-73 -271q-7 -28 11 -39.5t79 -15.5l-3 -13h-329l3 13q68 4 91.5 15t31.5 39l150 563q7 26 -10.5 38.5t-82.5 15.5z" />
    <glyph glyph-name="racute" unicode="&#x155;" horiz-adv-x="423" 
d="M250 528l85 128q32 51 47 67t38 16q16 0 28.5 -12t12.5 -27q0 -19 -17 -36.5t-69 -54.5l-113 -81h-12zM372 467q35 0 54.5 -19.5t19.5 -48.5q0 -34 -18 -55t-46 -21q-27 0 -43 13.5t-16 39.5t13 40q-54 -3 -129 -91l-80 -325h-109l48 162l62 229q7 25 -5.5 36.5
t-57.5 14.5v12l181 9l-33 -108l2 -2q82 114 157 114z" />
    <glyph glyph-name="Rcommaaccent" unicode="&#x156;" horiz-adv-x="704" 
d="M209 -287l-4 11q97 46 115 100l-3 2q-26 -2 -42.5 13.5t-16.5 40.5t17.5 42.5t42.5 17.5q27 0 44 -19.5t17 -47.5q0 -95 -170 -160zM290 360h64q74 0 124.5 32t70.5 76.5t20 96.5q0 57 -31 84.5t-103 27.5h-60zM153 684l3 13h272q261 0 261 -149q0 -75 -63 -127t-194 -69
l-1 -3q100 -9 134 -46t27 -117l-4 -74q-5 -62 11 -82t78 -22l-3 -13q-30 -2 -61 -2q-74 0 -107.5 13t-39.5 41.5t1 75.5l10 83q9 73 -15.5 103t-105.5 30h-71l-73 -271q-7 -28 11 -39.5t79 -15.5l-3 -13h-329l3 13q68 4 91.5 15t31.5 39l150 563q7 26 -10.5 38.5t-82.5 15.5
z" />
    <glyph glyph-name="rcommaaccent" unicode="&#x157;" horiz-adv-x="423" 
d="M-64 -287l-4 11q97 46 115 100l-3 2q-26 -2 -42.5 13.5t-16.5 40.5t17.5 42.5t42.5 17.5q27 0 44 -19.5t17 -47.5q0 -95 -170 -160zM372 467q35 0 54.5 -19.5t19.5 -48.5q0 -34 -18 -55t-46 -21q-27 0 -43 13.5t-16 39.5t13 40q-54 -3 -129 -91l-80 -325h-109l48 162
l62 229q7 25 -5.5 36.5t-57.5 14.5v12l181 9l-33 -108l2 -2q82 114 157 114z" />
    <glyph glyph-name="Rcaron" unicode="&#x158;" horiz-adv-x="704" 
d="M466 768l-77 196h17l94 -93l143 93h21l-185 -196h-13zM290 360h64q74 0 124.5 32t70.5 76.5t20 96.5q0 57 -31 84.5t-103 27.5h-60zM153 684l3 13h272q261 0 261 -149q0 -75 -63 -127t-194 -69l-1 -3q100 -9 134 -46t27 -117l-4 -74q-5 -62 11 -82t78 -22l-3 -13
q-30 -2 -61 -2q-74 0 -107.5 13t-39.5 41.5t1 75.5l10 83q9 73 -15.5 103t-105.5 30h-71l-73 -271q-7 -28 11 -39.5t79 -15.5l-3 -13h-329l3 13q68 4 91.5 15t31.5 39l150 563q7 26 -10.5 38.5t-82.5 15.5z" />
    <glyph glyph-name="rcaron" unicode="&#x159;" horiz-adv-x="423" 
d="M273 528l-77 196h17l94 -93l143 93h21l-185 -196h-13zM372 467q35 0 54.5 -19.5t19.5 -48.5q0 -34 -18 -55t-46 -21q-27 0 -43 13.5t-16 39.5t13 40q-54 -3 -129 -91l-80 -325h-109l48 162l62 229q7 25 -5.5 36.5t-57.5 14.5v12l181 9l-33 -108l2 -2q82 114 157 114z" />
    <glyph glyph-name="Sacute" unicode="&#x15a;" horiz-adv-x="563" 
d="M376 768l85 128q32 51 47 67t38 16q16 0 28.5 -12t12.5 -27q0 -19 -17 -36.5t-69 -54.5l-113 -81h-12zM-9 -17l64 242h15q40 -125 85 -173t118 -48q69 0 111.5 40.5t42.5 100.5q0 52 -34 91t-111 77q-79 40 -115 76.5t-36 99.5q0 89 72 155.5t181 66.5q80 0 160 -43
l58 49h16l-55 -223h-17q-38 117 -78 157.5t-102 40.5q-59 0 -98.5 -39t-39.5 -97q0 -22 8 -40.5t18 -31.5t32.5 -28.5t37.5 -23.5l46 -25q74 -39 111.5 -80t37.5 -103q0 -98 -68 -168t-194 -70q-50 0 -104.5 14.5t-89.5 34.5l-56 -52h-16z" />
    <glyph glyph-name="sacute" unicode="&#x15b;" horiz-adv-x="407" 
d="M230 528l85 128q32 51 47 67t38 16q16 0 28.5 -12t12.5 -27q0 -19 -17 -36.5t-69 -54.5l-113 -81h-12zM161 -9q-64 0 -109 24t-45 64q0 27 16.5 45.5t42.5 18.5q23 0 38 -14.5t15 -37.5q0 -29 -28 -51q9 -12 34.5 -21t50.5 -9q46 0 74.5 24.5t28.5 62.5q0 18 -6.5 31.5
t-23.5 26t-28 19t-37 19.5q-53 25 -81 52.5t-28 71.5q0 65 48.5 108t133.5 43q62 0 101.5 -25.5t39.5 -62.5q0 -26 -14.5 -43t-42.5 -17q-22 0 -37 15t-15 35q0 32 29 52q-7 12 -29 19.5t-44 7.5q-42 0 -67.5 -23.5t-25.5 -59.5q0 -22 15.5 -41t30.5 -28t48 -26
q55 -27 82.5 -55t27.5 -72q0 -64 -48.5 -108.5t-146.5 -44.5z" />
    <glyph glyph-name="Scedilla" unicode="&#x15e;" horiz-adv-x="563" 
d="M176 -249q-51 0 -94 26l9 15q40 -21 76 -21q31 0 49.5 17t18.5 43t-20.5 40t-54.5 14q-17 0 -32 -4l-3 10l123 95q-106 3 -185 49l-56 -52h-16l64 242h15q40 -125 85 -173t118 -48q69 0 111.5 40.5t42.5 100.5q0 52 -34 91t-111 77q-79 40 -115 76.5t-36 99.5
q0 89 72 155.5t181 66.5q80 0 160 -43l58 49h16l-55 -223h-17q-38 117 -78 157.5t-102 40.5q-59 0 -98.5 -39t-39.5 -97q0 -22 8 -40.5t18 -31.5t32.5 -28.5t37.5 -23.5l46 -25q74 -39 111.5 -80t37.5 -103q0 -93 -63 -162t-181 -75l-74 -58l1 -3q105 -6 105 -79
q0 -41 -38 -68.5t-93 -27.5z" />
    <glyph glyph-name="scedilla" unicode="&#x15f;" horiz-adv-x="407" 
d="M103 -249q-51 0 -94 26l9 15q40 -21 76 -21q31 0 49.5 17t18.5 43t-20.5 40t-54.5 14q-17 0 -32 -4l-3 10l130 101q-7 -1 -21 -1q-64 0 -109 24t-45 64q0 27 16.5 45.5t42.5 18.5q23 0 38 -14.5t15 -37.5q0 -29 -28 -51q9 -12 34.5 -21t50.5 -9q46 0 74.5 24.5t28.5 62.5
q0 18 -6.5 31.5t-23.5 26t-28 19t-37 19.5q-53 25 -81 52.5t-28 71.5q0 65 48.5 108t133.5 43q62 0 101.5 -25.5t39.5 -62.5q0 -26 -14.5 -43t-42.5 -17q-22 0 -37 15t-15 35q0 32 29 52q-7 12 -29 19.5t-44 7.5q-42 0 -67.5 -23.5t-25.5 -59.5q0 -22 15.5 -41t30.5 -28
t48 -26q55 -27 82.5 -55t27.5 -72q0 -54 -35.5 -96t-107.5 -53l-85 -66l1 -3q105 -6 105 -79q0 -41 -38 -68.5t-93 -27.5z" />
    <glyph glyph-name="Scaron" unicode="&#x160;" horiz-adv-x="563" 
d="M426 768l-77 196h17l94 -93l143 93h21l-185 -196h-13zM-9 -17l64 242h15q40 -125 85 -173t118 -48q69 0 111.5 40.5t42.5 100.5q0 52 -34 91t-111 77q-79 40 -115 76.5t-36 99.5q0 89 72 155.5t181 66.5q80 0 160 -43l58 49h16l-55 -223h-17q-38 117 -78 157.5t-102 40.5
q-59 0 -98.5 -39t-39.5 -97q0 -22 8 -40.5t18 -31.5t32.5 -28.5t37.5 -23.5l46 -25q74 -39 111.5 -80t37.5 -103q0 -98 -68 -168t-194 -70q-50 0 -104.5 14.5t-89.5 34.5l-56 -52h-16z" />
    <glyph glyph-name="scaron" unicode="&#x161;" horiz-adv-x="407" 
d="M273 528l-77 196h17l94 -93l143 93h21l-185 -196h-13zM161 -9q-64 0 -109 24t-45 64q0 27 16.5 45.5t42.5 18.5q23 0 38 -14.5t15 -37.5q0 -29 -28 -51q9 -12 34.5 -21t50.5 -9q46 0 74.5 24.5t28.5 62.5q0 18 -6.5 31.5t-23.5 26t-28 19t-37 19.5q-53 25 -81 52.5
t-28 71.5q0 65 48.5 108t133.5 43q62 0 101.5 -25.5t39.5 -62.5q0 -26 -14.5 -43t-42.5 -17q-22 0 -37 15t-15 35q0 32 29 52q-7 12 -29 19.5t-44 7.5q-42 0 -67.5 -23.5t-25.5 -59.5q0 -22 15.5 -41t30.5 -28t48 -26q55 -27 82.5 -55t27.5 -72q0 -64 -48.5 -108.5
t-146.5 -44.5z" />
    <glyph glyph-name="Tcommaaccent" unicode="&#x162;" horiz-adv-x="693" 
d="M143 -287l-4 11q97 46 115 100l-3 2q-26 -2 -42.5 13.5t-16.5 40.5t17.5 42.5t42.5 17.5q27 0 44 -19.5t17 -47.5q0 -95 -170 -160zM241 67l163 610h-37q-66 0 -112.5 -39.5t-138.5 -169.5h-19l69 229h606l-57 -229h-16l-14.5 66t-12.5 49.5t-14 39.5t-15.5 24.5
t-21 18.5t-26 7.5t-35.5 3.5h-40l-162 -609q-8 -31 12 -41t94 -14l-3 -13h-356l3 13q73 4 99 15t34 39z" />
    <glyph glyph-name="tcommaaccent" unicode="&#x163;" horiz-adv-x="338" 
d="M-19 -287l-4 11q97 46 115 100l-3 2q-26 -2 -42.5 13.5t-16.5 40.5t17.5 42.5t42.5 17.5q27 0 44 -19.5t17 -47.5q0 -95 -170 -160zM376 436h-124l-84 -301q-9 -32 -9 -52q0 -46 55 -46q38 0 89 14v-10q-84 -50 -149 -50q-100 0 -100 83q0 26 9 57l89 305h-89l7 22h88
l43 148l109 16l-52 -164h125z" />
    <glyph glyph-name="Tcaron" unicode="&#x164;" horiz-adv-x="693" 
d="M477 768l-77 196h17l94 -93l143 93h21l-185 -196h-13zM241 67l163 610h-37q-66 0 -112.5 -39.5t-138.5 -169.5h-19l69 229h606l-57 -229h-16l-14.5 66t-12.5 49.5t-14 39.5t-15.5 24.5t-21 18.5t-26 7.5t-35.5 3.5h-40l-162 -609q-8 -31 12 -41t94 -14l-3 -13h-356l3 13
q73 4 99 15t34 39z" />
    <glyph glyph-name="tcaron" unicode="&#x165;" horiz-adv-x="338" 
d="M367 529l40 163q9 37 21 52.5t33 15.5q16 0 27 -10.5t11 -25.5q0 -21 -29 -64l-90 -131h-13zM376 436h-124l-84 -301q-9 -32 -9 -52q0 -46 55 -46q38 0 89 14v-10q-84 -50 -149 -50q-100 0 -100 83q0 26 9 57l89 305h-89l7 22h88l43 148l109 16l-52 -164h125z" />
    <glyph glyph-name="Umacron" unicode="&#x16a;" horiz-adv-x="787" 
d="M342 629l-99 -372q-14 -51 -14 -91q0 -72 39.5 -110.5t117.5 -38.5q95 0 154 49.5t90 165.5l84 317q18 69 -1 97.5t-91 37.5l3 13h264l-3 -13q-71 -11 -98 -37t-46 -98l-91 -343q-29 -109 -98.5 -166t-205.5 -57q-113 0 -172.5 53.5t-59.5 143.5q0 38 12 83l98 367
q7 26 -10.5 38.5t-82.5 15.5l3 13h324l-3 -13q-64 -4 -85.5 -16t-28.5 -39zM418 798l11 43h268l-11 -43h-268z" />
    <glyph glyph-name="umacron" unicode="&#x16b;" horiz-adv-x="556" 
d="M56 150l77 239q9 26 -5 38t-59 15v12l186 9l-97 -309q-10 -30 -10 -54q0 -50 60 -50q52 0 123 66l56 187l41 158h107l-109 -360q-10 -33 -10 -47q0 -22 19.5 -28.5t68.5 -2.5v-10q-53 -22 -103 -22q-82 0 -82 58q0 15 8 41l-2 2q-92 -101 -179 -101q-51 0 -76.5 25.5
t-25.5 69.5q0 30 12 64zM223 558l11 43h268l-11 -43h-268z" />
    <glyph glyph-name="Ubreve" unicode="&#x16c;" horiz-adv-x="787" 
d="M342 629l-99 -372q-14 -51 -14 -91q0 -72 39.5 -110.5t117.5 -38.5q95 0 154 49.5t90 165.5l84 317q18 69 -1 97.5t-91 37.5l3 13h264l-3 -13q-71 -11 -98 -37t-46 -98l-91 -343q-29 -109 -98.5 -166t-205.5 -57q-113 0 -172.5 53.5t-59.5 143.5q0 38 12 83l98 367
q7 26 -10.5 38.5t-82.5 15.5l3 13h324l-3 -13q-64 -4 -85.5 -16t-28.5 -39zM544 773q-59 0 -86 41.5t-12 117.5h16q6 -90 96 -90q48 0 80.5 22t59.5 68h20q-52 -159 -174 -159z" />
    <glyph glyph-name="ubreve" unicode="&#x16d;" horiz-adv-x="556" 
d="M56 150l77 239q9 26 -5 38t-59 15v12l186 9l-97 -309q-10 -30 -10 -54q0 -50 60 -50q52 0 123 66l56 187l41 158h107l-109 -360q-10 -33 -10 -47q0 -22 19.5 -28.5t68.5 -2.5v-10q-53 -22 -103 -22q-82 0 -82 58q0 15 8 41l-2 2q-92 -101 -179 -101q-51 0 -76.5 25.5
t-25.5 69.5q0 30 12 64zM356 533q-59 0 -86 41.5t-12 117.5h16q6 -90 96 -90q48 0 80.5 22t59.5 68h20q-52 -159 -174 -159z" />
    <glyph glyph-name="Uring" unicode="&#x16e;" horiz-adv-x="787" 
d="M562 773q-43 0 -70.5 24t-27.5 63q0 51 39.5 86.5t94.5 35.5q43 0 70.5 -24t27.5 -63q0 -51 -39.5 -86.5t-94.5 -35.5zM563 790q35 0 56.5 39t21.5 82q0 54 -44 54q-34 0 -56 -39.5t-22 -81.5q0 -54 44 -54zM342 629l-99 -372q-14 -51 -14 -91q0 -72 39.5 -110.5
t117.5 -38.5q95 0 154 49.5t90 165.5l84 317q18 69 -1 97.5t-91 37.5l3 13h264l-3 -13q-71 -11 -98 -37t-46 -98l-91 -343q-29 -109 -98.5 -166t-205.5 -57q-113 0 -172.5 53.5t-59.5 143.5q0 38 12 83l98 367q7 26 -10.5 38.5t-82.5 15.5l3 13h324l-3 -13q-64 -4 -85.5 -16
t-28.5 -39z" />
    <glyph glyph-name="uring" unicode="&#x16f;" horiz-adv-x="556" 
d="M365 533q-43 0 -70.5 24t-27.5 63q0 51 39.5 86.5t94.5 35.5q43 0 70.5 -24t27.5 -63q0 -51 -39.5 -86.5t-94.5 -35.5zM366 550q35 0 56.5 39t21.5 82q0 54 -44 54q-34 0 -56 -39.5t-22 -81.5q0 -54 44 -54zM56 150l77 239q9 26 -5 38t-59 15v12l186 9l-97 -309
q-10 -30 -10 -54q0 -50 60 -50q52 0 123 66l56 187l41 158h107l-109 -360q-10 -33 -10 -47q0 -22 19.5 -28.5t68.5 -2.5v-10q-53 -22 -103 -22q-82 0 -82 58q0 15 8 41l-2 2q-92 -101 -179 -101q-51 0 -76.5 25.5t-25.5 69.5q0 30 12 64z" />
    <glyph glyph-name="Uhungarumlaut" unicode="&#x170;" horiz-adv-x="787" 
d="M342 629l-99 -372q-14 -51 -14 -91q0 -72 39.5 -110.5t117.5 -38.5q95 0 154 49.5t90 165.5l84 317q18 69 -1 97.5t-91 37.5l3 13h264l-3 -13q-71 -11 -98 -37t-46 -98l-91 -343q-29 -109 -98.5 -166t-205.5 -57q-113 0 -172.5 53.5t-59.5 143.5q0 38 12 83l98 367
q7 26 -10.5 38.5t-82.5 15.5l3 13h324l-3 -13q-64 -4 -85.5 -16t-28.5 -39zM449 768l89 128q34 51 49.5 67t37.5 16q17 0 28.5 -11.5t11.5 -26.5q0 -19 -17.5 -36t-71.5 -56l-115 -81h-12zM619 768l89 128q34 51 49.5 67t37.5 16q17 0 28.5 -11.5t11.5 -26.5
q0 -19 -17.5 -36t-71.5 -56l-115 -81h-12z" />
    <glyph glyph-name="uhungarumlaut" unicode="&#x171;" horiz-adv-x="556" 
d="M56 150l77 239q9 26 -5 38t-59 15v12l186 9l-97 -309q-10 -30 -10 -54q0 -50 60 -50q52 0 123 66l56 187l41 158h107l-109 -360q-10 -33 -10 -47q0 -22 19.5 -28.5t68.5 -2.5v-10q-53 -22 -103 -22q-82 0 -82 58q0 15 8 41l-2 2q-92 -101 -179 -101q-51 0 -76.5 25.5
t-25.5 69.5q0 30 12 64zM242 528l89 128q34 51 49.5 67t37.5 16q17 0 28.5 -11.5t11.5 -26.5q0 -19 -17.5 -36t-71.5 -56l-115 -81h-12zM412 528l89 128q34 51 49.5 67t37.5 16q17 0 28.5 -11.5t11.5 -26.5q0 -19 -17.5 -36t-71.5 -56l-115 -81h-12z" />
    <glyph glyph-name="Uogonek" unicode="&#x172;" horiz-adv-x="787" 
d="M342 629l-99 -372q-14 -51 -14 -91q0 -72 39.5 -110.5t117.5 -38.5q95 0 154 49.5t90 165.5l84 317q18 69 -1 97.5t-91 37.5l3 13h264l-3 -13q-71 -11 -98 -37t-46 -98l-91 -343q-27 -99 -85.5 -154.5t-168.5 -66.5l-20 -12q-102 -62 -102 -129q0 -27 15 -41.5t39 -14.5
q25 0 65 15l4 -12q-59 -35 -114 -35q-40 0 -65 21.5t-25 55.5q0 47 38.5 78t115.5 66l13 6h-14q-113 0 -172.5 53.5t-59.5 143.5q0 38 12 83l98 367q7 26 -10.5 38.5t-82.5 15.5l3 13h324l-3 -13q-64 -4 -85.5 -16t-28.5 -39z" />
    <glyph glyph-name="uogonek" unicode="&#x173;" horiz-adv-x="558" 
d="M326 -244q-40 0 -65 21t-25 56q0 48 41.5 81.5t118.5 64.5l33 14q-20 -2 -28 -2q-82 0 -82 58q0 15 8 41l-2 2q-92 -101 -179 -101q-51 0 -76.5 25.5t-25.5 69.5q0 30 12 64l77 239q9 26 -5 38t-59 15v12l186 9l-97 -309q-10 -30 -10 -54q0 -50 60 -50q52 0 123 66
l56 187l41 158h107l-109 -360q-10 -33 -10 -47q0 -22 19.5 -28.5t68.5 -2.5v-10l-60 -29q-128 -62 -128 -140q0 -27 15 -41.5t39 -14.5q27 0 65 15l4 -12q-58 -35 -113 -35z" />
    <glyph glyph-name="Wcircumflex" unicode="&#x174;" horiz-adv-x="1026" 
d="M507 768l186 196h13l76 -196h-17l-94 93l-143 -93h-21zM300 606l47 -468h4l223 360l-10 97q-5 46 -21.5 64t-68.5 25l3 13h303l-3 -13q-65 -3 -82.5 -19t-13.5 -59l39 -464h5l218 380q45 80 34 116t-79 46l3 13h249l-3 -13q-54 -9 -93.5 -45.5t-80.5 -109.5l-309 -543
h-35l-51 478l-290 -478h-36l-68 609q-5 45 -22 62t-71 27l3 13h298l-3 -13q-63 -3 -78.5 -19t-10.5 -59z" />
    <glyph glyph-name="wcircumflex" unicode="&#x175;" horiz-adv-x="719" 
d="M286 528l186 196h13l76 -196h-17l-94 93l-143 -93h-21zM462 -14l-71 9l-6 154l-12 94l-170 -256l-73 7l-6 155l-29 238q-4 30 -17.5 39.5t-57.5 8.5v12l168 17l32 -308l3 -93h6l59 92q60 93 79 146l-19 154l102 9l32 -308l3 -95h7l57 82q74 102 102 192q-52 25 -52 71
q0 28 16.5 45.5t44.5 17.5q27 0 44.5 -20t17.5 -46q0 -37 -18 -76t-82 -124z" />
    <glyph glyph-name="Ycircumflex" unicode="&#x176;" horiz-adv-x="686" 
d="M633 554l-211 -247l-64 -239q-8 -31 11.5 -41t89.5 -14l-3 -13h-345l3 13q69 4 94 15t33 39l65 240l-100 304q-13 40 -29 51.5t-71 21.5l3 13h325l-3 -13q-82 -3 -102.5 -18.5t-10.5 -47.5l93 -289l194 233q47 54 39 83t-76 39l3 13h251l-3 -13q-58 -9 -90.5 -32
t-95.5 -98zM368 768l186 196h13l76 -196h-17l-94 93l-143 -93h-21z" />
    <glyph glyph-name="ycircumflex" unicode="&#x177;" horiz-adv-x="464" 
d="M181 464l34 -201l33 -218h2l56 87q78 122 88 202q-28 9 -43.5 28.5t-15.5 43.5q0 27 16 45t43 18q28 0 45 -20.5t17 -50.5q0 -42 -25 -97t-113 -193q-81 -129 -139.5 -198t-95 -89.5t-77.5 -20.5t-63 20t-22 53q0 26 18 45t43 19t42 -17t17 -45q0 -27 -15 -44
q80 13 145 112l-41 237l-38 207q-5 30 -20 39.5t-58 8.5v12zM153 528l186 196h13l76 -196h-17l-94 93l-143 -93h-21z" />
    <glyph glyph-name="Ydieresis" unicode="&#x178;" horiz-adv-x="686" 
d="M633 554l-211 -247l-64 -239q-8 -31 11.5 -41t89.5 -14l-3 -13h-345l3 13q69 4 94 15t33 39l65 240l-100 304q-13 40 -29 51.5t-71 21.5l3 13h325l-3 -13q-82 -3 -102.5 -18.5t-10.5 -47.5l93 -289l194 233q47 54 39 83t-76 39l3 13h251l-3 -13q-58 -9 -90.5 -32
t-95.5 -98zM596 773q-21 0 -35 14t-14 39q0 34 21.5 59t51.5 25q20 0 34 -13.5t14 -37.5q0 -34 -21 -60t-51 -26zM402 773q-21 0 -35 14t-14 39q0 34 21.5 59t51.5 25q20 0 34 -13.5t14 -37.5q0 -34 -21 -60t-51 -26z" />
    <glyph glyph-name="Zacute" unicode="&#x179;" horiz-adv-x="662" 
d="M439 768l85 128q32 51 47 67t38 16q16 0 28.5 -12t12.5 -27q0 -19 -17 -36.5t-69 -54.5l-113 -81h-12zM593 676h-172q-62 0 -122.5 -41t-153.5 -156l-18 2l72 216h539l1 -15l-618 -661h201q64 0 120 42t153 165l15 -2l-68 -226h-569l-1 15z" />
    <glyph glyph-name="zacute" unicode="&#x17a;" horiz-adv-x="453" 
d="M246 528l85 128q32 51 47 67t38 16q16 0 28.5 -12t12.5 -27q0 -19 -17 -36.5t-69 -54.5l-113 -81h-12zM3 -16l-15 24l387 375l-2 3l-170 -3q-52 -1 -72 -15t-53 -73l-12 2l43 164h344l8 -25l-375 -366l2 -3q31 12 78 12q20 0 65 -3t59 -3q43 0 63.5 17.5t34.5 70.5l12 -2
q-13 -106 -39.5 -137.5t-90.5 -31.5q-36 0 -86 6t-74 6q-68 0 -107 -18z" />
    <glyph glyph-name="Zdotaccent" unicode="&#x17b;" horiz-adv-x="662" 
d="M593 676h-172q-62 0 -122.5 -41t-153.5 -156l-18 2l72 216h539l1 -15l-618 -661h201q64 0 120 42t153 165l15 -2l-68 -226h-569l-1 15zM474 773q-21 0 -35.5 14.5t-14.5 39.5q0 35 22 60.5t53 25.5q21 0 35.5 -13.5t14.5 -38.5q0 -35 -22.5 -61.5t-52.5 -26.5z" />
    <glyph glyph-name="zdotaccent" unicode="&#x17c;" horiz-adv-x="453" 
d="M3 -16l-15 24l387 375l-2 3l-170 -3q-52 -1 -72 -15t-53 -73l-12 2l43 164h344l8 -25l-375 -366l2 -3q31 12 78 12q20 0 65 -3t59 -3q43 0 63.5 17.5t34.5 70.5l12 -2q-13 -106 -39.5 -137.5t-90.5 -31.5q-36 0 -86 6t-74 6q-68 0 -107 -18zM288 533q-21 0 -35.5 14.5
t-14.5 39.5q0 35 22 60.5t53 25.5q21 0 35.5 -13.5t14.5 -38.5q0 -35 -22.5 -61.5t-52.5 -26.5z" />
    <glyph glyph-name="Zcaron" unicode="&#x17d;" horiz-adv-x="662" 
d="M454 768l-77 196h17l94 -93l143 93h21l-185 -196h-13zM593 676h-172q-62 0 -122.5 -41t-153.5 -156l-18 2l72 216h539l1 -15l-618 -661h201q64 0 120 42t153 165l15 -2l-68 -226h-569l-1 15z" />
    <glyph glyph-name="zcaron" unicode="&#x17e;" horiz-adv-x="453" 
d="M275 528l-77 196h17l94 -93l143 93h21l-185 -196h-13zM3 -16l-15 24l387 375l-2 3l-170 -3q-52 -1 -72 -15t-53 -73l-12 2l43 164h344l8 -25l-375 -366l2 -3q31 12 78 12q20 0 65 -3t59 -3q43 0 63.5 17.5t34.5 70.5l12 -2q-13 -106 -39.5 -137.5t-90.5 -31.5
q-36 0 -86 6t-74 6q-68 0 -107 -18z" />
    <glyph glyph-name="Aringacute" unicode="&#x1fa;" horiz-adv-x="689" 
d="M213 271l-72 -117q-44 -72 -35.5 -101t73.5 -40l-4 -13h-242l4 13q56 11 95.5 46t88.5 112l25.5 40.5l60 94.5l82 129.5l78.5 123.5l63 100l24 37q-31 7 -49 31t-18 60q0 55 41 95t98 40q43 0 68.5 -24.5t25.5 -68.5q0 -48 -32 -85.5t-79 -46.5l80 -588q8 -56 23 -72.5
t71 -23.5l-4 -13h-314l4 13q70 4 88.5 21t12.5 67l-20 170h-237zM447 292l-35 293h-4l-183 -293h222zM484 706q36 0 57.5 45t21.5 99q0 58 -40 58q-36 0 -57.5 -44.5t-21.5 -98.5q0 -59 40 -59zM510 943l85 128q32 51 47 67t38 16q16 0 28.5 -12t12.5 -27q0 -19 -17 -36.5
t-69 -54.5l-113 -81h-12z" />
    <glyph glyph-name="aringacute" unicode="&#x1fb;" horiz-adv-x="535" 
d="M470 307l-58 -201q-10 -35 -10 -52q0 -21 20 -28t67 -3v-10q-55 -21 -101 -21q-41 0 -60 12.5t-19 44.5q0 14 5 34l-2 1q-35 -50 -69.5 -71.5t-78.5 -21.5q-61 0 -97 42.5t-36 117.5q0 118 84.5 217.5t184.5 99.5q40 0 62.5 -16t38.5 -48l18 52l105 12zM314 445
q-46 0 -88 -53.5t-64.5 -121.5t-22.5 -120q0 -54 18.5 -84.5t54.5 -30.5q53 0 103 88l71 237q-5 38 -25 61.5t-47 23.5zM371 533q-43 0 -70.5 24t-27.5 63q0 51 39.5 86.5t94.5 35.5q43 0 70.5 -24t27.5 -63q0 -51 -39.5 -86.5t-94.5 -35.5zM372 550q35 0 56.5 39t21.5 82
q0 54 -44 54q-34 0 -56 -39.5t-22 -81.5q0 -54 44 -54zM391 791l85 128q32 51 47 67t38 16q16 0 28.5 -12t12.5 -27q0 -19 -17 -36.5t-69 -54.5l-113 -81h-12z" />
    <glyph glyph-name="AEacute" unicode="&#x1fc;" horiz-adv-x="1071" 
d="M719 768l85 128q32 51 47 67t38 16q16 0 28.5 -12t12.5 -27q0 -19 -17 -36.5t-69 -54.5l-113 -81h-12zM849 228h-15l-5.5 38t-5.5 28.5t-6.5 23.5l-8 15.5t-11 12.5t-15 6.5t-20 5t-25.5 0.5h-64l-90 -337h148q42 0 74.5 9t57 22t50.5 42.5t45.5 56.5t51.5 78h17
l-66 -229h-608l3 13q68 4 92 15t32 39l57 216h-246l-121 -138q-52 -61 -52 -90q0 -35 63 -42l-3 -13h-246l3 13q63 13 103 40t107 103l388 438q26 29 26 47q0 33 -96 43l3 13h645l-53 -213h-16q-7 37 -11 55t-11 43.5t-14 36.5t-18 25t-25 19t-33 9t-45 4h-127l-79 -298h63
q57 0 83 20.5t79 99.5h15zM543 304l97 364h-11l-320 -364h234z" />
    <glyph glyph-name="aeacute" unicode="&#x1fd;" horiz-adv-x="734" 
d="M597 468q66 0 101 -28.5t35 -74.5q0 -63 -79.5 -103.5t-231.5 -37.5q-5 -24 -5 -56q0 -71 25 -104.5t84 -33.5q39 0 78.5 23t68.5 61l13 -11q-81 -112 -200 -112q-65 0 -110 36t-50 108h-3q-25 -66 -75.5 -105t-107.5 -39t-89.5 28t-32.5 75q0 69 84 110t234 42
q6 32 6 81q0 61 -23 91.5t-63 30.5q-59 0 -85 -38q31 -14 31 -48q0 -28 -15.5 -43.5t-41.5 -15.5t-41.5 16t-15.5 41q0 45 49.5 76t124.5 31q120 0 144 -86h3q81 86 188 86zM187 39q53 0 93.5 53.5t51.5 137.5q-216 -5 -216 -120q0 -34 19.5 -52.5t51.5 -18.5zM592 447
q-51 0 -100 -62t-67 -145q217 4 217 151q0 56 -50 56zM442 528l85 128q32 51 47 67t38 16q16 0 28.5 -12t12.5 -27q0 -19 -17 -36.5t-69 -54.5l-113 -81h-12z" />
    <glyph glyph-name="Oslashacute" unicode="&#x1fe;" 
d="M59 -36h-30l101 107q-71 77 -71 201q0 79 31.5 158t85 142t133.5 102.5t170 39.5q116 0 194 -73l87 92h30l-102 -107q71 -81 71 -200q0 -107 -52 -208t-150.5 -168t-217.5 -67q-116 0 -194 72zM334 2q85 0 157.5 77.5t110.5 187.5t38 218q0 45 -9 83l-437 -462
q34 -104 140 -104zM179 212q0 -43 8 -83l437 462q-35 104 -139 104q-86 0 -158 -77.5t-110 -187.5t-38 -218zM457 768l85 128q32 51 47 67t38 16q16 0 28.5 -12t12.5 -27q0 -19 -17 -36.5t-69 -54.5l-113 -81h-12z" />
    <glyph glyph-name="oslashacute" unicode="&#x1ff;" horiz-adv-x="502" 
d="M19 -24l58 67q-49 54 -49 140q0 109 74 197t194 88q70 0 117 -41l49 56h21l-59 -67q50 -52 50 -140q0 -69 -31 -133t-93.5 -108t-142.5 -44q-69 0 -118 41l-48 -56h-22zM127 126q0 -18 1 -26l243 280q-14 69 -75 69q-39 0 -72.5 -35.5t-53.5 -87t-31.5 -105t-11.5 -95.5z
M206 11q39 0 72.5 35t53.5 87t31.5 105t11.5 95q0 5 -0.5 13t-0.5 12l-243 -278q13 -69 75 -69zM276 528l85 128q32 51 47 67t38 16q16 0 28.5 -12t12.5 -27q0 -19 -17 -36.5t-69 -54.5l-113 -81h-12z" />
    <glyph glyph-name="Scommaaccent" unicode="&#x218;" horiz-adv-x="563" 
d="M117 -287l-4 11q97 46 115 100l-3 2q-26 -2 -42.5 13.5t-16.5 40.5t17.5 42.5t42.5 17.5q27 0 44 -19.5t17 -47.5q0 -95 -170 -160zM-9 -17l64 242h15q40 -125 85 -173t118 -48q69 0 111.5 40.5t42.5 100.5q0 52 -34 91t-111 77q-79 40 -115 76.5t-36 99.5q0 89 72 155.5
t181 66.5q80 0 160 -43l58 49h16l-55 -223h-17q-38 117 -78 157.5t-102 40.5q-59 0 -98.5 -39t-39.5 -97q0 -22 8 -40.5t18 -31.5t32.5 -28.5t37.5 -23.5l46 -25q74 -39 111.5 -80t37.5 -103q0 -98 -68 -168t-194 -70q-50 0 -104.5 14.5t-89.5 34.5l-56 -52h-16z" />
    <glyph glyph-name="scommaaccent" unicode="&#x219;" horiz-adv-x="407" 
d="M30 -287l-4 11q97 46 115 100l-3 2q-26 -2 -42.5 13.5t-16.5 40.5t17.5 42.5t42.5 17.5q27 0 44 -19.5t17 -47.5q0 -95 -170 -160zM161 -9q-64 0 -109 24t-45 64q0 27 16.5 45.5t42.5 18.5q23 0 38 -14.5t15 -37.5q0 -29 -28 -51q9 -12 34.5 -21t50.5 -9q46 0 74.5 24.5
t28.5 62.5q0 18 -6.5 31.5t-23.5 26t-28 19t-37 19.5q-53 25 -81 52.5t-28 71.5q0 65 48.5 108t133.5 43q62 0 101.5 -25.5t39.5 -62.5q0 -26 -14.5 -43t-42.5 -17q-22 0 -37 15t-15 35q0 32 29 52q-7 12 -29 19.5t-44 7.5q-42 0 -67.5 -23.5t-25.5 -59.5q0 -22 15.5 -41
t30.5 -28t48 -26q55 -27 82.5 -55t27.5 -72q0 -64 -48.5 -108.5t-146.5 -44.5z" />
    <glyph glyph-name="schwa" unicode="&#x259;" horiz-adv-x="450" 
d="M1 94q0 63 79 103.5t231 37.5q6 27 6 56q0 71 -25 104.5t-84 33.5q-39 0 -78.5 -23t-68.5 -61l-13 11q83 112 202 112q74 0 123.5 -45t49.5 -130q0 -117 -84 -209.5t-202 -92.5q-66 0 -101 28.5t-35 74.5zM142 12q51 0 99.5 62t66.5 145q-216 -4 -216 -151q0 -56 50 -56z
" />
    <glyph glyph-name="circumflex" unicode="&#x2c6;" horiz-adv-x="308" 
d="M111 528l186 196h13l76 -196h-17l-94 93l-143 -93h-21z" />
    <glyph glyph-name="caron" unicode="&#x2c7;" horiz-adv-x="308" 
d="M225 528l-77 196h17l94 -93l143 93h21l-185 -196h-13z" />
    <glyph glyph-name="breve" unicode="&#x2d8;" horiz-adv-x="336" 
d="M246 533q-59 0 -86 41.5t-12 117.5h16q6 -90 96 -90q48 0 80.5 22t59.5 68h20q-52 -159 -174 -159z" />
    <glyph glyph-name="dotaccent" unicode="&#x2d9;" horiz-adv-x="209" 
d="M201 533q-21 0 -35.5 14.5t-14.5 39.5q0 35 22 60.5t53 25.5q21 0 35.5 -13.5t14.5 -38.5q0 -35 -22.5 -61.5t-52.5 -26.5z" />
    <glyph glyph-name="ring" unicode="&#x2da;" horiz-adv-x="265" 
d="M230 533q-43 0 -70.5 24t-27.5 63q0 51 39.5 86.5t94.5 35.5q43 0 70.5 -24t27.5 -63q0 -51 -39.5 -86.5t-94.5 -35.5zM231 550q35 0 56.5 39t21.5 82q0 54 -44 54q-34 0 -56 -39.5t-22 -81.5q0 -54 44 -54z" />
    <glyph glyph-name="ogonek" unicode="&#x2db;" horiz-adv-x="269" 
d="M8 -244q-40 0 -65 21.5t-25 55.5q0 47 38.5 78t115.5 66l77 36h18l-66 -40q-102 -62 -102 -129q0 -27 15 -41.5t39 -14.5q25 0 65 15l4 -12q-59 -35 -114 -35z" />
    <glyph glyph-name="tilde" unicode="&#x2dc;" horiz-adv-x="342" 
d="M111 526q15 67 40 97t63 30q20 0 70 -25t69 -25q21 0 32.5 11t26.5 47h16q-15 -67 -39.5 -97t-63.5 -30q-21 0 -70.5 25.5t-68.5 25.5q-21 0 -33 -11.5t-26 -47.5h-16z" />
    <glyph glyph-name="hungarumlaut" unicode="&#x2dd;" horiz-adv-x="427" 
d="M128 528l89 128q34 51 49.5 67t37.5 16q17 0 28.5 -11.5t11.5 -26.5q0 -19 -17.5 -36t-71.5 -56l-115 -81h-12zM298 528l89 128q34 51 49.5 67t37.5 16q17 0 28.5 -11.5t11.5 -26.5q0 -19 -17.5 -36t-71.5 -56l-115 -81h-12z" />
    <glyph glyph-name="commaaccent" unicode="&#x326;" horiz-adv-x="234" 
d="M-87 -287l-4 11q97 46 115 100l-3 2q-26 -2 -42.5 13.5t-16.5 40.5t17.5 42.5t42.5 17.5q27 0 44 -19.5t17 -47.5q0 -95 -170 -160z" />
    <glyph glyph-name="Wgrave" unicode="&#x1e80;" horiz-adv-x="1026" 
d="M300 606l47 -468h4l223 360l-10 97q-5 46 -21.5 64t-68.5 25l3 13h303l-3 -13q-65 -3 -82.5 -19t-13.5 -59l39 -464h5l218 380q45 80 34 116t-79 46l3 13h249l-3 -13q-54 -9 -93.5 -45.5t-80.5 -109.5l-309 -543h-35l-51 478l-290 -478h-36l-68 609q-5 45 -22 62t-71 27
l3 13h298l-3 -13q-63 -3 -78.5 -19t-10.5 -59zM646 768l-109 100q-47 44 -47 67q0 17 13 30t31 13q17 0 29 -13t25 -44l67 -153h-9z" />
    <glyph glyph-name="wgrave" unicode="&#x1e81;" horiz-adv-x="719" 
d="M462 -14l-71 9l-6 154l-12 94l-170 -256l-73 7l-6 155l-29 238q-4 30 -17.5 39.5t-57.5 8.5v12l168 17l32 -308l3 -93h6l59 92q60 93 79 146l-19 154l102 9l32 -308l3 -95h7l57 82q74 102 102 192q-52 25 -52 71q0 28 16.5 45.5t44.5 17.5q27 0 44.5 -20t17.5 -46
q0 -37 -18 -76t-82 -124zM447 528l-109 100q-47 44 -47 67q0 17 13 30t31 13q17 0 29 -13t25 -44l67 -153h-9z" />
    <glyph glyph-name="Wacute" unicode="&#x1e82;" horiz-adv-x="1026" 
d="M618 768l85 128q32 51 47 67t38 16q16 0 28.5 -12t12.5 -27q0 -19 -17 -36.5t-69 -54.5l-113 -81h-12zM300 606l47 -468h4l223 360l-10 97q-5 46 -21.5 64t-68.5 25l3 13h303l-3 -13q-65 -3 -82.5 -19t-13.5 -59l39 -464h5l218 380q45 80 34 116t-79 46l3 13h249l-3 -13
q-54 -9 -93.5 -45.5t-80.5 -109.5l-309 -543h-35l-51 478l-290 -478h-36l-68 609q-5 45 -22 62t-71 27l3 13h298l-3 -13q-63 -3 -78.5 -19t-10.5 -59z" />
    <glyph glyph-name="wacute" unicode="&#x1e83;" horiz-adv-x="719" 
d="M375 528l85 128q32 51 47 67t38 16q16 0 28.5 -12t12.5 -27q0 -19 -17 -36.5t-69 -54.5l-113 -81h-12zM462 -14l-71 9l-6 154l-12 94l-170 -256l-73 7l-6 155l-29 238q-4 30 -17.5 39.5t-57.5 8.5v12l168 17l32 -308l3 -93h6l59 92q60 93 79 146l-19 154l102 9l32 -308
l3 -95h7l57 82q74 102 102 192q-52 25 -52 71q0 28 16.5 45.5t44.5 17.5q27 0 44.5 -20t17.5 -46q0 -37 -18 -76t-82 -124z" />
    <glyph glyph-name="Wdieresis" unicode="&#x1e84;" horiz-adv-x="1026" 
d="M745 773q-21 0 -35 14t-14 39q0 34 21.5 59t51.5 25q20 0 34 -13.5t14 -37.5q0 -34 -21 -60t-51 -26zM551 773q-21 0 -35 14t-14 39q0 34 21.5 59t51.5 25q20 0 34 -13.5t14 -37.5q0 -34 -21 -60t-51 -26zM300 606l47 -468h4l223 360l-10 97q-5 46 -21.5 64t-68.5 25
l3 13h303l-3 -13q-65 -3 -82.5 -19t-13.5 -59l39 -464h5l218 380q45 80 34 116t-79 46l3 13h249l-3 -13q-54 -9 -93.5 -45.5t-80.5 -109.5l-309 -543h-35l-51 478l-290 -478h-36l-68 609q-5 45 -22 62t-71 27l3 13h298l-3 -13q-63 -3 -78.5 -19t-10.5 -59z" />
    <glyph glyph-name="wdieresis" unicode="&#x1e85;" horiz-adv-x="719" 
d="M528 533q-21 0 -35 14t-14 39q0 34 21.5 59t51.5 25q20 0 34 -13.5t14 -37.5q0 -34 -21 -60t-51 -26zM334 533q-21 0 -35 14t-14 39q0 34 21.5 59t51.5 25q20 0 34 -13.5t14 -37.5q0 -34 -21 -60t-51 -26zM462 -14l-71 9l-6 154l-12 94l-170 -256l-73 7l-6 155l-29 238
q-4 30 -17.5 39.5t-57.5 8.5v12l168 17l32 -308l3 -93h6l59 92q60 93 79 146l-19 154l102 9l32 -308l3 -95h7l57 82q74 102 102 192q-52 25 -52 71q0 28 16.5 45.5t44.5 17.5q27 0 44.5 -20t17.5 -46q0 -37 -18 -76t-82 -124z" />
    <glyph glyph-name="Ygrave" unicode="&#x1ef2;" horiz-adv-x="686" 
d="M633 554l-211 -247l-64 -239q-8 -31 11.5 -41t89.5 -14l-3 -13h-345l3 13q69 4 94 15t33 39l65 240l-100 304q-13 40 -29 51.5t-71 21.5l3 13h325l-3 -13q-82 -3 -102.5 -18.5t-10.5 -47.5l93 -289l194 233q47 54 39 83t-76 39l3 13h251l-3 -13q-58 -9 -90.5 -32
t-95.5 -98zM496 768l-109 100q-47 44 -47 67q0 17 13 30t31 13q17 0 29 -13t25 -44l67 -153h-9z" />
    <glyph glyph-name="ygrave" unicode="&#x1ef3;" horiz-adv-x="464" 
d="M181 464l34 -201l33 -218h2l56 87q78 122 88 202q-28 9 -43.5 28.5t-15.5 43.5q0 27 16 45t43 18q28 0 45 -20.5t17 -50.5q0 -42 -25 -97t-113 -193q-81 -129 -139.5 -198t-95 -89.5t-77.5 -20.5t-63 20t-22 53q0 26 18 45t43 19t42 -17t17 -45q0 -27 -15 -44
q80 13 145 112l-41 237l-38 207q-5 30 -20 39.5t-58 8.5v12zM283 528l-109 100q-47 44 -47 67q0 17 13 30t31 13q17 0 29 -13t25 -44l67 -153h-9z" />
    <glyph glyph-name="enspace" unicode="&#x2002;" horiz-adv-x="500" 
 />
    <glyph glyph-name="emspace" unicode="&#x2003;" horiz-adv-x="1000" 
 />
    <glyph glyph-name="threeperemspace" unicode="&#x2004;" horiz-adv-x="333" 
 />
    <glyph glyph-name="fourperemspace" unicode="&#x2005;" horiz-adv-x="250" 
 />
    <glyph glyph-name="thinspace" unicode="&#x2009;" horiz-adv-x="133" 
 />
    <glyph glyph-name="hairspace" unicode="&#x200a;" horiz-adv-x="75" 
 />
    <glyph glyph-name="endash" unicode="&#x2013;" horiz-adv-x="540" 
d="M60 252l6 22h430l-6 -22h-430z" />
    <glyph glyph-name="emdash" unicode="&#x2014;" horiz-adv-x="790" 
d="M60 252l6 22h680l-6 -22h-680z" />
    <glyph glyph-name="quoteleft" unicode="&#x2018;" horiz-adv-x="235" 
d="M334 710l4 -12q-124 -55 -151 -121l4 -3q28 3 46.5 -14.5t18.5 -45.5t-19.5 -47.5t-47.5 -19.5q-30 0 -49.5 21.5t-19.5 53.5q0 117 214 188z" />
    <glyph glyph-name="quoteright" unicode="&#x2019;" horiz-adv-x="235" 
d="M78 447l-4 12q123 54 150 121l-3 3q-29 -3 -47.5 14.5t-18.5 46.5q0 28 20 47.5t48 19.5q29 0 48.5 -22t19.5 -54q0 -117 -213 -188z" />
    <glyph glyph-name="quotesinglbase" unicode="&#x201a;" horiz-adv-x="235" 
d="M-69 -146l-4 12q123 53 150 121l-4 3q-28 -4 -46.5 14t-18.5 46t19.5 47.5t47.5 19.5q30 0 49.5 -22t19.5 -53q0 -117 -213 -188z" />
    <glyph glyph-name="quotedblleft" unicode="&#x201c;" horiz-adv-x="424" 
d="M522 710l4 -12q-123 -54 -150 -121l4 -3q28 3 46.5 -14.5t18.5 -45.5t-19.5 -47.5t-47.5 -19.5q-30 0 -49.5 21.5t-19.5 53.5q0 117 213 188zM334 710l4 -12q-124 -55 -151 -121l4 -3q28 3 46.5 -14.5t18.5 -45.5t-19.5 -47.5t-47.5 -19.5q-30 0 -49.5 21.5t-19.5 53.5
q0 117 214 188z" />
    <glyph glyph-name="quotedblright" unicode="&#x201d;" horiz-adv-x="424" 
d="M78 447l-4 12q123 54 150 121l-3 3q-29 -3 -47.5 14.5t-18.5 46.5q0 28 20 47.5t48 19.5q29 0 48.5 -22t19.5 -54q0 -117 -213 -188zM267 447l-4 12q123 55 150 121l-4 3q-28 -3 -46.5 14.5t-18.5 46.5q0 28 19.5 47.5t47.5 19.5q30 0 49.5 -22t19.5 -54
q0 -117 -213 -188z" />
    <glyph glyph-name="quotedblbase" unicode="&#x201e;" horiz-adv-x="424" 
d="M119 -146l-4 12q123 53 151 121l-4 3q-28 -4 -46.5 14t-18.5 46t19.5 47.5t47.5 19.5q30 0 49.5 -22t19.5 -53q0 -117 -214 -188zM-69 -146l-4 12q123 53 150 121l-4 3q-28 -4 -46.5 14t-18.5 46t19.5 47.5t47.5 19.5q30 0 49.5 -22t19.5 -53q0 -117 -213 -188z" />
    <glyph glyph-name="dagger" unicode="&#x2020;" horiz-adv-x="564" 
d="M163 -108q27 119 44.5 248t19.5 190l59 58q23 22 23 46q0 17 -12 28t-32 11q-24 0 -68.5 -16t-58.5 -16q-24 0 -38 10.5t-14 27.5q0 24 23.5 39t53.5 15q68 0 156 -66l4 3l8 108q7 88 14 120q6 23 20.5 37t32.5 14q21 0 33.5 -13t12.5 -35q0 -35 -55 -138l-52 -95l2 -3
q103 49 170 49q33 0 52 -12t19 -34q0 -20 -18 -33t-43 -13q-21 0 -61.5 21t-69.5 21t-45.5 -16t-16.5 -40q0 -15 5 -28l22 -67q-34 -59 -86 -181.5t-91 -242.5z" />
    <glyph glyph-name="daggerdbl" unicode="&#x2021;" horiz-adv-x="595" 
d="M378 307l-58 -57q-23 -23 -23 -46q0 -17 12 -28t32 -11q24 0 69 16t59 16q24 0 37.5 -10.5t13.5 -27.5q0 -24 -23.5 -39t-52.5 -15q-69 0 -157 66l-4 -3l-8 -108q-5 -84 -14 -119q-6 -23 -20.5 -36.5t-32.5 -13.5q-20 0 -32.5 12.5t-12.5 34.5q0 33 54 137l53 95l-3 3
q-103 -49 -169 -49q-33 0 -52.5 12.5t-19.5 33.5q0 20 18 33t43 13q22 0 62 -21t69 -21q30 0 46 16t16 40q0 16 -5 29l-21 74l58 56q23 23 23 47q0 16 -12 27.5t-32 11.5q-24 0 -69 -16.5t-59 -16.5q-24 0 -37.5 10.5t-13.5 27.5q0 24 23.5 39t52.5 15q71 0 157 -66l4 3
l7 108q7 87 14 119q15 51 54 51q20 0 32.5 -13t12.5 -35q0 -34 -54 -136l-53 -96l3 -3q98 49 169 49q33 0 52.5 -12t19.5 -33q0 -20 -18.5 -33.5t-43.5 -13.5q-21 0 -61 21t-69 21q-30 0 -46 -15.5t-16 -39.5q0 -13 4 -29z" />
    <glyph glyph-name="bullet" unicode="&#x2022;" horiz-adv-x="472" 
d="M261 198q-55 0 -93.5 38.5t-38.5 92.5t38.5 93t93.5 39q54 0 92.5 -39t38.5 -93t-38 -92.5t-93 -38.5z" />
    <glyph glyph-name="ellipsis" unicode="&#x2026;" horiz-adv-x="701" 
d="M76 -16q-28 0 -48 19.5t-20 46.5q0 28 20 47.5t49 19.5q28 0 47.5 -19.5t19.5 -46.5q0 -28 -20 -47.5t-48 -19.5zM309 -16q-29 0 -48.5 19.5t-19.5 46.5q0 28 20 47.5t49 19.5q28 0 47.5 -19.5t19.5 -46.5q0 -28 -20 -47.5t-48 -19.5zM542 -16q-29 0 -48.5 19.5
t-19.5 46.5q0 28 20 47.5t48 19.5t48 -19.5t20 -46.5q0 -28 -20 -47.5t-48 -19.5z" />
    <glyph glyph-name="guilsinglleft" unicode="&#x2039;" horiz-adv-x="303" 
d="M188 28l-134 177q-17 23 -17 30t28 27l227 160l10 -12l-173 -183l74 -190z" />
    <glyph glyph-name="guilsinglright" unicode="&#x203a;" horiz-adv-x="303" 
d="M14 28l-10 13l173 183l-74 192l15 9l134 -178q17 -22 17 -30t-28 -27z" />
    <glyph glyph-name="fraction" unicode="&#x2044;" horiz-adv-x="606" 
d="M-29 -32l341 357l336 355h32l-336 -355l-341 -357h-32z" />
    <glyph glyph-name="Euro" unicode="&#x20ac;" horiz-adv-x="667" 
d="M444 265h-200v-8q0 -101 46 -156.5t127 -55.5q101 0 194 112l13 -10q-116 -164 -267 -164q-108 0 -172 69.5t-64 187.5q0 16 1 25h-98l8 21h91q7 58 21 99h-86l7 21h86q46 120 145.5 196t222.5 76q77 0 124 -36t47 -91q0 -38 -22 -61t-54 -23q-27 0 -46.5 18t-19.5 45
t18 49t47 32q-8 21 -32.5 36t-64.5 15q-90 0 -155.5 -73t-95.5 -183h220l-7 -21h-219q-12 -49 -15 -99h208z" />
    <glyph glyph-name="published" unicode="&#x2117;" horiz-adv-x="839" 
d="M235 160l3 12q38 2 49.5 5.5t14.5 15.5l86 325q2 8 -0.5 12t-15 7t-36.5 4l3 11h155q77 0 114 -27t37 -70q0 -53 -48.5 -91.5t-139.5 -38.5h-44l-35 -130q-3 -12 9.5 -16.5t47.5 -6.5l-3 -12h-197zM417 340h34q60 0 90 38.5t30 91.5q0 67 -74 67h-28zM409 -34
q-149 0 -241.5 91t-92.5 234q0 118 51.5 218t147.5 161t217 61q150 0 242 -90.5t92 -234.5q0 -118 -51.5 -218t-147.5 -161t-217 -61zM410 -17q116 0 207 58.5t139.5 154.5t48.5 209q0 137 -86.5 223t-228.5 86q-116 0 -207 -58.5t-139.5 -154.5t-48.5 -209
q0 -137 86.5 -223t228.5 -86z" />
    <glyph glyph-name="servicemark" unicode="&#x2120;" horiz-adv-x="571" 
d="M116 470l21 79h10q20 -65 69 -65q21 0 35 9.5t14 28.5q0 14 -10.5 24.5t-39.5 23.5q-28 12 -42 25t-14 36q0 32 25.5 52.5t61.5 20.5q30 0 58 -13l19 14h9l-19 -71h-9q-12 31 -25 44t-35 13q-18 0 -31 -9.5t-13 -27.5q0 -25 52 -47q51 -23 51 -60q0 -31 -24 -53.5
t-67 -22.5q-37 0 -68 15l-19 -16h-9zM308 485q23 2 32.5 11.5t15.5 34.5l35 128q8 29 -27 30l3 10h91l15 -158h4l97 158h96l-3 -10q-22 -2 -30 -5t-10 -11l-46 -171q-2 -8 4.5 -11t26.5 -4l-3 -11h-113l3 11q30 1 34 15l44 165h-6l-117 -191h-18l-22 191h-5l-37 -136
q-6 -24 -2 -33.5t25 -12.5l-2 -9h-87z" />
    <glyph glyph-name="trademark" unicode="&#x2122;" horiz-adv-x="613" 
d="M342 476l2 9q22 2 31.5 11.5t16.5 34.5l34 128q8 29 -27 30l3 10h91l15 -158h4l98 158h95l-3 -10q-21 -2 -29 -5t-10 -11l-46 -171q-2 -8 4.5 -11t26.5 -4l-3 -11h-113l3 11q30 1 34 15l44 165h-7l-117 -191h-18l-21 191h-6l-36 -136q-7 -24 -2.5 -33.5t25.5 -12.5l-3 -9
h-86zM151 476l3 11q38 0 42 15l49 185h-8q-35 0 -78 -67h-12l25 79h203l-19 -79h-11q-4 35 -14 51t-31 16h-6l-50 -185q-2 -8 5 -11.5t29 -3.5l-3 -11h-124z" />
    <glyph glyph-name="minus" unicode="&#x2212;" horiz-adv-x="536" 
d="M505 315h-428l6 22h428z" />
    <glyph glyph-name="registered.alt" horiz-adv-x="839" 
d="M409 -34q-149 0 -241.5 91t-92.5 234q0 118 51.5 218t147.5 161t217 61q150 0 242 -90.5t92 -234.5q0 -118 -51.5 -218t-147.5 -161t-217 -61zM410 -17q116 0 207 58.5t139.5 154.5t48.5 209q0 137 -86.5 223t-228.5 86q-116 0 -207 -58.5t-139.5 -154.5t-48.5 -209
q0 -137 86.5 -223t228.5 -86zM416 367h25q57 0 88 30.5t31 77.5q0 34 -15 48t-50 14h-34zM412 352l-42 -157q-4 -13 5.5 -17t44.5 -6l-3 -12h-190l3 12q38 2 49 5.5t14 15.5l86 325q2 8 -0.5 12t-14.5 7t-36 4l2 11h163q143 0 143 -83q0 -42 -33 -71t-101 -38l-1 -3
q50 -4 67.5 -24t15.5 -68l-2 -41q-2 -32 6.5 -43t37.5 -12l-3 -11q-20 -2 -35 -2q-55 0 -72.5 15.5t-10.5 56.5l7 46q6 40 -8.5 59t-60.5 19h-31z" />
    <glyph glyph-name="percent.alt" horiz-adv-x="853" 
d="M310 676q61 0 99.5 -37t38.5 -103q0 -84 -61 -153t-149 -69q-61 0 -99 37t-38 104q0 84 61 152.5t148 68.5zM80 -8l368 348l341 330h37l-368 -347l-342 -331h-36zM236 331q38 0 70 43t47.5 99t15.5 105q0 82 -57 82q-38 0 -70 -43.5t-47.5 -99.5t-15.5 -105q0 -81 57 -81
zM667 348q61 0 99.5 -37t38.5 -103q0 -84 -61 -153t-149 -69q-61 0 -99.5 37t-38.5 103q0 84 61 153t149 69zM593 2q38 0 70 43.5t47.5 99.5t15.5 105q0 82 -57 82q-38 0 -70 -43.5t-47.5 -99.5t-15.5 -105q0 -82 57 -82z" />
    <glyph glyph-name="NUL" horiz-adv-x="0" 
 />
    <glyph glyph-name="hfjslug" horiz-adv-x="694" 
d="M644 -200h-208l-8 14h-163l-8 -14h-207v303q14 0 23 9.5t9 22.5t-9.5 22.5t-22.5 9.5v554h100l30 79h334l29 -79h101v-921zM400 563v-172h15v78h38v14h-38v66h43v14h-58zM184 563v-172h15v79h47v-79h15v172h-15v-79h-47v79h-15zM460 394q10 -4 21 -4q31 0 31 36v137h-16
v-137q0 -22 -16 -22q-8 0 -20 5v-15zM371 465l-13 3q-4 -18 -8 -30h-1l-16 31q23 21 23 42q0 12 -7 21.5t-20 9.5q-12 0 -20 -9.5t-8 -21.5q0 -13 14 -39q-23 -18 -23 -47q0 -16 8 -26.5t21 -10.5q19 0 29 24h1l12 -24l12 6l-17 32q6 14 13 39zM523 323v-46h8v12l8 8l15 -20
h10l-20 26l18 20h-10l-20 -24h-1v24h-8zM488 292l10 -15h9l-12 17q10 4 10 14q0 15 -17 15h-20v-46h8v15h12zM426 276q10 0 17 7t7 17q0 9 -7 16.5t-17 7.5t-17 -7.5t-7 -16.5q0 -10 7 -17t17 -7zM370 301l-13 22h-9l18 -29v-17h8v17l18 29h-9zM193 323v-46h34v7h-26v13h23
v7h-23v12h26v7h-34zM132 323v-46h8v32l25 -32h7v46h-8v-32l-25 32h-7zM241 323l14 -47h8l11 34h1l11 -34h8l14 47h-8l-10 -35h-1l-11 35h-7l-11 -35h-1l-10 35h-8zM327 479q-12 22 -12 32q0 19 14 19q13 0 13 -19q0 -15 -15 -32zM342 423q-8 -21 -20 -21q-16 0 -16 25
q0 19 16 35zM487 299h-11v17h11q10 0 10 -8q0 -9 -10 -9zM426 283q-16 0 -16 17q0 6 4.5 11.5t11.5 5.5t11.5 -5.5t4.5 -11.5q0 -17 -16 -17z" />
    <glyph glyph-name="i.dot" horiz-adv-x="300" 
d="M196 614q0 35 22 60.5t53 25.5q21 0 35 -13.5t14 -38.5q0 -35 -22 -61.5t-52 -26.5q-21 0 -35.5 14.5t-14.5 39.5zM250 27v-10q-59 -25 -116 -25q-86 0 -86 68q0 18 8 47l88 284q7 24 -11.5 36t-66.5 15v12l203 9l-110 -358q-9 -27 -9 -44q0 -23 21.5 -30t78.5 -4z" />
    <glyph glyph-name="caron.alt" horiz-adv-x="136" 
d="M115 529l40 163q9 37 21 52.5t33 15.5q16 0 27 -10.5t11 -25.5q0 -21 -29 -64l-90 -131h-13z" />
    </font>
</defs>
</svg>
